<?xml version="1.0" encoding="utf-8"?>
<!-- Generator: Adobe Illustrator 16.2.1, SVG Export Plug-In . SVG Version: 6.00 Build 0)  -->
<!DOCTYPE svg PUBLIC "-//W3C//DTD SVG 1.1//EN" "http://www.w3.org/Graphics/SVG/1.1/DTD/svg11.dtd">
<svg version="1.1" id="Layer_1" xmlns="http://www.w3.org/2000/svg" xmlns:xlink="http://www.w3.org/1999/xlink" x="0px" y="0px"
	 width="823.35px" height="627.218px" viewBox="0 0 823.35 627.218" enable-background="new 0 0 823.35 627.218"
	 xml:space="preserve">
<polygon fill="#7C9CB4" points="124.751,377.062 289.077,561.894 440.54,561.894 456.673,572.391 472.16,568.276 309.494,377.062 
	"/>
<polygon fill="#7C9CB4" points="544.45,501.38 580.16,548.276 667.16,514.276 656.525,467.674 672.012,463.559 598.479,360.064 "/>
<path opacity="0.81" fill="#7C9CB4" d="M620.077,270.729h-127.3c-2.218,0-4.014,1.803-4.014,4.014v48.874h-107.29V251.77
	c0-3.41-2.77-6.19-6.19-6.19h-196.33c-3.42,0-6.19,2.78-6.19,6.19v71.847h-40.498v-35.205c0-2.1-1.706-3.587-3.811-3.31
	l-115.88,15.915c-2.106,0.278-3.811,2.214-3.811,4.313v18.286H2c-1.1,0-2,0.9-2,2v28.66h22.764v30.995
	c0,2.106,1.705,3.84,3.811,3.562l120.88-15.916c2.105-0.276,3.811-2.207,3.811-4.312v-14.329h21.498v27.333
	c0,3.42,2.77,6.6,6.19,6.6h196.33c3.42,0,6.19-2.77,6.19-6.189v-27.743h107.29v4.653c0,2.219,1.796,4.279,4.014,4.279h127.3
	c2.217,0,4.014-1.795,4.014-4.014v-84.453C624.091,272.531,622.294,270.729,620.077,270.729z"/>
<path fill="none" stroke="#7C9CB4" stroke-width="5.2046" stroke-linecap="round" stroke-miterlimit="10" d="M769.37,361.676
	c-13.757-3.732-13.21-23.822-13.21-31.066c0-8,0-38,0-38"/>
<polygon fill="#7C9CB4" points="624.501,336.166 547.2,336.166 696.056,511.514 700.208,503.977 700.208,413.695 "/>
<path fill="#7C9CB4" d="M610.06,354.276v40.679c0,1.102-0.899,2-2,2H105.01c-1.1,0-2.66,0.611-3.47,1.361l-21.58,20.05
	c-0.81,0.75-2.33,1.11-3.39,0.8L1.92,397.517c-1.05-0.312-1.92-1.46-1.92-2.562v-40.679H610.06z"/>
<polygon fill="#7C9CB4" points="536.949,500.685 438.468,386.982 568.831,345.041 568.831,493.975 "/>
<path fill="none" stroke="#4B4051" stroke-width="5.2046" stroke-miterlimit="10" d="M767.16,409.943c0-20.667,0,0.333,0-7.667
	s2-13.667-10-13.667c-4.053,0-63.212,0-101,0c-33.944,0-19.692,17.667-74,17.667c-58,0-49.339-17.667-90-17.667
	c-72.411,0-132.38,0-194.5,0c-26,0-32.5-15.833-53-15.833s-25.5,15.833-47.5,15.833c-30.753,0-28,0-28,0"/>
<polygon fill="#7C9CB4" points="815.66,442.776 738.16,451.276 728.16,439.776 728.16,405.776 815.66,405.776 "/>
<path opacity="0.81" fill="#7C9CB4" d="M705.631,317.594c0,1.1,0.899,2,2,2h108.382c1.1,0,2-0.9,2-2v-33.234c0-1.1-0.9-2-2-2
	H707.632c-1.101,0-2,0.9-2,2L705.631,317.594z"/>
<path fill="#EBF8FC" d="M715.964,300.594c0,1.1,0.9,2,2,2h103.382c1.1,0,2-0.9,2-2v-20.234c0-1.1-0.899-2-2-2H717.965
	c-1.101,0-2,0.9-2,2L715.964,300.594z"/>
<path fill="#D6E4EA" d="M823.35,288.356v22.239c0,1.1-0.899,2-2,2H717.96c-1.1,0-2-0.9-2-2v-22.239c0-1.101,0.9-2,2-2h103.39
	C822.45,286.356,823.35,287.256,823.35,288.356z"/>
<g>
	<path fill="#BCCDD3" d="M731.493,308.609c-4.595,0-8.333-3.738-8.333-8.333s3.738-8.333,8.333-8.333
		c4.596,0,8.334,3.738,8.334,8.333S736.089,308.609,731.493,308.609z"/>
</g>
<path opacity="0.81" fill="#7C9CB4" d="M737.83,302.945l-4.3,9.65h-15.57c-1.1,0-2-0.9-2-2v-5.93l12.37-10.06L737.83,302.945z"/>
<path opacity="0.81" fill="#7C9CB4" d="M774.972,299.855v12.742l-21.562-0.002v-12.74c0-3.079,1.105-4.699,3.698-4.699h13.165
	C772.865,295.156,774.972,297.263,774.972,299.855z"/>
<g>
	<path fill="#BCCDD3" d="M767.993,308.609c-4.595,0-8.333-3.738-8.333-8.333s3.738-8.333,8.333-8.333
		c4.596,0,8.334,3.738,8.334,8.333S772.589,308.609,767.993,308.609z"/>
</g>
<g>
	<path fill="#BCCDD3" d="M804.493,308.609c-4.595,0-8.333-3.738-8.333-8.333s3.738-8.333,8.333-8.333
		c4.596,0,8.334,3.738,8.334,8.333S809.089,308.609,804.493,308.609z"/>
</g>
<path fill="none" stroke="#4B4051" stroke-width="5" stroke-miterlimit="10" d="M507.493,223.609c0,28,0,95.334,0,110.667
	s2,33.333,25.334,33.333c23.333,0,163,0,163,0c36,0,35.333-5.666,35.333-66.333"/>
<path fill="#574D5E" d="M272.886,106.526h-3.951c-1.532,0-2.774-1.243-2.774-2.774v-6.201c0-1.532,1.242-2.774,2.774-2.774h3.951
	c1.532,0,2.774,1.242,2.774,2.774v6.201C275.66,105.284,274.418,106.526,272.886,106.526z"/>
<path fill="none" stroke="#574D5E" stroke-width="2.5" stroke-linecap="round" stroke-linejoin="round" stroke-miterlimit="10" d="
	M228.827,178.276c13.333,0,21.333-0.667,21.333-17.333c0-16.667-6.667-62,28-62"/>
<polygon fill="#7C9CB4" points="125.353,511.514 26.501,396.061 133.209,377.695 129.506,503.977 "/>
<path fill="none" stroke="#4B4051" stroke-width="5.2046" stroke-miterlimit="10" d="M214.491,191.399
	c16,0,84.377,8.617,84.377-32.231"/>
<path fill="none" stroke="#4B4051" stroke-width="5.2046" stroke-miterlimit="10" d="M204.16,191.399
	c16,0,84.377,8.617,84.377-32.231"/>
<path fill="none" stroke="#4B4051" stroke-width="5.2046" stroke-linecap="round" stroke-miterlimit="10" d="M80.001,375.372
	l4.685,1.075c0.536,0.123,0.975,0.674,0.975,1.224v5.274c0,0.551-0.45,1-1,1c0,0-11.987,0,22.09,0
	c25.772,0,21.41,21.525,21.41,21.525"/>
<path fill="none" stroke="#4B4051" stroke-width="5.2046" stroke-linecap="round" stroke-miterlimit="10" d="M239.94,289.012"/>
<path fill="none" stroke="#4B4051" stroke-width="5.2046" stroke-linecap="round" stroke-miterlimit="10" d="M85.66,352.742v6.275
	c0,0.55,0.45,1,1,1h63.806"/>
<path fill="none" stroke="#4B4051" stroke-width="5.2046" stroke-miterlimit="10" d="M159.888,365.35
	c66.939,0,54.415-28.311,54.415-92.021"/>
<path fill="none" stroke="#4B4051" stroke-width="5.2046" stroke-miterlimit="10" d="M183.889,346.55
	c66.94,0,54.416-28.311,54.416-92.022"/>
<g>
	<polygon fill="#7C9CB4" points="98.853,511.514 60.142,466.305 46.85,466.781 35.488,453.509 35.488,437.82 0.001,396.061 
		103.006,396.982 103.006,503.977 	"/>
	<path fill="#F2DBBB" d="M672.871,211.618c1.101,0,2,0.9,2,2l0.001,178.782c0,1.1-0.9,2-2,2h-134.42c-1.1,0-2-0.9-2-2V213.618
		c0-1.1,0.9-2,2-2L672.871,211.618z"/>
	<path fill="#AA8B79" d="M672.871,216.461c1.101,0,2,0.9,2,2v93.683c0,1.101-0.899,2-2,2H538.452c-1.1,0-2-0.899-2-2v-93.683
		c0-1.1,0.9-2,2-2H672.871z"/>
	<path fill="#D4BD96" d="M109.43,272.977v238.07c0,1.1-0.9,2-2,2h-8.85c-1.1,0-2-0.9-2-2v-225.92c0-1.101,0.66-2.621,1.45-3.381
		l9.95-9.4C108.78,271.596,109.43,271.877,109.43,272.977z"/>
	<rect x="96.58" y="295.276" fill="#B59885" width="12.85" height="7"/>
	<path fill="#574D5E" d="M125.395,317.066c-1.1,0-2,0.9-2,2v147.39c0,1.101,0.9,2,2,2h62.236c1.1,0,2-0.899,2-2v-147.39
		c0-1.1-0.9-2-2-2H125.395z"/>
	<path fill="#A7B3B7" d="M81.09,349.289c1.1,0,2,0.9,2,2V466.46c0,1.1-0.9,2-2,2H48.85c-1.1,0-2-0.9-2-2V351.289c0-1.1,0.9-2,2-2
		H81.09z"/>
	<path fill="#BFCBD1" d="M48.854,349.286c-1.1,0-2,0.9-2,2v93.382c0,1.1,0.9,2,2,2h32.233c1.1,0,2-0.9,2-2v-93.382c0-1.1-0.9-2-2-2
		H48.854z"/>
	<g opacity="0.6">
		<path fill="#433A47" d="M125.391,317.066c-1.1,0-2,0.9-2,2l-0.001,36.184c0,1.101,0.9,2,2,2h62.236c1.1,0,2-0.899,2-2
			l0.001-36.184c0-1.1-0.9-2-2-2H125.391z"/>
	</g>
	<path fill="#433A47" d="M189.63,382.656v128.38c0,1.1-0.9,2-2,2h-62.24c-1.1,0-2-0.9-2-2v-128.38c0-1.1,0.9-2,2-2h62.24
		C188.73,380.656,189.63,381.557,189.63,382.656z"/>
	<g opacity="0.6">
		<path fill="#433A47" d="M132.764,386.777c-1.1,0-2,0.9-2,2l0,67.445c0,1.101,0.9,2,2,2l47.481,0.001c1.1,0.001,2-0.899,2-1.999
			v-67.447c0-1.1-0.9-2-2-2H132.764z"/>
		<path fill="#7D7087" d="M136.338,425.364c-1.1,0-2,0.899-2,2l0,8.068c0,1.101,0.9,2,2,2h40.333c1.1,0,2-0.899,2-2v-8.068
			c0-1.101-0.9-2-2-2H136.338z"/>
	</g>
	<path fill="#D4BD96" d="M695.191,272.397c-0.774-0.782-1.408-0.521-1.408,0.579v238.066c0,1.1,0.9,2,2,2h8.85c1.101,0,2-0.9,2-2
		v-225.1c0-1.1-0.634-2.639-1.407-3.42L695.191,272.397z"/>
	<rect x="694.08" y="295.276" fill="#B59885" width="12.351" height="7"/>
	<path fill="#D4BD96" d="M706.122,294.65c0.281,1.063-0.389,1.934-1.489,1.934H98.581c-1.1,0-1.851-0.888-1.668-1.973l16.494-97.917
		c0.183-1.085,1.232-1.972,2.333-1.972H677.74c1.1,0,2.229,0.871,2.511,1.934L706.122,294.65z"/>
	<path fill="#F2DBBB" d="M706.63,178.006v106.24c0,1.1-0.9,2-2,2H98.58c-1.1,0-2-0.9-2-2v-106.24c0-1.101,0.9-2,2-2h606.05
		c0.811,0,1.521,0.49,1.83,1.189C706.57,177.446,706.63,177.716,706.63,178.006z"/>
	<path fill="#B59885" d="M470.14,176.006v1.679c0,3.421-2.77,6.191-6.189,6.191H267.62c-3.42,0-6.19-2.77-6.19-6.191v-1.679H470.14z
		"/>
	<polygon fill="#B59885" points="383.66,186.776 317.72,197.826 297.71,176.006 382.75,176.006 	"/>
	<path fill="#B59885" d="M442.83,209.274v17.118c0,1.912-1.468,3.502-3.372,3.657L308.026,240.68
		c-1.138,0.092-2.254-0.351-3.019-1.199l-4.572-5.068c-0.608-0.674-0.944-1.549-0.944-2.457v-22.682
		c0-2.026,1.642-3.668,3.668-3.668h136.004C441.188,205.606,442.83,207.249,442.83,209.274z"/>
	<g>
		<g enable-background="new    ">
			<g opacity="0.6">
				<g enable-background="new    ">
					<g>
						<g>
							
								<path fill="none" stroke="#79707F" stroke-width="2.0814" stroke-linecap="round" stroke-linejoin="round" stroke-miterlimit="10" d="
								M273.49,212.007"/>
						</g>
					</g>
				</g>
			</g>
		</g>
	</g>
	<g>
		<rect x="541.453" y="333.596" fill="#826057" width="128.418" height="162.781"/>
		<rect x="546.42" y="410.49" fill="#826057" width="64.149" height="45.97"/>
		<polygon fill="#B26941" points="582.56,456.525 572.775,407.863 547.503,412.927 547.503,430.595 		"/>
		<rect x="541.45" y="382.803" fill="#D4BD96" width="128.42" height="35.589"/>
		<rect x="541.45" y="374.896" fill="#F2DBBB" width="128.42" height="35.59"/>
		<path fill="#B59885" d="M669.87,374.896v35.59h-8.75c-9.47-10.439-25.95-28.57-32.33-35.59H669.87z"/>
		<path fill="#B59885" d="M643.37,361.396l-2.793,38.963l-5.754,4.297c-9.47-10.44-28.116-30.859-34.496-37.88L643.37,361.396z"/>
		<path fill="#B59885" d="M575.37,374.896l-10.945,23.717h-8.75c-9.469-10.439-9.468-12.316-15.848-19.337l3-5L575.37,374.896z"/>
		<rect x="555.675" y="375.547" fill="#FFFFFF" width="62.336" height="23.066"/>
		<rect x="555.675" y="365.604" fill="#F7524B" width="62.336" height="11.066"/>
		<rect x="555.681" y="345.04" fill="#AF4343" width="62.479" height="20.561"/>
		<rect x="541.45" y="456.46" fill="#F2DBBB" width="128.42" height="35.58"/>
		<path fill="#B59885" d="M669.87,454.896v35.59h-8.75c-9.47-10.439-25.95-28.57-32.33-35.59H669.87z"/>
		<path fill="#D4BD96" d="M672.87,328.601H538.45c-1.1,0-2,0.899-2,2V499.38c0,1.101,0.9,2,2,2h134.42c1.1,0,2-0.899,2-2V330.601
			C674.87,329.5,673.97,328.601,672.87,328.601z M664.87,491.38H546.45V338.601h118.42V491.38z"/>
		<polygon fill="#F79C57" points="582.81,474.189 567.17,477.33 557.54,479.26 547.75,430.59 573.03,425.529 580.89,464.63 		"/>
		<polygon fill="#B26941" points="582.81,474.189 569.577,483.471 567.17,477.33 567.37,458.379 581.85,458.379 		"/>
		<rect x="569.492" y="454.248" fill="#525B1B" width="62.335" height="11.831"/>
		<rect x="569.492" y="464.234" fill="#778E17" width="62.335" height="19.236"/>
	</g>
	<g>
		<g>
			<g>
				<path fill="#433A47" d="M305.029,240.416c0,1.718,1.27,3.124,2.822,3.124h135.806c1.552,0,2.822-1.406,2.822-3.124v-21.175
					c0-1.718-1.271-3.124-2.822-3.124H307.851c-1.552,0-2.822,1.406-2.822,3.124V240.416z"/>
				<path fill="#574D5E" d="M305.029,233.656c0,1.718,1.27,3.124,2.822,3.124h135.806c1.552,0,2.822-1.406,2.822-3.124v-21.175
					c0-1.719-1.271-3.124-2.822-3.124H307.851c-1.552,0-2.822,1.405-2.822,3.124V233.656z"/>
			</g>
			<g>
				<g>
					<path fill="#433A47" d="M316.929,196.371c0,2.049,1.676,3.726,3.725,3.726h110.198c2.049,0,3.725-1.676,3.725-3.726v-18.166
						c0-2.049-1.676-3.725-3.725-3.725l-110.198,0c-2.049,0-3.725,1.676-3.725,3.725V196.371z"/>
					<path fill="#574D5E" d="M434.61,171.896v18.16c0,2.05-1.68,3.73-3.73,3.73h-110.2c-2.04,0-3.72-1.68-3.72-3.73v-18.16
						c0-2.05,1.68-3.73,3.72-3.73h110.2C432.931,168.167,434.61,169.846,434.61,171.896z"/>
					<path fill="#433A47" d="M431.487,168.169H320.082c-1.717,0-3.122,1.405-3.122,3.122v7.676c0-1.717,1.405-3.123,3.122-3.123
						l111.406,0c1.717,0,3.121,1.405,3.121,3.122v-7.677C434.608,169.574,433.204,168.169,431.487,168.169z"/>
					<path fill="#A0A6BA" d="M271.426,6.191v126.301c0,0.591,0.088,1.172,0.242,1.709c0.745,2.586,3.123,4.482,5.949,4.482H473.95
						c3.431,0,6.191-2.772,6.191-6.191V6.192c0-3.419-2.761-6.192-6.191-6.192H277.617C274.199,0,271.426,2.773,271.426,6.191z"/>
					<path fill="#574D5E" d="M480.14,12.436v130.25c0,3.421-2.77,6.191-6.189,6.191H277.62c-3.42,0-6.19-3.18-6.19-6.6V12.436
						c0-3.409,2.77-6.189,6.19-6.189h196.33C477.37,6.247,480.14,9.026,480.14,12.436z"/>
					<linearGradient id="SVGID_1_" gradientUnits="userSpaceOnUse" x1="375.7817" y1="-121.7241" x2="375.7817" y2="183.3194">
						<stop  offset="0" style="stop-color:#3767AE"/>
						<stop  offset="0.1415" style="stop-color:#3E7ABE"/>
						<stop  offset="0.4975" style="stop-color:#4CA4E1"/>
						<stop  offset="0.7772" style="stop-color:#56BDF7"/>
						<stop  offset="0.9441" style="stop-color:#59C7FF"/>
					</linearGradient>
					<rect x="279.915" y="14.992" fill="url(#SVGID_1_)" width="191.735" height="120.581"/>
					<polygon fill="#574D5E" points="463.188,158.634 392.619,158.074 380.654,135.573 463.188,135.573 					"/>
					<g>
						<path fill="#433A47" d="M471.38,15.012V132.29H280.189V15.012H471.38 M473.95,11.202H277.617
							c-0.682,0-1.237,0.556-1.237,1.239v123.657h198.809V12.441C475.188,11.758,474.633,11.202,473.95,11.202L473.95,11.202z"/>
					</g>
				</g>
			</g>
			<path fill="#574D5E" d="M305.029,233.656c0,1.718,1.27,3.124,2.822,3.124h135.806c1.552,0,2.822-1.406,2.822-3.124v-21.175
				c0-1.719-1.271-3.124-2.822-3.124H307.851c-1.552,0-2.822,1.405-2.822,3.124V233.656z"/>
			<path fill="#A0A6BA" d="M310.387,214.186c0-0.858,0.634-1.56,1.409-1.56h104.512c0.774,0,1.409,0.702,1.409,1.56v0.789
				c0,0.858-0.635,1.56-1.409,1.56H311.796c-0.775,0-1.409-0.702-1.409-1.56V214.186z"/>
			<path fill="#A0A6BA" d="M310.387,222.179c0-0.858,0.634-1.56,1.409-1.56h104.512c0.774,0,1.409,0.702,1.409,1.56v0.789
				c0,0.858-0.635,1.56-1.409,1.56H311.796c-0.775,0-1.409-0.702-1.409-1.56V222.179z"/>
			<path fill="#A0A6BA" d="M316.292,230.179c0-0.858,0.634-1.56,1.409-1.56l92.703,0c0.775,0,1.41,0.702,1.41,1.56v0.782
				c0,0.858-0.635,1.56-1.41,1.56h-92.703c-0.775,0-1.409-0.702-1.409-1.56V230.179z"/>
			<g>
				<path fill="#A0A6BA" d="M433.225,220.619c0.774,0,1.409,0.703,1.409,1.56v0.789c0,0.858-0.635,1.56-1.409,1.56h-2.374
					c-0.775,0-1.408-0.702-1.408-1.56v-0.789c0-0.858,0.633-1.56,1.408-1.56H433.225z"/>
				<path fill="#A0A6BA" d="M440.317,220.619c0.775,0,1.409,0.703,1.409,1.56v0.789c0,0.858-0.634,1.56-1.409,1.56h-2.373
					c-0.775,0-1.41-0.702-1.41-1.56v-0.789c0-0.857,0.635-1.56,1.41-1.56H440.317z"/>
				<path fill="#A0A6BA" d="M426.001,220.619c0.775,0,1.41,0.702,1.41,1.56v0.789c0,0.858-0.635,1.56-1.41,1.56h-2.754
					c-0.774,0-1.408-0.702-1.408-1.56v-0.789c0-0.858,0.634-1.56,1.408-1.56H426.001z"/>
				<path fill="#A0A6BA" d="M433.225,228.29c0.774,0,1.409,0.702,1.409,1.56v0.789c0,0.858-0.635,1.56-1.409,1.56h-2.374
					c-0.775,0-1.408-0.702-1.408-1.56v-0.789c0-0.858,0.633-1.56,1.408-1.56H433.225z"/>
				<path fill="#A0A6BA" d="M440.317,228.29c0.775,0,1.409,0.702,1.409,1.56v0.789c0,0.858-0.634,1.56-1.409,1.56h-2.373
					c-0.775,0-1.41-0.702-1.41-1.56v-0.789c0-0.858,0.635-1.56,1.41-1.56H440.317z"/>
				<path fill="#A0A6BA" d="M426.001,228.29c0.775,0,1.41,0.702,1.41,1.56v0.789c0,0.858-0.635,1.56-1.41,1.56h-2.754
					c-0.774,0-1.408-0.702-1.408-1.56v-0.789c0-0.858,0.634-1.56,1.408-1.56H426.001z"/>
				<path fill="#A0A6BA" d="M433.225,212.626c0.774,0,1.409,0.702,1.409,1.56v0.789c0,0.858-0.635,1.56-1.409,1.56h-2.374
					c-0.775,0-1.408-0.702-1.408-1.56v-0.789c0-0.858,0.633-1.56,1.408-1.56H433.225z"/>
				<path fill="#A0A6BA" d="M440.317,212.626c0.775,0,1.409,0.702,1.409,1.56v0.789c0,0.858-0.634,1.56-1.409,1.56h-2.373
					c-0.775,0-1.41-0.702-1.41-1.56v-0.789c0-0.858,0.635-1.56,1.41-1.56H440.317z"/>
				<path fill="#A0A6BA" d="M426.001,212.626c0.775,0,1.41,0.702,1.41,1.56v0.789c0,0.858-0.635,1.56-1.41,1.56h-2.754
					c-0.774,0-1.408-0.702-1.408-1.56v-0.789c0-0.858,0.634-1.56,1.408-1.56H426.001z"/>
			</g>
			<g>
				<path fill="#B59885" d="M497.339,239.786v4.593c0,4.871-3.986,8.856-8.856,8.856h-2.681c-4.871,0-8.855-3.986-8.855-8.856
					v-4.593c0-4.871,3.984-8.856,8.855-8.856h2.681c0.655,0,1.299,0.07,1.919,0.212
					C494.356,232.021,497.339,235.576,497.339,239.786z"/>
				<path fill="#574D5E" d="M503.833,241.342v4.593c0,4.871-3.986,8.856-8.856,8.856h-2.681c-4.871,0-8.855-3.985-8.855-8.856
					v-4.593c0-4.871,3.984-8.856,8.855-8.856h2.681c0.655,0,1.299,0.071,1.919,0.212
					C500.851,233.578,503.833,237.132,503.833,241.342z"/>
				<path opacity="0.2" fill="#A0A6BA" d="M503.833,252.342v4.593c0,4.871-3.986,8.856-8.856,8.856h-1.595
					c-2.438-1.736-4.038-4.582-4.038-7.788v-4.959c0-4.57,3.247-8.419,7.552-9.346C500.851,244.578,503.833,248.132,503.833,252.342
					z"/>
				
					<line fill="none" stroke="#A0A6BA" stroke-width="2.8183" stroke-linecap="round" stroke-linejoin="round" stroke-miterlimit="10" x1="493.296" y1="245.286" x2="493.296" y2="247.846"/>
			</g>
			<polygon fill="#433A47" points="409.41,169.776 343.47,180.826 331.86,168.167 409.27,168.167 			"/>
		</g>
		<path fill="#483F4F" d="M343.148,179.517c0,1.137,0.93,2.067,2.067,2.067h61.139c1.137,0,2.067-0.93,2.067-2.067v-20.078
			c0-1.137-0.93-2.067-2.067-2.067h-61.139c-1.137,0-2.067,0.93-2.067,2.067V179.517z"/>
		<path fill="#433A47" d="M343.148,168.017c0,1.137,0.93,2.067,2.067,2.067h61.139c1.137,0,2.067-0.93,2.067-2.067v-20.078
			c0-1.137-0.93-2.067-2.067-2.067h-61.139c-1.137,0-2.067,0.93-2.067,2.067V168.017z"/>
	</g>
	<path fill="#B59885" d="M246.994,205.943c-24.78,4.06-101.26,17.54-103.95,17.949c-3.2,0.48-4.308,2.512-7.217,0.051
		c-4.333-3.667-35.937-36.527-39.247-40.167v-5.77c0-1.101,0.9-2,2-2h134.84l14.16,21.27
		C247.58,197.276,255.554,204.533,246.994,205.943z"/>
	<path fill="#312633" d="M178.577,399.359l-15.514,27.15c-0.446,1.26-1.843,2.291-3.103,2.291h-36.567l-0.001-9.904l11.758-20.621
		L178.577,399.359z"/>
	<path fill="#B59885" d="M501.979,284.246l-37.579-5c-0.13-0.189-0.271-0.38-0.41-0.58c-3.011-4.24-6.22-8.77-9.55-13.18
		c-3.17-4.22-6.461-8.32-9.75-11.96c-9.28-10.22-13.41-5.74-13.85-5.77c-5.94-0.36-10.461-5.46-10.101-11.39
		c0.351-5.931,5.46-10.45,11.39-10.1c16.98,1.02,31.811,20.1,49.42,44.949c0.26,0.37-15.58,0.323-7.39,1.728
		c-0.909-8.541,4.628-12.167,8.19-21.347c0.361-0.933,6.01-4.18,8.01-4.411c0.199-0.03,0.39-0.039,0.58-0.05
		c5.66-0.339,7.729-5.45,8.39,0.27C499.66,250.376,501.681,272.076,501.979,284.246z"/>
</g>
<path fill="#312633" d="M135.765,444.613c-0.787,0-1.43,0.645-1.43,1.431v0.665c0,0.787,0.644,1.431,1.43,1.431h6.05
	c0.787,0,1.43-0.644,1.43-1.431v-0.665c0-0.786-0.644-1.431-1.43-1.431H135.765z"/>
<path fill="#312633" d="M148.074,444.613c-0.787,0-1.43,0.645-1.43,1.431v0.665c0,0.787,0.644,1.431,1.43,1.431h6.05
	c0.786,0,1.43-0.644,1.43-1.431v-0.665c0-0.786-0.644-1.431-1.43-1.431H148.074z"/>
<path fill="#312633" d="M136.338,394.031c-1.1,0-2,0.9-2,2l0,8.068c0,1.1,0.9,2,2,2h40.333c1.1,0,2-0.9,2-2v-8.068c0-1.1-0.9-2-2-2
	H136.338z"/>
<path fill="#312633" d="M135.765,413.281c-0.787,0-1.43,0.643-1.43,1.43v0.665c0,0.786,0.644,1.431,1.43,1.431l6.05-0.001
	c0.787,0,1.43-0.644,1.43-1.43v-0.665c0-0.787-0.644-1.43-1.43-1.43H135.765z"/>
<path fill="#312633" d="M148.074,413.281c-0.787,0-1.43,0.643-1.43,1.43v0.665c0,0.786,0.644,1.431,1.43,1.43h6.05
	c0.786,0,1.43-0.644,1.43-1.43v-0.665c0-0.787-0.644-1.43-1.43-1.43H148.074z"/>
<path fill="#7D7087" d="M154.67,480.667c-1.1,0-2,0.9-2,2v3.55c0,1.1,0.9,2,2,2h3.685c1.1,0,2-0.9,2-2v-3.55c0-1.1-0.9-2-2-2H154.67
	z"/>
<path fill="#7D7087" d="M156.061,492.595c-1.1,0-2,0.899-2,2l0,1.185c0,1.1,0.9,2,2,2h0.91c1.1,0,2-0.9,2-2v-1.185
	c0-1.101-0.9-2-2-2H156.061z"/>
<g>
	<path fill="#FFB287" d="M490.827,250.276c-1.256,0-2.914-7.911-3.334-9.167l0.097-7.466c-0.524-1.572,0.323-3.271,1.896-3.796
		c1.571-0.525,3.271,0.324,3.796,1.895l1.355,4.057c0.524,1.571,2.096,10.119,0.523,10.644
		C494.846,246.548,491.142,250.276,490.827,250.276z"/>
</g>
<path fill="#D6E4EA" d="M61.99,468.46H48.85c-1.1,0-2-0.9-2-2v-15.681"/>
<path fill="#7C9CB4" d="M37.196,439.503"/>
<g>
	<path opacity="0.7" fill="#60758C" d="M76.76,407.371c0,0.689-0.15,1.359-0.43,2c-1.38,3.149-5.94,5.459-11.36,5.459
		s-9.98-2.31-11.36-5.459c-0.28-0.641-0.43-1.311-0.43-2c0-4.121,5.28-7.461,11.79-7.461C71.48,399.91,76.76,403.25,76.76,407.371z"
		/>
	<path opacity="0.6" fill="#BFCBD1" d="M76.33,409.371c-1.38,3.149-5.94,5.459-11.36,5.459s-9.98-2.31-11.36-5.459
		c1.38-3.15,5.94-5.461,11.36-5.461S74.95,406.221,76.33,409.371z"/>
</g>
<g>
	<path opacity="0.7" fill="#60758C" d="M76.76,384.78c0,0.689-0.15,1.359-0.43,2c-1.38,3.149-5.94,5.46-11.36,5.46
		s-9.98-2.311-11.36-5.46c-0.28-0.641-0.43-1.311-0.43-2c0-4.12,5.28-7.46,11.79-7.46C71.48,377.32,76.76,380.66,76.76,384.78z"/>
	<path opacity="0.6" fill="#BFCBD1" d="M76.33,386.779c-0.34,0.791-0.88,1.521-1.58,2.171l-0.01,0.01
		c-2.12,1.979-5.7,3.28-9.77,3.28s-7.65-1.301-9.77-3.28l-0.01-0.01c-0.7-0.65-1.24-1.38-1.58-2.171c0.31-0.719,0.79-1.389,1.41-2
		c1.07-1.069,2.57-1.959,4.34-2.559c1.66-0.57,3.58-0.9,5.61-0.9s3.95,0.33,5.61,0.9c1.77,0.6,3.27,1.489,4.34,2.559
		C75.54,385.391,76.02,386.061,76.33,386.779z"/>
</g>
<g>
	<path opacity="0.7" fill="#60758C" d="M76.76,362.189c0,0.69-0.15,1.36-0.43,2c-1.38,3.15-5.94,5.461-11.36,5.461
		s-9.98-2.311-11.36-5.461c-0.28-0.64-0.43-1.31-0.43-2c0-4.119,5.28-7.459,11.79-7.459C71.48,354.73,76.76,358.07,76.76,362.189z"
		/>
	<path opacity="0.6" fill="#BFCBD1" d="M76.33,364.189c-0.43,0.971-1.15,1.86-2.11,2.621c-2.16,1.729-5.5,2.84-9.25,2.84
		s-7.09-1.11-9.25-2.84c-0.96-0.761-1.68-1.65-2.11-2.621c0.31-0.709,0.79-1.379,1.41-1.989c1.6-1.61,4.16-2.8,7.17-3.261
		c0.89-0.14,1.82-0.209,2.78-0.209s1.89,0.069,2.78,0.209c3.01,0.461,5.57,1.65,7.17,3.261
		C75.54,362.811,76.02,363.48,76.33,364.189z"/>
</g>
<path fill="#4B4051" d="M74.92,382.221v5.559c0,0.4-0.06,0.791-0.17,1.171l-0.01,0.01c-2.12,1.979-5.7,3.28-9.77,3.28
	s-7.65-1.301-9.77-3.28l-0.01-0.01c-0.11-0.38-0.17-0.771-0.17-1.171v-5.559H74.92z"/>
<path fill="#4B4051" d="M74.92,358.939v5.561c0,0.58-0.12,1.15-0.36,1.689c-0.09,0.211-0.2,0.42-0.34,0.621
	c-2.16,1.729-5.5,2.84-9.25,2.84s-7.09-1.11-9.25-2.84c-0.14-0.201-0.25-0.41-0.34-0.621c-0.24-0.539-0.36-1.109-0.36-1.689v-5.561
	H74.92z"/>
<path fill="#6D6177" d="M70.309,350.783c0-1.922-1.572-3.494-3.493-3.494h-3.691c-1.921,0-3.493,1.572-3.493,3.494v11.272
	c0,1.921,1.572,3.493,3.493,3.493h3.691c1.921,0,3.493-1.572,3.493-3.493V350.783z"/>
<path fill="#6D6177" d="M74.925,358.25c0,0.583-0.126,1.148-0.363,1.689c-1.165,2.658-5.015,4.609-9.591,4.609
	s-8.426-1.951-9.591-4.609c-0.237-0.541-0.363-1.106-0.363-1.689c0-3.479,4.458-6.298,9.955-6.298S74.925,354.771,74.925,358.25z"/>
<path fill="#4B4051" d="M70.309,359.555c0-1.922-1.572-3.494-3.493-3.494h-3.691c-1.921,0-3.493,1.572-3.493,3.494v3.271
	c0,1.922,1.572,3.493,3.493,3.493h3.691c1.921,0,3.493-1.571,3.493-3.493V359.555z"/>
<path fill="#6D6177" d="M74.925,381.531c0,0.582-0.126,1.147-0.363,1.688c-1.165,2.66-5.015,4.61-9.591,4.61s-8.426-1.95-9.591-4.61
	c-0.237-0.54-0.363-1.105-0.363-1.688c0-3.479,4.458-6.299,9.955-6.299S74.925,378.052,74.925,381.531z"/>
<path fill="#6D6177" d="M70.309,376.062c0-1.92-1.572-3.492-3.493-3.492h-3.691c-1.921,0-3.493,1.572-3.493,3.492v11.273
	c0,1.922,1.572,3.494,3.493,3.494h3.691c1.921,0,3.493-1.572,3.493-3.494V376.062z"/>
<path fill="#4B4051" d="M70.309,385.395c0-1.922-1.572-3.494-3.493-3.494h-3.691c-1.921,0-3.493,1.572-3.493,3.494v3.271
	c0,1.922,1.572,3.493,3.493,3.493h3.691c1.921,0,3.493-1.571,3.493-3.493V385.395z"/>
<path fill="none" stroke="#4B4051" stroke-width="5" stroke-linecap="round" stroke-linejoin="round" stroke-miterlimit="10" d="
	M64.97,376.232c0-3.078,1.997-5.289,4.907-5.289c6.453,0,15.783-1.623,15.783,6.752"/>
<path fill="none" stroke="#4B4051" stroke-width="5" stroke-linecap="round" stroke-linejoin="round" stroke-miterlimit="10" d="
	M64.97,351.266c0-3.078,1.997-5.288,4.907-5.288c6.453,0,15.783-1.624,15.783,6.751"/>
<path fill="#4B4051" d="M55.875,424.717c-0.721,0-1.311,0.59-1.311,1.311v7.617c0,0.721,0.59,1.311,1.311,1.311h18.192
	c0.721,0,1.311-0.59,1.311-1.311v-7.617c0-0.721-0.59-1.311-1.311-1.311H55.875z"/>
<path fill="#574D5E" d="M55.846,420.146c-0.705-0.151-1.281,0.313-1.281,1.034v7.617c0,0.721,0.576,1.436,1.281,1.587l7.844,1.691
	c0.705,0.151,1.871,0.276,2.592,0.276h7.785c0.721,0,1.311-0.59,1.311-1.311v-7.617c0-0.721-0.59-1.311-1.311-1.311h-7.785
	c-0.721,0-1.888-0.125-2.592-0.276L55.846,420.146z"/>
<g opacity="0.9">
	
		<line fill="none" stroke="#F22C2C" stroke-width="6" stroke-linecap="round" stroke-miterlimit="10" x1="57.855" y1="441.668" x2="72.087" y2="441.668"/>
</g>
<g opacity="0.7">
	<path fill="#312633" d="M67.723,409.762c0,0.275-0.225,0.5-0.5,0.5H62.72c-0.275,0-0.5-0.225-0.5-0.5v-1.217
		c0-0.275,0.225-0.5,0.5-0.5h4.503c0.275,0,0.5,0.225,0.5,0.5V409.762z"/>
</g>
<g opacity="0.7">
	<path fill="#312633" d="M62.717,414.679c-0.273-0.032-0.497-0.284-0.497-0.559v-0.591c0-0.273,0.225-0.5,0.5-0.5h4.5
		c0.275,0,0.5,0.227,0.5,0.5v0.591c0,0.274-0.224,0.526-0.497,0.559c0,0-1.271,0.151-2.253,0.151
		C63.987,414.83,62.717,414.679,62.717,414.679z"/>
</g>
<line fill="none" stroke="#FF6A48" stroke-width="2" stroke-linecap="round" stroke-miterlimit="10" x1="59.855" y1="441.668" x2="70.087" y2="441.668"/>
<g>
	<path fill="#9FA9BC" d="M253.237,201.513c0,0.01,0,0.01,0,0.01c-0.02,0.43-0.04,0.77-0.04,0.88c-0.08,1.96-1.74,4.42-4.5,5.081
		l-105.87,18.46c-0.24,0.04-1.26,0.219-1.5,0.25c-1.87,0.25-5.37-1-7.25-3.88l-19.457-32.757c-0.54-0.92-0.34-1.58-0.35-2.15
		c-0.03-1.96-0.37-5.166,0.39-5.296l2.63,4.086l109.02-18.899l1.49-0.26c0.24-0.04,0.48-0.06,0.72-0.06c1.32,0,2.68,0.64,3.58,2.209
		l0.62,0.841l20.356,30C253.327,200.457,253.287,200.383,253.237,201.513z"/>
	<g>
		<g enable-background="new    ">
			<g>
				<path fill="#D2F0F7" d="M228.516,161.726c-0.241,0-0.48,0.021-0.715,0.062l-111.93,19.408c-1.529,0.265-2.321,1.262-1.255,3.109
					l20.552,34.693c0.904,1.569,2.261,2.213,3.583,2.213c0.24,0,0.479-0.021,0.714-0.062l111.929-19.416
					c1.531-0.257,2.332-1.254,1.255-3.11L232.1,163.938C231.195,162.369,229.838,161.726,228.516,161.726"/>
				<path fill="#574D5E" d="M234.087,193.255c-0.071,0-0.141,0.006-0.208,0.018l-91.177,15.806c-0.76,0.133-0.944,0.998-0.406,1.925
					l0.488,0.842c0.486,0.851,1.423,1.465,2.163,1.465c0.067,0,0.132-0.005,0.196-0.015l91.175-15.814
					c0.76-0.132,0.944-0.998,0.415-1.925l-0.487-0.841C235.753,193.868,234.829,193.255,234.087,193.255"/>
			</g>
		</g>
	</g>
	<path fill="#A0A6BA" d="M227.077,85.609l0.224,26.836l-1.02,41.63c0.03,2.75-2.16,5.37-4.87,5.83l-96.22,19.54l-6.53,1.331
		c-2.71,0.46-6.81-4.51-6.85-7.26l-0.04-3.12l-0.83-66.61c-0.04-2.75,2.15-5.381,4.86-5.841l103.367-17.506l0.36-0.06
		c1.92-0.33,3.44,0.68,4.67,1.87C224.857,82.879,227.067,84.81,227.077,85.609z"/>
	<path fill="#BFC5D8" d="M227.077,85.609l0.224,26.836c-3.8,4.19-6.64,7.081-6.64,7.081l-34.75,6.75l-47.25-0.25l-20.875-21.5
		c-2.7-1.91-2.25-4.75,2.5-5.5s97.617-16.307,97.617-16.307s0.625-0.83,1.265-2.28l0.36-0.06c1.92-0.33,3.44,0.68,4.67,1.87
		C224.857,82.879,227.067,84.81,227.077,85.609z"/>
	<path fill="#6F778E" d="M125.19,179.446l-6.53,1.331c-2.71,0.46-6.81-4.51-6.85-7.26l-0.04-3.12c4.33,5.529,5.78,3.989,9.56,5.049
		C121.33,175.446,123.07,177.216,125.19,179.446z"/>
	<g>
		<path fill="#2EBFFF" d="M118.325,178.078c-0.729,0-1.17-0.475-1.18-1.27l-0.875-69.727c-0.016-1.274,1.113-2.628,2.369-2.842
			l104.608-17.763c0.107-0.018,0.211-0.027,0.311-0.027c0.729,0,1.169,0.475,1.18,1.27l0.875,69.727
			c0.016,1.273-1.114,2.628-2.37,2.841L118.635,178.05C118.528,178.068,118.423,178.078,118.325,178.078z"/>
		<path fill="#433A47" d="M221.763,89.771l0.847,67.558c-0.007,0.009-0.014,0.018-0.021,0.026l-102.47,17.4l-0.847-67.558
			c0.007-0.009,0.014-0.018,0.022-0.026L221.763,89.771 M223.558,83.449c-0.265,0-0.536,0.023-0.813,0.07l-104.608,17.764
			c-2.711,0.46-4.901,3.087-4.867,5.837l0.875,69.727c0.031,2.469,1.847,4.232,4.18,4.232c0.265,0,0.536-0.023,0.812-0.07
			l104.608-17.764c2.711-0.46,4.902-3.086,4.867-5.836l-0.875-69.727C227.706,85.212,225.891,83.449,223.558,83.449L223.558,83.449z
			"/>
	</g>
	<path fill="#574D5E" d="M226.336,167.569c-0.07,0-0.139,0.005-0.206,0.017l-102.795,17.826c-0.761,0.132-0.945,0.998-0.407,1.925
		l10.125,16.748c0.491,0.846,1.415,1.458,2.151,1.458c0.07,0,0.139-0.005,0.206-0.017l102.796-17.826
		c0.761-0.132,0.945-0.998,0.407-1.925l-10.126-16.748C227.996,168.182,227.072,167.569,226.336,167.569"/>
</g>
<g>
	<g>
		<g>
			<path fill="#FFFFFF" d="M425.261,36.116v83.319c0,0.171-0.011,0.341-0.041,0.5c-0.24,1.601-1.619,2.831-3.289,2.831H296.31
				c-1.84,0-3.33-1.49-3.33-3.331V36.116c0-1.84,1.49-3.34,3.33-3.34h125.621C423.771,32.776,425.261,34.276,425.261,36.116z"/>
		</g>
		<path fill="#545766" d="M421.933,32.363H296.311c-2.073,0-3.751,1.679-3.751,3.75v7.105h133.123v-7.105
			C425.683,34.042,424.005,32.363,421.933,32.363z"/>
		<g>
			<circle fill="#F16228" cx="298.138" cy="37.906" r="2.093"/>
			<path fill="#F6B979" d="M306.026,37.393c0.371,1.559-1.004,2.922-2.56,2.54c-0.73-0.179-1.329-0.78-1.503-1.511
				c-0.373-1.555,1-2.919,2.558-2.541C305.252,36.059,305.852,36.66,306.026,37.393z"/>
			<path fill="#B0BD46" d="M311.882,37.394c0.369,1.556-0.999,2.916-2.552,2.541c-0.731-0.177-1.331-0.775-1.508-1.507
				c-0.378-1.56,0.998-2.929,2.559-2.546C311.111,36.061,311.709,36.663,311.882,37.394z"/>
		</g>
		<rect x="301.551" y="57.662" fill="#FCAE47" width="34.402" height="1.93"/>
		<rect x="339.074" y="57.662" fill="#7E99B8" width="7.8" height="1.93"/>
		<rect x="301.551" y="50.239" fill="#EA3D26" width="22.964" height="1.929"/>
		<rect x="321.913" y="65.089" fill="#C0E0DE" width="72.281" height="1.93"/>
		<rect x="301.552" y="65.089" fill="#FCAE47" width="16.723" height="1.93"/>
		<rect x="308.913" y="72.51" fill="#C0E0DE" width="58.37" height="1.931"/>
		<rect x="370.455" y="72.51" fill="#EA3D26" width="10.008" height="1.931"/>
		<rect x="308.913" y="79.935" fill="#FCAE47" width="11.196" height="1.928"/>
		<rect x="308.913" y="87.36" fill="#FCAE47" width="11.196" height="1.931"/>
		<rect x="323.284" y="79.935" fill="#CCD835" width="60.989" height="1.928"/>
		<rect x="323.284" y="87.36" fill="#CCD835" width="31.924" height="1.931"/>
		<rect x="357.593" y="87.36" fill="#7E99B8" width="31.922" height="1.931"/>
		<rect x="322.954" y="94.786" fill="#7E99B8" width="42.295" height="1.929"/>
		<rect x="301.551" y="94.786" fill="#FCAE47" width="18.802" height="1.929"/>
		<rect x="369.137" y="94.786" fill="#DB4126" width="5.914" height="1.929"/>
	</g>
	<path opacity="0.5" fill="#3F444C" d="M425.261,49.946v69.49c0,0.171-0.011,0.341-0.041,0.5h-15.1c-1.84,0-3.34-1.5-3.34-3.339
		v-63.32c0-1.841,1.5-3.331,3.34-3.331H425.261z"/>
</g>
<rect x="280.16" y="14.997" fill="#D2F0F7" width="191.22" height="8.28"/>
<g>
	<g>
		<path fill="#433A47" d="M450.07,50.276v63.32c0,1.839-1.49,3.339-3.33,3.339h-38.62c-1.84,0-3.34-1.5-3.34-3.339v-63.32
			c0-1.841,1.5-3.331,3.34-3.331h38.62C448.58,46.946,450.07,48.436,450.07,50.276z"/>
	</g>
	<path fill="#545766" d="M450.07,50.276v7.109h-45.29v-7.109c0-1.841,1.5-3.331,3.34-3.331h38.62
		C448.58,46.946,450.07,48.436,450.07,50.276z"/>
	<g>
		<circle fill="#F16228" cx="409.945" cy="52.071" r="2.093"/>
		<circle fill="#F6B979" cx="415.801" cy="52.071" r="2.093"/>
		<circle fill="#B0BD46" cx="421.659" cy="52.071" r="2.092"/>
	</g>
	<rect x="412.358" y="67.532" fill="#FFFFFF" width="2.859" height="2.024"/>
	<rect x="412.358" y="62.403" fill="#FFFFFF" width="2.859" height="2.023"/>
	<rect x="415.358" y="72.663" fill="#FFFFFF" width="2.859" height="2.024"/>
	<rect x="418.358" y="77.791" fill="#FFFFFF" width="2.859" height="2.025"/>
	<rect x="418.358" y="82.921" fill="#FFFFFF" width="2.859" height="2.022"/>
	<rect x="418.358" y="88.05" fill="#FFFFFF" width="2.859" height="2.025"/>
	<rect x="412.358" y="93.18" fill="#FFFFFF" width="2.859" height="2.024"/>
	<rect x="415.358" y="103.365" fill="#FFFFFF" width="2.859" height="2.025"/>
	<rect x="415.358" y="98.236" fill="#FFFFFF" width="2.859" height="2.023"/>
	<rect x="412.358" y="108.496" fill="#FFFFFF" width="2.859" height="2.024"/>
	<rect x="417.358" y="67.532" opacity="0.78" fill="#FFFFFF" width="7.859" height="2.024"/>
	<rect x="417.358" y="62.403" opacity="0.78" fill="#FFFFFF" width="17.859" height="2.023"/>
	<rect x="420.358" y="72.663" opacity="0.78" fill="#FFFFFF" width="12.859" height="2.024"/>
	<rect x="423.358" y="77.791" opacity="0.78" fill="#FFFFFF" width="17.859" height="2.025"/>
	<rect x="423.358" y="82.921" opacity="0.78" fill="#FFFFFF" width="13.859" height="2.022"/>
	<rect x="423.358" y="88.05" opacity="0.78" fill="#FFFFFF" width="11.859" height="2.025"/>
	<rect x="417.358" y="93.18" opacity="0.78" fill="#FFFFFF" width="23.859" height="2.024"/>
	<rect x="420.358" y="103.365" opacity="0.78" fill="#FFFFFF" width="11.859" height="2.025"/>
	<rect x="420.358" y="98.236" opacity="0.78" fill="#FFFFFF" width="14.859" height="2.023"/>
	<rect x="417.358" y="108.496" opacity="0.78" fill="#FFFFFF" width="17.859" height="2.024"/>
</g>
<circle fill="#545766" cx="284.513" cy="19.281" r="2.093"/>
<polygon opacity="0.12" fill="#FFFFFF" points="404.41,132.276 309.255,132.276 348.594,14.992 443.749,14.992 "/>
<path fill="#A0A6BA" d="M480.14,142.276v12.409c0,3.421-2.77,6.191-6.189,6.191H277.62c-3.42,0-6.19-2.77-6.19-6.191v-12.409H480.14
	z"/>
<g>
	<path fill="#574D5E" d="M380.848,148.171v4.771h-5.666v-4.771H380.848"/>
</g>
<path fill="#B59885" d="M696.13,202.736l-6.02,7.12c-0.9,1.06-2.29,1.599-3.68,1.42L546.14,192.966
	c-0.959-0.12-1.84-0.58-2.489-1.28l-14.49-15.679h145.31c1.141,0,2.23,0.48,3.01,1.32l18.531,19.95
	C697.42,198.796,697.479,201.146,696.13,202.736z"/>
<path fill="none" stroke="#574D5E" stroke-width="3" stroke-linecap="round" stroke-linejoin="round" stroke-miterlimit="10" d="
	M579.493,165.609c0,13.334,0,1.334,0,7.334s-3.333,11.666-15.333,9.333c-8.14-1.583-33.373-5.677-45.188-7.626"/>
<g>
	<g>
		<g>
			<g>
				<path fill="#413A47" d="M650.303,212.39c-1.728,2.14-5.37,3.588-8.095,3.219l-61.47-8.331c-2.726-0.369-4.954-2.021-4.954-3.671
					s2.181-3.553,4.846-4.229l81.018-20.539c2.665-0.676,4.846,1.021,4.846,3.771v2c0,2.75,0,5.613,0,6.362
					s-1.413,3.112-3.141,5.251L650.303,212.39z"/>
			</g>
			<g>
				<path fill="#413A47" d="M579.284,201.419c0-2.372-0.826-3.721-1.834-2.999s-1.833,1.352-1.833,1.397s0,1.396,0,2.999
					s0.825,2.915,1.833,2.915S579.284,203.791,579.284,201.419z"/>
			</g>
		</g>
	</g>
	<g>
		<g>
			<path fill="#574D5E" d="M660.601,185.578c2.726,0.362,3.542,2.409,1.814,4.548l-8.695,10.762
				c-1.729,2.139-4.212,5.105-5.518,6.592c-1.307,1.487-4.606,2.415-7.334,2.062l-62.209-8.044
				c-2.728-0.353-3.872-1.916-2.544-3.475c1.328-1.558,3.829-4.583,5.559-6.721l8.693-10.754c1.729-2.138,5.374-3.592,8.1-3.229
				L660.601,185.578z"/>
		</g>
		<g>
			<polygon fill="#413A47" points="666.89,186.33 654.54,201.456 581.16,191.776 593.511,176.66 			"/>
		</g>
		<polygon fill="#494251" points="644.348,169.185 649.37,194.329 595.624,187.437 590.66,162.109 		"/>
		<polygon fill="#413A47" points="644.368,162.244 649.636,188.615 593.268,181.387 588.061,154.823 		"/>
	</g>
	<path fill="#413A47" d="M525.284,40.916l0.809,115.242c0,0.592,0.088,1.172,0.241,1.71c0.745,2.586,3.123,4.481,5.95,4.481
		l156.334,20c3.43,0,6.19-2.772,6.19-6.191v-115.3c0-3.419-2.761-6.191-6.19-6.191L531.476,34.725
		C528.056,34.725,525.284,37.497,525.284,40.916z"/>
	<path fill="#413A47" d="M521.035,57.234c2.5,3.833,0.333-14.833,0.333-14.833l5.792-5.958l10.042,6.458L521.035,57.234z"/>
	<path fill="#413A47" d="M672.66,178.943c2.5,3.833,13.5,8.583,13.5,8.583l6.917-7.083l-4.25-9.834L672.66,178.943z"/>
	<path fill="#5F5468" d="M519.093,47.107V163.35c0,3.418,2.771,6.191,6.191,6.191l156.333,20c3.419,0,6.191-2.771,6.191-6.19V67.108
		c0-3.419-2.772-6.192-6.191-6.192l-156.333-20C521.864,40.916,519.093,43.689,519.093,47.107z"/>
	<polygon fill="#2EA397" points="679.315,170.24 527.581,150.239 527.581,49.659 679.315,69.659 	"/>
	<g>
		<path fill="#433A47" d="M679.046,69.678v97.277l-151.19-20V49.678L679.046,69.678 M681.616,65.869l-156.332-20
			c-0.684,0-1.238,0.556-1.238,1.238v103.658l158.809,20V67.108C682.854,66.425,682.3,65.869,681.616,65.869L681.616,65.869z"/>
	</g>
	<g>
		<g>
			<path fill="none" stroke="#8D8692" stroke-miterlimit="10" d="M675.16,155.276"/>
		</g>
	</g>
	<g>
		<g>
			<path fill="none" stroke="#8D8692" stroke-miterlimit="10" d="M675.16,155.609"/>
		</g>
	</g>
	<g>
		<g>
			<polygon fill="#2A6596" points="537.156,61.585 541.325,62.154 651.008,77.131 651.008,162.76 541.325,147.782 537.156,147.213 
							"/>
			<polygon fill="#D6CEDD" points="546.319,81.562 550.456,82.126 550.456,79.198 546.319,78.633 			"/>
			<polygon fill="#D6CEDD" points="546.319,74.142 550.456,74.707 550.456,71.779 546.319,71.214 			"/>
			<polygon fill="#D6CEDD" points="550.659,89.576 554.796,90.141 554.796,87.213 550.659,86.648 			"/>
			<polygon fill="#D6CEDD" points="546.319,96.402 550.456,96.967 550.456,94.038 546.319,93.473 			"/>
			<polygon fill="#D6CEDD" points="550.456,104.384 546.319,103.82 546.319,100.894 550.456,101.459 			"/>
			<polygon fill="#D6CEDD" points="559.135,112.992 554.999,112.428 554.999,109.499 559.135,110.063 			"/>
			<polygon fill="#D6CEDD" points="546.319,118.662 550.456,119.227 550.456,116.3 546.319,115.735 			"/>
			<polygon fill="#D6CEDD" points="550.659,133.987 554.796,134.552 554.796,131.623 550.659,131.059 			"/>
			<polygon fill="#D6CEDD" points="550.659,126.567 554.796,127.132 554.796,124.205 550.659,123.64 			"/>
			<polygon fill="#D6CEDD" points="546.319,140.816 550.456,141.381 550.456,138.453 546.319,137.888 			"/>
			<polygon fill="#FCAE47" points="553.552,79.625 558.556,80.308 558.556,83.232 553.552,82.549 			"/>
			<polygon opacity="0.75" fill="#D6CEDD" points="572.587,82.224 572.587,85.148 560.812,83.54 560.812,80.616 			"/>
			<polygon opacity="0.75" fill="#D6CEDD" points="620.511,88.767 620.511,91.692 574.845,85.457 574.845,82.532 			"/>
			<polygon opacity="0.75" fill="#D6CEDD" points="652.74,129.77 649.69,129.353 649.69,119.967 652.74,120.384 			"/>
			<polygon fill="#FFFFFF" points="652.74,162.867 649.69,162.451 649.69,128.658 652.74,129.074 			"/>
			<polygon fill="#FFFFFF" points="652.74,120.568 649.69,120.151 649.69,76.955 652.74,77.371 			"/>
			<polygon fill="#FF5C50" points="553.552,72.197 562.024,73.354 562.024,76.289 553.552,75.132 			"/>
			<polygon opacity="0.75" fill="#D6CEDD" points="579.382,75.724 579.382,78.659 564.282,76.598 564.282,73.662 			"/>
			<polygon fill="#3DAEA2" points="557.888,87.633 562.858,88.312 562.858,91.247 557.888,90.568 			"/>
			<polygon opacity="0.75" fill="#D6CEDD" points="598.729,93.209 598.729,96.145 565.116,91.555 565.116,88.62 			"/>
			<polygon fill="#40C0DD" points="553.552,94.457 559.801,95.311 559.801,98.246 553.552,97.393 			"/>
			<polygon fill="#FF5C50" points="566.061,96.165 566.061,99.101 562.058,98.554 562.058,95.618 			"/>
			<polygon opacity="0.75" fill="#D6CEDD" points="579.382,97.984 579.382,100.919 568.307,99.407 568.307,96.472 			"/>
			<polygon fill="#40C0DD" points="553.552,101.885 570.786,104.238 570.786,107.163 553.552,104.809 			"/>
			<polygon opacity="0.75" fill="#D6CEDD" points="606.956,109.177 606.956,112.101 573.044,107.47 573.044,104.546 			"/>
			<polygon fill="#FCAE47" points="562.236,110.486 566.616,111.085 566.616,114.009 562.236,113.411 			"/>
			<polygon opacity="0.75" fill="#D6CEDD" points="612.738,117.382 612.738,120.307 568.862,114.316 568.862,111.392 			"/>
			<polygon fill="#40C0DD" points="553.552,116.717 565.082,118.292 565.082,121.227 553.552,119.653 			"/>
			<polygon fill="#FF5C50" points="567.339,118.6 573.288,119.413 573.288,122.348 567.339,121.535 			"/>
			<polygon opacity="0.75" fill="#D6CEDD" points="588.065,121.43 588.065,124.366 575.534,122.654 575.534,119.719 			"/>
			<polygon fill="#3DAEA2" points="557.888,132.042 563.003,132.74 563.003,135.676 557.888,134.978 			"/>
			<polygon opacity="0.75" fill="#D6CEDD" points="619.521,140.458 619.521,143.393 565.26,135.984 565.26,133.049 			"/>
			<polygon fill="#FF5C50" points="557.888,124.625 563.837,125.438 563.837,128.362 557.888,127.55 			"/>
			<polygon fill="#FCAE47" points="566.083,125.744 570.509,126.349 570.509,129.273 566.083,128.669 			"/>
			<polygon opacity="0.75" fill="#D6CEDD" points="608.291,131.508 608.291,134.433 572.755,129.58 572.755,126.656 			"/>
			<polygon fill="#40C0DD" points="553.552,138.877 566.895,140.699 566.895,143.624 553.552,141.802 			"/>
			<polygon opacity="0.75" fill="#D6CEDD" points="579.382,142.404 579.382,145.329 569.151,143.932 569.151,141.008 			"/>
			<polygon fill="#FFFFFF" points="537.156,147.213 541.392,147.792 541.392,62.163 537.156,61.585 			"/>
			<polygon fill="#FFFFFF" points="537.156,61.585 541.392,62.163 652.854,77.383 652.854,71.939 541.392,56.72 537.156,56.141 			
				"/>
			<polygon fill="#A6E1FF" points="527.906,146.903 532.392,147.515 679.046,166.956 679.046,161.191 532.392,141.751 
				527.906,141.138 			"/>
		</g>
		<path fill="#FF5245" d="M648.685,75.603l1.879,0.257c0.353,0.048,0.639-0.199,0.639-0.551v-1.652c0-0.352-0.286-0.677-0.639-0.726
			l-1.879-0.256c-0.353-0.048-0.638,0.199-0.638,0.551v1.652C648.047,75.229,648.332,75.554,648.685,75.603z"/>
	</g>
	<polygon opacity="0.16" fill="#FFFFFF" points="648.06,65.54 612.85,158.48 547.9,149.919 583.11,56.98 	"/>
	<path fill="#FF5245" stroke="#413A47" stroke-miterlimit="10" d="M679.685,178.603l1.879,0.257
		c0.353,0.048,0.639-0.199,0.639-0.551v-1.652c0-0.352-0.286-0.677-0.639-0.726l-1.879-0.256c-0.353-0.048-0.638,0.199-0.638,0.551
		v1.652C679.047,178.229,679.332,178.554,679.685,178.603z"/>
</g>
<g>
	<path fill="#FFFFFF" d="M133.731,155.445c-1.008,0.169-1.828-0.623-1.828-1.768v-36.998c0-1.144,0.82-2.212,1.828-2.382
		l39.34-6.628c1.008-0.17,1.828,0.622,1.828,1.766v36.998c0,1.145-0.82,2.214-1.828,2.383L133.731,155.445z"/>
	<path fill="#545766" d="M173.071,107.408l-39.34,6.628c-1.136,0.191-2.057,1.392-2.057,2.681v4.424l43.453-7.321v-4.424
		C175.127,108.107,174.207,107.217,173.071,107.408z"/>
	<g>
		<path fill="#F16228" d="M135.881,117.126c0,0.719-0.514,1.389-1.148,1.495c-0.633,0.107-1.147-0.39-1.147-1.109
			c0-0.718,0.514-1.388,1.147-1.495C135.367,115.911,135.881,116.408,135.881,117.126z"/>
		<path fill="#F6B979" d="M139.093,116.585c0,0.719-0.514,1.39-1.147,1.496c-0.634,0.107-1.148-0.389-1.148-1.108
			c0-0.719,0.514-1.389,1.148-1.496C138.579,115.37,139.093,115.867,139.093,116.585z"/>
		<path fill="#B0BD46" d="M142.304,116.044c0,0.719-0.514,1.389-1.147,1.496c-0.634,0.106-1.147-0.391-1.147-1.11
			c0-0.718,0.513-1.388,1.147-1.495C141.791,114.829,142.304,115.326,142.304,116.044z"/>
	</g>
	<polygon fill="#FFFFFF" points="172.13,112.191 145.516,116.675 145.516,114.331 172.13,109.847 	"/>
	<polygon fill="#6F778E" points="134.438,125.979 143.881,124.389 143.881,122.688 134.438,124.279 	"/>
	<g>
		<polygon fill="#6F778E" points="134.438,146.287 144.569,144.58 144.569,143.613 134.438,145.32 		"/>
		<polygon fill="#A0A6BA" points="134.438,149.108 143.082,147.652 143.082,146.686 134.438,148.143 		"/>
		<polygon fill="#A0A6BA" points="134.438,151.931 143.082,150.475 143.082,149.508 134.438,150.964 		"/>
	</g>
	<g>
		<polygon fill="#6F778E" points="147.854,144.026 157.985,142.319 157.985,141.353 147.854,143.06 		"/>
		<polygon fill="#A0A6BA" points="147.854,146.848 156.498,145.392 156.498,144.426 147.854,145.882 		"/>
		<polygon fill="#A0A6BA" points="147.854,149.67 156.498,148.214 156.498,147.248 147.854,148.704 		"/>
	</g>
	<g>
		<polygon fill="#6F778E" points="161.488,141.729 171.619,140.022 171.619,139.056 161.488,140.763 		"/>
		<polygon fill="#A0A6BA" points="161.488,144.551 170.132,143.095 170.132,142.129 161.488,143.585 		"/>
		<polygon fill="#A0A6BA" points="161.488,147.374 170.132,145.917 170.132,144.95 161.488,146.407 		"/>
	</g>
	<polygon fill="#209CD3" points="166.365,120.601 172.364,119.589 172.364,117.889 166.365,118.9 	"/>
	<polygon fill="#209CD3" points="158.794,121.876 164.793,120.865 164.793,119.165 158.794,120.175 	"/>
	<polygon fill="#209CD3" points="151.223,123.151 157.222,122.141 157.222,120.44 151.223,121.451 	"/>
	<g>
		<polygon fill="#C0E0DE" points="134.438,141.811 144.906,140.047 144.906,127.149 134.438,128.913 		"/>
	</g>
	<g>
		<polygon fill="#C0E0DE" points="148.072,139.514 158.539,137.75 158.539,124.853 148.072,126.616 		"/>
	</g>
	<g>
		<polygon fill="#C0E0DE" points="161.706,137.217 172.173,135.454 172.173,122.555 161.706,124.319 		"/>
	</g>
	<g>
		<g>
			<path fill="#FFFFFF" d="M171.561,154.033c-1.007,0.169-1.827-0.623-1.827-1.767V118.7c0-1.144,0.82-2.212,1.827-2.382
				l26.016-4.383c1.008-0.17,1.828,0.623,1.828,1.767v33.565c0,1.144-0.82,2.213-1.828,2.383L171.561,154.033z"/>
		</g>
		<path fill="#545766" d="M197.352,111.712l-25.562,4.307c-1.136,0.191-2.057,1.392-2.057,2.681v4.424l29.675-5v-4.424
			C199.409,112.411,198.489,111.521,197.352,111.712z"/>
		<g>
			<path fill="#F16228" d="M173.711,119.147c0,0.719-0.515,1.389-1.148,1.496c-0.634,0.107-1.147-0.39-1.147-1.109
				c0-0.718,0.514-1.388,1.147-1.495C173.196,117.932,173.711,118.429,173.711,119.147z"/>
			<path fill="#F6B979" d="M176.923,118.606c0,0.719-0.514,1.388-1.146,1.495c-0.634,0.107-1.149-0.389-1.149-1.108
				c0-0.718,0.516-1.389,1.149-1.496C176.409,117.391,176.923,117.888,176.923,118.606z"/>
			<path fill="#B0BD46" d="M180.134,118.065c0,0.719-0.513,1.389-1.147,1.496c-0.633,0.107-1.146-0.389-1.146-1.108
				c0-0.719,0.514-1.389,1.146-1.496C179.622,116.85,180.134,117.347,180.134,118.065z"/>
		</g>
		<polygon fill="#3F444C" points="172.268,127.266 181.71,125.675 181.71,124.709 172.268,126.3 		"/>
		<g>
			<polygon fill="#6F778E" points="172.268,147.545 182.399,145.838 182.399,144.871 172.268,146.579 			"/>
			<polygon fill="#A0A6BA" points="172.268,150.367 180.912,148.911 180.912,147.944 172.268,149.4 			"/>
		</g>
		<g>
			<polygon fill="#6F778E" points="186.237,145.191 196.369,143.484 196.369,142.518 186.237,144.225 			"/>
			<polygon fill="#A0A6BA" points="186.237,148.014 194.881,146.557 194.881,145.59 186.237,147.046 			"/>
		</g>
		<g>
			<polygon fill="#FCAE47" points="172.518,143.702 182.985,141.938 182.985,129.04 172.518,130.804 			"/>
		</g>
		<g>
			<polygon fill="#CCD835" points="186.152,141.404 196.62,139.641 196.62,126.743 186.152,128.507 			"/>
		</g>
	</g>
</g>
<path fill="#D2F0F7" d="M221.83,95.426l-102.49,17.4l-0.07-5.63c0.01-0.01,0.02-0.02,0.02-0.02l102.47-17.399L221.83,95.426z"/>
<g>
	<polygon opacity="0.5" fill="#FFFFFF" points="219.314,157.59 125.458,173.328 127.521,167.102 217.251,152.056 	"/>
	<g>
		<path fill="#F4E453" d="M148.101,160.824c0.687-0.115,1.233,0.343,1.233,1.029v3.595c0,0.69-0.547,1.328-1.233,1.443l-3.598,0.604
			c-0.683,0.114-1.235-0.339-1.235-1.028v-3.595c0-0.687,0.553-1.33,1.235-1.444L148.101,160.824z"/>
		<path fill="#FDC60B" d="M137.666,162.573c0.686-0.115,1.235,0.343,1.235,1.03v3.595c0,0.689-0.549,1.328-1.235,1.442l-3.598,0.604
			c-0.682,0.114-1.235-0.339-1.235-1.029v-3.595c0-0.687,0.553-1.329,1.235-1.443L137.666,162.573z"/>
		<path fill="#F393A0" d="M175.804,162.246c-0.682,0.114-1.234-0.344-1.234-1.029v-3.598c0-0.689,0.553-1.328,1.234-1.442
			l3.596-0.603c0.681-0.114,1.237,0.338,1.237,1.027v3.598c0,0.685-0.557,1.329-1.237,1.443L175.804,162.246z"/>
		<path fill="#A0A6BA" d="M165.369,163.995c-0.679,0.114-1.232-0.344-1.232-1.029v-3.598c0-0.688,0.554-1.327,1.232-1.441
			l3.598-0.604c0.683-0.115,1.235,0.339,1.235,1.027v3.598c0,0.685-0.553,1.329-1.235,1.443L165.369,163.995z"/>
		<path fill="#FFFFFF" d="M154.935,165.747c-0.677,0.114-1.233-0.341-1.233-1.027v-3.599c0-0.685,0.556-1.33,1.233-1.443
			l3.597-0.603c0.682-0.114,1.235,0.344,1.235,1.03v3.598c0,0.686-0.553,1.327-1.235,1.441L154.935,165.747z"/>
		<path fill="#F2DBBB" d="M200.273,152.075c0.678-0.114,1.234,0.342,1.234,1.03v3.595c0,0.689-0.556,1.329-1.234,1.443l-3.598,0.603
			c-0.69,0.116-1.237-0.339-1.237-1.028v-3.595c0-0.688,0.546-1.329,1.237-1.444L200.273,152.075z"/>
		<path fill="#C7F6DD" d="M189.839,153.825c0.677-0.114,1.231,0.343,1.231,1.03v3.595c0,0.689-0.554,1.328-1.231,1.442l-3.599,0.603
			c-0.681,0.114-1.236-0.338-1.236-1.028v-3.595c0-0.687,0.556-1.33,1.236-1.444L189.839,153.825z"/>
		<path fill="#FFFFFF" d="M207.107,156.999c-0.688,0.115-1.235-0.341-1.235-1.027v-3.598c0-0.685,0.547-1.329,1.235-1.444
			l3.598-0.603c0.681-0.114,1.237,0.344,1.237,1.029v3.599c0,0.685-0.556,1.327-1.237,1.441L207.107,156.999z"/>
	</g>
</g>
<g>
	<path fill="#C1DCE5" d="M114.775,189.043c0,0-3.136-2.938-3.136-1.392c0,1.546-0.048,1.759,0.125,2.057l1.992,3.476
		c0.158,0.271,0.454,0.468,0.691,0.468c0.022,0,0.044-0.002,0.065-0.005l2.815-0.56v-1.935L114.775,189.043z"/>
	<path fill="none" stroke="#C1DCE5" stroke-width="2" stroke-linecap="round" stroke-linejoin="round" stroke-miterlimit="10" d="
		M112.66,190.901c-0.903,0.774-3.487,2.895-6.25,3.375c-0.261,0.045-0.519,0.09-0.772,0.133"/>
	<path fill="none" stroke="#FFFFFF" stroke-width="2" stroke-linecap="round" stroke-linejoin="round" stroke-miterlimit="10" d="
		M105.638,194.41c-5.333,0.911-8.978,1.367-8.978,1.367"/>
	<path fill="#FFFFFF" d="M114.775,186.589l-2.881,0.566c-0.244,0.042-0.303,0.319-0.13,0.618l1.992,3.476
		c0.158,0.271,0.454,0.468,0.691,0.468c0.022,0,0.044-0.002,0.065-0.006l2.815-0.56L114.775,186.589z"/>
</g>
<polygon opacity="0.25" fill="#FFFFFF" points="144.039,170.693 195.039,162.033 219.126,90.219 168.126,98.879 "/>
<path fill="#574D5E" d="M178.67,398.366v12.069c0,1.101-0.9,2-2,2h-40.33c-1.1,0-2-0.899-2-2v-12.069H178.67z"/>
<path opacity="0.34" fill="#312633" d="M173.664,398.283c-0.306,1.129-0.785,2.22-1.427,3.24c-3.047,4.96-9.621,8.389-17.255,8.389
	c-7.624,0-14.208-3.429-17.255-8.389c-0.642-1.021-1.121-2.111-1.427-3.24H173.664z"/>
<path fill="#A4BEC1" d="M174.83,396.366c-0.3,1.13-0.77,2.22-1.4,3.24c-2.8,4.649-8.64,7.95-15.52,8.349
	c-0.47,0.031-0.94,0.041-1.41,0.041c-7.48,0-13.94-3.43-16.93-8.39c-0.63-1.021-1.1-2.11-1.4-3.24H174.83z"/>
<path fill="#C3DCDD" d="M174.83,396.366c-0.3,1.13-0.77,2.22-1.4,3.24c-2.8,4.649-8.64,7.95-15.52,8.349v-11.589H174.83z"/>
<path fill="#A9A1B2" d="M136.338,407.031c-1.1,0-2,0.9-2,2l0,8.068c0,1.1,0.9,2,2,2h40.333c1.1,0,2-0.9,2-2v-8.068c0-1.1-0.9-2-2-2
	H136.338z"/>
<path fill="#7D7087" d="M136.338,408.697c-1.1,0-2,0.9-2,2l0,8.068c0,1.101,0.9,2,2,2h40.333c1.1,0,2-0.899,2-2v-8.068
	c0-1.1-0.9-2-2-2H136.338z"/>
<g>
	<g>
		<polyline fill="#FF9676" points="249.535,216.477 191.354,235.254 239.775,279.093 297.961,260.321 249.535,216.477 		"/>
	</g>
	<g>
		<polyline fill="#FFFFFF" points="261.843,209.721 202.203,219.978 246.467,270.377 306.111,260.126 261.843,209.721 		"/>
	</g>
	<g>
		<g>
			<path opacity="0.7" fill="#475984" d="M243.928,234.094c-1.085-1.008-1.82-2.033-2.77-3.052c-0.961-1.031-2.467-2.039-3.52-3.072
				c-0.353-0.347-0.825-0.426-1.095-0.332c0.026-0.024,0.06-0.043,0.084-0.069c0.378-0.397-1.178-1.119-1.552-0.726
				c-1.001,1.051-4.02,0.938-6.022,1.163c-3.055,0.344-6.226,0.566-8.726,1.412c-0.205,0.068-0.217,0.216-0.135,0.376
				c-0.434-0.017-0.685,0.232-0.223,0.625c1.848,1.575,3.183,3.526,5.762,4.823c0.986,0.497,1.375-0.221,0.394-0.715
				c-2.029-1.02-3.32-2.795-4.763-4.111c0.04-0.006,0.083-0.001,0.119-0.014c2.796-0.945,6.45-1.213,9.946-1.518
				c1.857-0.163,3.87-0.292,4.93-1.096c-0.051,0.11-0.019,0.259,0.17,0.445c1.097,1.076,2.608,2.109,3.614,3.189
				c0.918,0.986,1.622,1.957,2.675,2.935C243.513,235.002,244.62,234.736,243.928,234.094z"/>
			<path opacity="0.7" fill="#475984" d="M240.761,233.957c-5.168-0.295-8.744,1.001-13.218,1.445c-0.799,0.08,0.01,1.1,0.819,1.02
				c4.461-0.442,8.07-1.739,13.219-1.445C242.504,235.029,241.679,234.009,240.761,233.957z"/>
			<path opacity="0.7" fill="#475984" d="M242.91,222.957c-0.652,2.033-3.865,2.905-3.093,5.533
				c0.181,0.614,1.723,0.885,1.544,0.279c-0.693-2.359,2.507-3.236,3.1-5.085C244.622,223.185,243.071,222.455,242.91,222.957z"/>
			<path opacity="0.7" fill="#475984" d="M249.328,229.079c-1.997,0.484-4.101,0.875-6.097,1.359
				c-0.711,0.172,0.442,1.158,1.155,0.985c1.997-0.484,4.102-0.875,6.098-1.36C251.193,229.891,250.041,228.906,249.328,229.079z"/>
			<path opacity="0.7" fill="#475984" d="M259.806,235.716c-3.609,0.031-7.908-0.941-12.069-2.03
				c-1.014-0.266-1.009,0.609,0.013,0.876c4.449,1.163,9.015,2.207,12.876,2.173C261.501,236.728,260.684,235.709,259.806,235.716z"
				/>
			<path opacity="0.7" fill="#475984" d="M251.939,217.661c-3.949,0.729-5.274,0.052-8.684,1.375
				c-0.611-0.42-1.583-0.352-1.125,0.218l0.409,0.51c0.327,0.407,1.065,0.611,1.389,0.446c1.146-0.583,2.548-0.76,4.205-0.902
				c0.804-0.069-0.554,0.302,0,0c0.654-0.355,1.156,0.127,2.09,0.035c1.077-0.107,1.873-0.512,2.872-0.696
				C253.845,218.508,252.689,217.523,251.939,217.661z"/>
			<path opacity="0.7" fill="#475984" d="M249.685,221.199c-1.696,0.114-3.461,0.146-4.918,0.497
				c-0.712,0.171,0.441,1.157,1.155,0.984c1.359-0.327,3-0.356,4.582-0.462C251.331,222.163,250.52,221.143,249.685,221.199z"/>
			<path opacity="0.7" fill="#475984" d="M253.186,220.877c-0.205,0.142-0.444,0.268-0.923,0.122
				c-1.032-0.317-1.019,0.559,0.013,0.876c1.068,0.328,1.822,0.226,2.312-0.114C255.071,221.426,253.672,220.539,253.186,220.877z"
				/>
			<path opacity="0.7" fill="#475984" d="M255.061,225.561c-1.24,0.272-2.36,0.697-3.861,0.721
				c-0.871,0.013-0.054,1.032,0.819,1.019c1.632-0.025,2.851-0.458,4.197-0.755C256.942,226.386,255.788,225.401,255.061,225.561z"
				/>
			<path opacity="0.7" fill="#475984" d="M260.052,224.956c-0.631,0.234-1.297,0.46-2.174,0.476
				c-0.868,0.016-0.052,1.035,0.819,1.019c1.003-0.019,1.786-0.241,2.51-0.511C261.833,225.708,260.686,224.72,260.052,224.956z"/>
			<path opacity="0.7" fill="#475984" d="M264.593,234.856c-0.993,0.006-1.885,0.126-2.613,0.384
				c-0.637,0.224,0.511,1.212,1.155,0.984c0.645-0.227,1.397-0.342,2.276-0.349C266.289,235.87,265.472,234.85,264.593,234.856z"/>
			<path opacity="0.7" fill="#475984" d="M273.841,234.257c-1.694,0.024-3.315,0.173-4.849,0.371
				c-1.605,0.206,0.607-0.176-0.887,0.141c-0.732,0.154,0.423,1.14,1.155,0.984c1.319-0.279-1.112,0.117,0.299-0.064
				c1.627-0.209,3.302-0.386,5.101-0.412C275.532,235.264,274.715,234.245,273.841,234.257z"/>
			<path opacity="0.7" fill="#475984" d="M270.116,240.03c-0.734,0.517-2.178,0.56-3.394,0.672c-0.805,0.074,0.004,1.094,0.819,1.02
				c1.446-0.134,3.103-0.192,3.977-0.807C271.997,240.576,270.598,239.69,270.116,240.03z"/>
			<path fill="#FF6A5F" d="M231.375,230.801c-1.631,0.702-4.659,0.118-6.486,0.672c-0.67,0.203,0.48,1.189,1.155,0.984
				c1.931-0.585,4.979-0.018,6.732-0.773C233.377,231.427,231.97,230.545,231.375,230.801z"/>
			<path fill="#FF6A5F" d="M235.561,230.267c-0.333,0.086-0.687,0.104-1.105,0.102c-0.886-0.003-0.067,1.017,0.819,1.02
				c0.535,0.002,1.016-0.026,1.441-0.137C237.416,231.071,236.264,230.085,235.561,230.267z"/>
			<path fill="#FF6A5F" d="M230.11,232.645c-0.151,0.033-0.264,0.091-0.414,0.124c-0.726,0.16,0.428,1.146,1.155,0.985
				c0.151-0.033,0.264-0.091,0.414-0.125C231.991,233.47,230.837,232.485,230.11,232.645z"/>
			<path opacity="0.7" fill="#475984" d="M243.977,244.882c-1.218-0.23-2.12,0.094-2.941,0.302c-1.253,0.316-2.843,0.125-3.78,0.725
				c-0.123,0.079-0.129,0.19-0.068,0.309c-0.533-0.078-0.804,0.32-0.171,0.764c1.032,0.725,1.717,1.547,2.638,2.304
				c0.764,0.628,1.877,0.368,1.109-0.263c-0.88-0.724-1.584-1.465-2.487-2.175c0.146,0.016,0.283,0.008,0.381-0.055
				c0.705-0.451,1.775-0.252,2.735-0.44c0.625-0.122,1.198-0.29,1.811-0.423c0.977-0.213,1.508,0.053,2.403,0.849
				c0.65,0.578,1.174,1.191,1.658,1.782c0.538,0.657,1.914,0.666,1.375,0.008C247.803,247.546,245.989,245.263,243.977,244.882z"/>
			<path opacity="0.7" fill="#475984" d="M246.677,249.337c-1.319,0.358-3.005,0.356-4.582,0.462
				c-0.827,0.056-0.015,1.076,0.819,1.019c1.689-0.113,3.505-0.113,4.918-0.497C248.523,250.134,247.372,249.148,246.677,249.337z"
				/>
			<path opacity="0.7" fill="#475984" d="M248.38,251.883c-1.286,0.34-2.998,0.257-4.406,0.482
				c-0.768,0.123,0.391,1.107,1.155,0.985c1.411-0.225,3.115-0.141,4.406-0.481C250.231,252.684,249.08,251.698,248.38,251.883z"/>
			<path opacity="0.7" fill="#475984" d="M247.848,253.764c-0.784,0.012-1.438,0.134-1.876,0.439
				c-0.483,0.336,0.917,1.222,1.401,0.884c0.309-0.215,0.739-0.296,1.293-0.304C249.538,254.77,248.721,253.751,247.848,253.764z"/>
			<path opacity="0.7" fill="#475984" d="M259.669,246.221c-1.609-1.083-2.339-2.356-4.493-2.765
				c-1.381-0.263-2.672,0.026-3.757,0.15c-1.555,0.178-2.981,0.48-4.537,0.658c-0.534,0.062-0.187,0.517,0.335,0.788
				c0.024,0.031,0.029,0.059,0.064,0.092c1.564,1.494,2.666,3.053,5.009,4.311c0.416,0.224,0.713,0.21,0.852,0.089
				c0.149,0.04,0.299,0.065,0.438,0.049c2.251-0.253,4.727-0.312,6.679-0.849c0.688-0.188-0.462-1.175-1.155-0.984
				c-1.942,0.534-4.403,0.595-6.647,0.846c-1.657-0.96-2.662-2.303-3.785-3.44c1.708-0.227,3.325-0.541,5.108-0.695
				c0.957-0.083,2.177-0.179,3.263,0.804c0.574,0.52,1.144,0.979,1.85,1.455C259.768,247.317,260.54,246.808,259.669,246.221z"/>
			<path opacity="0.7" fill="#475984" d="M263.429,249.307c-2.819,0.839-6.258,1.084-9.713,1.32
				c-0.825,0.057-0.014,1.077,0.819,1.02c3.566-0.244,7.139-0.489,10.049-1.355C265.258,250.092,264.108,249.105,263.429,249.307z"
				/>
			<path opacity="0.7" fill="#475984" d="M258.253,251.813c-0.235,0.086-0.46,0.085-0.838-0.005c-1.02-0.243-0.583,0.741,0.423,0.98
				c0.627,0.15,1.179,0.153,1.57,0.009C260.038,252.568,258.89,251.58,258.253,251.813z"/>
			<path opacity="0.7" fill="#475984" d="M265.546,251.077c-1.609,0.145-2.925,0.582-4.648,0.607
				c-0.871,0.013-0.054,1.032,0.819,1.019c1.734-0.025,3.033-0.462,4.647-0.607C267.172,252.023,266.363,251.003,265.546,251.077z"
				/>
			<path opacity="0.7" fill="#475984" d="M272.208,246.257c-0.352,0.188-1.273,0.02-1.81,0.033c-0.604,0.015-1.078,0.196-0.977,0.64
				c0.136,0.596,1.739,1.122,1.601,0.521c-0.061-0.266,0.781-0.136,1.131-0.122c0.579,0.023,1.102,0.002,1.456-0.188
				C274.159,246.846,272.756,245.962,272.208,246.257z"/>
			<path opacity="0.7" fill="#475984" d="M277.453,248.554c-0.305-0.283-0.854-0.542-1.179-0.422
				c-0.437,0.161-0.905,0.29-1.412,0.393c-0.239,0.048-0.517,0.067-0.709,0.154c-0.005,0.002-0.012,0.004-0.018,0.006
				c-0.343-0.131-0.679-0.154-0.746,0.069c-0.032,0.108-0.066,0.2,0.007,0.341c0.085,0.165,0.289,0.381,0.575,0.497
				c0.665,0.271,1.107,0.18,1.469,0.021c0.056,0.008,0.114,0.021,0.167,0.02c0.816-0.007,1.519-0.116,2.199-0.259
				C278.289,249.271,277.949,248.813,277.453,248.554z"/>
		</g>
	</g>
	<path fill="#B59885" d="M311.439,266.776l-9.539,30l-48.469-0.167l-4.092-10.503c-3.987-10.661-8.179-46.5,46.321-46.5
		c10.66,0,8.051,20.5,9.567,23.67C306.739,266.437,311.439,266.776,311.439,266.776z"/>
</g>
<g>
	<rect x="266.66" y="79.049" fill="#433A47" width="4.83" height="8.456"/>
	<rect x="266.66" y="81.088" fill="#433A47" width="4.83" height="8.416"/>
	<g>
		<path fill="#3CADA1" d="M251.435,77.443c-1.532,0-2.774,1.241-2.774,2.774v5.201c0,1.532,1.242,2.774,2.774,2.774h18.118v-10.75
			H251.435z"/>
		<path fill="#21D5C8" d="M251.435,80.943c-1.532,0-2.774,1.241-2.774,2.774v5.201c0,1.532,1.242,2.774,2.774,2.774h18.118v-10.75
			H251.435z"/>
	</g>
</g>
<path fill="#835684" d="M264.637,82.677l-10.056,0c-1.038,0-1.879,0.841-1.879,1.879v3.523c0,1.038,0.841,1.88,1.879,1.88h5.5v0
	h4.556c1.038,0,1.879-0.841,1.879-1.879v-3.524C266.517,83.519,265.675,82.677,264.637,82.677z"/>
<path fill="#9D6AA0" d="M264.637,83.677l-4.056,0c-1.038,0-1.879,0.841-1.879,1.879v3.523c0,1.038,0.841,1.88,1.879,1.88h-0.5l5,0
	h-0.444c1.038,0,1.879-0.841,1.879-1.879v-3.524C266.517,84.519,265.675,83.677,264.637,83.677z"/>
<path fill="none" stroke="#4B4051" stroke-width="5.2046" stroke-miterlimit="10" d="M803.101,409.943c0-20.667,0-8.667,0-16.667
	s2-24.667-16.666-24.667c-18.667,0-18-14.666-18-22.666s0-44,0-44"/>
<rect x="812.173" y="361.276" fill="#433A47" width="8" height="50"/>
<rect x="738.16" y="405.276" fill="#433A47" width="82" height="46"/>
<rect x="738.16" y="401.276" fill="#574D5E" width="82" height="36"/>
<path opacity="0.66" fill="#574D5E" d="M174.83,396.366c-0.3,1.13-0.77,2.22-1.4,3.24h-33.86c-0.63-1.021-1.1-2.11-1.4-3.24H174.83z
	"/>
<g>
	<g>
		<rect x="768.41" y="442.276" fill="#CECE15" width="4.25" height="4.25"/>
	</g>
	<g>
		<path fill="#F7524B" d="M813.156,442.276h-0.242c-1.106,0-2.004,0.897-2.004,2.003v0.243c0,1.106,0.897,2.004,2.004,2.004h0.242
			c1.106,0,2.004-0.897,2.004-2.004v-0.243C815.16,443.174,814.263,442.276,813.156,442.276z"/>
	</g>
	<g>
		<rect x="760.41" y="442.276" fill="#FFCF48" width="4.25" height="4.25"/>
	</g>
	<g>
		<rect x="752.41" y="442.276" fill="#CECE15" width="4.25" height="4.25"/>
	</g>
	<g>
		<rect x="744.41" y="442.276" fill="#CECE15" width="4.25" height="4.25"/>
	</g>
</g>
<ellipse fill="#574D5E" cx="816.167" cy="361.651" rx="3.994" ry="2.667"/>
<path fill="#475984" d="M487.991,23.707c-2.252-0.018-4.497-0.232-6.75-0.25c-1.289-0.01-1.289,1.99,0,2
	c2.253,0.018,4.498,0.232,6.75,0.25C489.282,25.717,489.28,23.717,487.991,23.707z"/>
<g>
	<rect x="475.181" y="14.837" fill="#FFFB0F" width="22.819" height="17.379"/>
	<polygon fill="#F7524B" points="117.016,113.836 117.016,131.216 98.196,134.216 98.196,116.836 	"/>
	<path fill="#475984" d="M491.741,18.957c-4.252,0.441-8.494-0.201-12.75-0.25c-1.29-0.015-1.289,1.985,0,2
		c4.256,0.049,8.498,0.691,12.75,0.25C493.011,20.825,493.024,18.824,491.741,18.957z"/>
	<rect x="475.181" y="37.337" fill="#FFFB0F" width="22.819" height="17.379"/>
	<path fill="#475984" d="M491.741,42.957c-4.252,0.441-8.494-0.201-12.75-0.25c-1.29-0.015-1.289,1.985,0,2
		c4.256,0.049,8.498,0.691,12.75,0.25C493.011,44.825,493.024,42.824,491.741,42.957z"/>
	<rect x="475.181" y="59.837" fill="#FFFB0F" width="22.819" height="17.379"/>
	<path fill="#475984" d="M491.991,72.54c-2.252-0.018-8.497-0.232-10.75-0.25c-1.289-0.01-1.289,1.99,0,2
		c2.253,0.018,8.498,0.232,10.75,0.25C493.282,74.55,493.28,72.55,491.991,72.54z"/>
	<path fill="#475984" d="M489.991,68.54c-2.252-0.018-6.497-0.232-8.75-0.25c-1.289-0.01-1.289,1.99,0,2
		c2.253,0.018,6.498,0.232,8.75,0.25C491.282,70.55,491.28,68.55,489.991,68.54z"/>
	<path fill="#475984" d="M490.991,63.54c-2.252-0.018-7.497-0.232-9.75-0.25c-1.289-0.01-1.289,1.99,0,2
		c2.253,0.018,7.498,0.232,9.75,0.25C492.282,65.55,492.28,63.55,490.991,63.54z"/>
	<rect x="481.66" y="14.837" opacity="0.33" fill="#FCAE47" width="16.34" height="17.379"/>
	<rect x="481.66" y="37.337" opacity="0.33" fill="#FCAE47" width="16.34" height="17.379"/>
	<rect x="481.66" y="59.837" opacity="0.33" fill="#FCAE47" width="16.34" height="17.379"/>
</g>
<g>
	<g>
		<path fill="#B59885" d="M575.729,221.606v39.01c0,2.48-2.01,4.49-4.5,4.49h-47.01c-2.479,0-4.49-2.01-4.49-4.49v-39.01
			c0-2.49,2.011-4.5,4.49-4.5h47.01C573.72,217.106,575.729,219.116,575.729,221.606z"/>
	</g>
	<path fill="#888FA3" d="M524.228,263.783v-39.015c0-2.481,2.012-4.492,4.492-4.492h47.016c2.48,0,4.492,2.011,4.492,4.492v39.015
		c0,2.481-2.012,4.493-4.492,4.493H528.72C526.239,268.276,524.228,266.265,524.228,263.783z"/>
	<g>
		<path fill="#433A47" d="M528.72,262.606c-1.373,0-2.49-1.117-2.49-2.49v-39.01c0-1.378,1.117-2.5,2.49-2.5h47.01
			c1.379,0,2.5,1.122,2.5,2.5v39.01c0,1.374-1.121,2.49-2.5,2.49H528.72z"/>
		<g>
			<path fill="#CADBEF" d="M575.729,220.606c0.281,0,0.5,0.22,0.5,0.5v39.01c0,0.275-0.219,0.49-0.5,0.49h-47.01
				c-0.27,0-0.49-0.22-0.49-0.49v-39.01c0-0.28,0.216-0.5,0.49-0.5H575.729 M575.729,216.606h-47.01c-2.479,0-4.49,2.01-4.49,4.5
				v39.01c0,2.48,2.011,4.49,4.49,4.49h47.01c2.49,0,4.5-2.01,4.5-4.49v-39.01C580.229,218.616,578.22,216.606,575.729,216.606
				L575.729,216.606z"/>
		</g>
	</g>
	<rect x="533.098" y="228.259" fill="#FFFFFF" width="2.079" height="1.828"/>
	<rect x="533.098" y="223.627" fill="#FFFFFF" width="2.079" height="1.828"/>
	<rect x="537.226" y="232.892" fill="#FFFFFF" width="2.079" height="1.828"/>
	<rect x="537.409" y="237.522" fill="#FFFFFF" width="2.079" height="1.829"/>
	<rect x="537.409" y="242.155" fill="#FFFFFF" width="2.079" height="1.826"/>
	<rect x="537.409" y="246.787" fill="#FFFFFF" width="2.079" height="1.829"/>
	<rect x="533.098" y="251.419" fill="#FFFFFF" width="2.079" height="1.828"/>
	<rect x="533.28" y="255.985" fill="#FFFFFF" width="2.08" height="1.828"/>
	<rect x="538.122" y="228.259" opacity="0.78" fill="#FFFFFF" width="22.647" height="1.828"/>
	<rect x="538.122" y="223.627" opacity="0.78" fill="#FFFFFF" width="24.573" height="1.828"/>
	<rect x="542.251" y="232.892" opacity="0.78" fill="#FFFFFF" width="17.692" height="1.828"/>
	<rect x="542.435" y="237.522" opacity="0.78" fill="#FFFFFF" width="24.572" height="1.829"/>
	<rect x="542.435" y="242.155" opacity="0.78" fill="#FFFFFF" width="25.643" height="1.826"/>
	<rect x="542.435" y="246.787" opacity="0.78" fill="#FFFFFF" width="16.316" height="1.829"/>
	<rect x="538.122" y="251.419" opacity="0.78" fill="#FFFFFF" width="32.829" height="1.828"/>
	<rect x="538.306" y="255.985" opacity="0.78" fill="#FFFFFF" width="20.445" height="1.828"/>
</g>
<path opacity="0.46" fill="#FFFFFF" d="M580.229,221.106v6.829l-13.889,36.671H533.67l18.18-48h23.88
	C578.22,216.606,580.229,218.616,580.229,221.106z"/>
<g>
	<path fill="#574D5E" d="M771.638,317.217h-7.913c-2.245,0-4.064-1.82-4.064-4.064v-14.312c0-2.245,1.819-4.064,4.064-4.064h7.913
		c2.245,0,4.064,1.819,4.064,4.064v14.312C775.702,315.396,773.883,317.217,771.638,317.217z"/>
	<path fill="#433A47" d="M771.638,324.347h-7.913c-2.245,0-4.064-1.819-4.064-4.064v-14.312c0-2.244,1.819-4.064,4.064-4.064h7.913
		c2.245,0,4.064,1.82,4.064,4.064v14.312C775.702,322.527,773.883,324.347,771.638,324.347z"/>
</g>
<g>
	<path fill="#DD7662" d="M373.104,245.972c-12.643,1.648-27.167,8.166-40.847,16.305c-8.26,4.898-16.212,10.395-23.266,15.778
		c-3.602,2.739-6.967,5.447-10.03,8.029c-0.037,0.021-0.064,0.045-0.091,0.07c-0.361,0.307-0.719,0.605-1.068,0.906
		c-0.668,0.567-1.313,1.131-1.947,1.688c0.128-0.018,0.255-0.026,0.383-0.043c-0.313,0.361-6.37,5.926-12.334,11.846
		s-18.641,14.718-25.181,2.154c-2.039-3.916-0.587-8.174,1.621-12.016c5.439-9.442,24.838-27.611,48.279-43.073
		c4.013-2.651,8.148-5.218,12.349-7.643c16.242-9.415,33.504-16.78,48.901-18.784c6.847-0.896,13.12,3.931,14.017,10.779
		C384.777,238.813,379.95,245.086,373.104,245.972z"/>
</g>
<g>
	<path fill="#574D5E" d="M735.854,305.931h-8.889c-0.725,0-1.313-0.726-1.313-1.62l-1.34-6.517c0-0.894,0.726-1.619,1.62-1.619
		h10.955c0.895,0,1.62,0.726,1.62,1.619l-1.34,6.517C737.168,305.205,736.579,305.931,735.854,305.931z"/>
	<path fill="#433A47" d="M735.548,306.711h-8.275c-0.895,0-1.62-0.725-1.62-1.619v-1.639c0-0.895,0.726-1.621,1.62-1.621h8.275
		c0.895,0,1.62,0.727,1.62,1.621v1.639C737.168,305.986,736.442,306.711,735.548,306.711z"/>
</g>
<g>
	<path fill="#574D5E" d="M805.743,298.922h-2.5c-0.689,0-1.25-0.56-1.25-1.25l0,0c0-0.69,0.561-1.25,1.25-1.25h2.5
		c0.69,0,1.25,0.56,1.25,1.25l0,0C806.993,298.362,806.434,298.922,805.743,298.922z"/>
	<path fill="#574D5E" d="M805.743,304.131h-2.5c-0.689,0-1.25-0.561-1.25-1.25l0,0c0-0.691,0.561-1.25,1.25-1.25h2.5
		c0.69,0,1.25,0.559,1.25,1.25l0,0C806.993,303.57,806.434,304.131,805.743,304.131z"/>
</g>
<g>
	<g>
		<path fill="#BC3335" d="M316.145,525.404c0.006-0.627,0.01-1.267,0.01-1.936c0-10.327-6.206-16.305-12.65-18.471
			c-1.459-0.605-2.967-0.939-4.485-0.939c-0.171,0-0.345,0.006-0.519,0.012c-0.174-0.006-0.348-0.012-0.519-0.012
			c-1.518,0-3.025,0.334-4.484,0.939c-6.444,2.166-12.65,8.144-12.65,18.471c0,0.669,0.003,1.309,0.01,1.936
			c-0.016,0.504-0.004,1,0.022,1.492c0.264,12.615,2.503,15.98,16.929,15.98c0.233,0,0.462-0.01,0.693-0.016
			c0.23,0.006,0.459,0.016,0.693,0.016c14.425,0,16.665-3.365,16.928-15.98C316.149,526.405,316.161,525.908,316.145,525.404z"/>
		<g>
			
				<line fill="none" stroke="#7C9CB4" stroke-width="26.8085" stroke-linecap="round" stroke-linejoin="round" stroke-miterlimit="10" x1="357.475" y1="526.349" x2="357.475" y2="604.146"/>
			
				<line fill="none" stroke="#7C9CB4" stroke-width="25.5106" stroke-linecap="round" stroke-linejoin="round" stroke-miterlimit="10" x1="366.941" y1="561.623" x2="435.407" y2="561.623"/>
			
				<line fill="none" stroke="#7C9CB4" stroke-width="25.5106" stroke-linecap="round" stroke-linejoin="round" stroke-miterlimit="10" x1="297.015" y1="561.623" x2="365.481" y2="561.623"/>
		</g>
		<g>
			<g>
				<path fill="#FFB287" d="M509.026,247.238c0,7.051-5.717,12.767-12.768,12.767s-12.768-5.716-12.768-12.767
					c0-2.661,1.904-4.261,3.297-6.305c1.391-2.045,2.271,6.465,4.584,5.506c0.661-0.274,1.35-11.495,2.062-11.655
					c0.909-0.205,1.854-0.313,2.825-0.313C503.31,234.47,509.026,240.186,509.026,247.238z"/>
				<g>
					<path fill="#FFB287" d="M355.827,220.01c-11.8,4.83-24.17,14.85-35.31,26.22c-6.73,6.85-13.01,14.2-18.45,21.21
						c-2.78,3.57-5.34,7.051-7.64,10.33c-0.03,0.03-0.05,0.061-0.07,0.09c-0.271,0.391-2.01,3.19-1.89,3.141
						c-0.21,0.43-4.64,7.359-8.89,14.609s-14.25,19-23.79,8.53c-2.973-3.263-2.66-7.75-1.51-12.03c2.84-10.52,16.94-33.05,35.64-54
						c3.2-3.59,6.54-7.129,9.98-10.55c13.29-13.26,26.227-9.737,40.597-15.616c6.39-2.621,15.553-14.624,18.173-8.234
						C365.277,210.1,362.217,217.399,355.827,220.01z"/>
				</g>
				<path fill="#CAD80E" d="M431.54,233.826v143.41c0,18.399-15.061,33.449-33.45,33.449h-53.38c-18.39,0-33.45-15.05-33.45-33.449
					v-143.41c0-6.5,1.88-12.59,5.13-17.73c1.29-2.05,2.79-3.95,4.48-5.67c6.08-6.199,14.54-10.049,23.84-10.049h53.38
					c1.21,0,2.4,0.059,3.57,0.19C418.39,202.366,431.54,216.636,431.54,233.826z"/>
				<path fill="#CAD80E" d="M323.569,245.546c3.626,27.211,21.042,35.136,37.859,35.846l-44.054,28.293l-6.116,13.9v-66.198
					l-5.658-23.559c0-6.503,1.699-14.727,21.373-28.581C322.45,211.51,321.633,231.021,323.569,245.546z"/>
				<path fill="#3B2D3C" d="M311.258,259.649c3.058,17.626,23.538,22.138,63.613,22.138c25.454,0,52.243-5.045,56.668-17.562v34.111
					l-120.282-2.283V259.649v-2.262l-0.41-2.734C310.849,256.43,310.989,258.088,311.258,259.649L311.258,259.649z"/>
				<g>
					<path fill="#FFB287" d="M507.056,295.438c-0.744,3.154-2.027,6.154-4.128,8.506c-2.742,3.074-5.373,3.459-9.435,3.459
						c-7.901,0-13.451-4.955-24.169-20.072c-3.007-4.238-6.222-8.771-9.553-13.18c-3.169-4.215-6.457-8.313-9.751-11.955
						c-9.281-10.224-13.408-10.747-13.851-10.776c-5.934-0.354-10.459-5.454-10.099-11.388c0.354-5.934,5.463-10.451,11.389-10.098
						c16.982,1.017,31.812,20.1,49.422,44.947c0.266,0.367,0.53,0.752,0.803,1.127c-0.911-8.539-0.212-14.828,0-20.75
						c0.035-0.999,6.012-4.179,8.012-4.409c0.192-0.022,0.384-0.037,0.576-0.044c5.66-0.347,7.732-5.448,8.388,0.265
						C505.095,254.91,508.338,290.027,507.056,295.438z"/>
					<path fill="#DD7662" d="M464.035,245.319c2.25,5.5-0.375,37.125-4.875,32.25s-10.125-13.75-10.125-13.75l4.875-13.5
						L464.035,245.319z"/>
				</g>
				<path fill="#DD7662" d="M507.327,293.736c0,4.297,0.049,8.665-1.334,11.5c-1.768,3.625-7.666,8-15.333,4.833
					c-9.626-3.976-31.75-32.625-46.25-51.625c0-4.673,10.5,0.125,10.5,0.125s20.421,26.335,26.075,33.065
					c5.646,6.729,13.008,14.102,20.842,10.602C505.165,300.744,506.265,297.201,507.327,293.736z"/>
				<path fill="#DD7662" d="M311.85,256.899c-6.73,6.849-10.25,13.7-15.69,20.71c-13-9.666-13.67-21.727-11.5-28.666
					c5.5-6.334,7.13-7.294,10.57-10.715C298.8,242.089,306.64,250.879,311.85,256.899z"/>
			</g>
			<g>
				<path fill="#312633" d="M297.398,519.076c-9.448,0-17.46-3.914-18.226-13.496c-1.8-22.52-7.503-113.934-5.362-129.08
					c1.832-12.957,7.967-19.828,12.793-23.312c8.611-6.217,17.439-5.217,19.943-4.762c9.946,1.809,16.542,11.338,14.734,21.285
					c-1.179,6.485-5.642,11.547-11.362,13.783c-0.543,12.339,2.379,77.014,5.747,119.17c0.805,10.078-6.711,15.547-16.789,16.353
					C298.38,519.057,297.888,519.076,297.398,519.076z"/>
			</g>
			<path fill="#BC3335" d="M428.835,525.404c-0.006-0.627-0.01-1.267-0.01-1.936c0-10.327,6.206-16.304,12.65-18.471
				c1.459-0.605,2.967-0.939,4.484-0.939c0.172,0,0.346,0.006,0.52,0.013c0.174-0.007,0.348-0.013,0.519-0.013
				c1.518,0,3.025,0.334,4.484,0.939c6.444,2.167,12.65,8.144,12.65,18.471c0,0.669-0.003,1.309-0.01,1.936
				c0.016,0.504,0.005,1-0.022,1.492c-0.264,12.615-2.504,15.98-16.929,15.98c-0.233,0-0.462-0.009-0.692-0.016
				c-0.23,0.007-0.46,0.016-0.693,0.016c-14.425,0-16.665-3.365-16.928-15.98C428.831,526.404,428.819,525.908,428.835,525.404z"/>
			<g>
				<path fill="#312633" d="M447.582,519.076c9.448,0,17.46-3.914,18.226-13.496c1.8-22.52,7.504-113.934,5.361-129.08
					c-1.831-12.957-7.967-19.828-12.793-23.312c-8.611-6.217-17.439-5.217-19.943-4.762c-9.945,1.81-16.543,11.338-14.734,21.285
					c1.18,6.485,5.643,11.547,11.363,13.783c0.543,12.339-2.379,77.014-5.746,119.17c-0.806,10.078,6.711,15.548,16.789,16.353
					C446.601,519.057,447.093,519.076,447.582,519.076z"/>
			</g>
			<g>
				<path fill="#BC3335" d="M320.033,450.619v31.558c-5.64,0-10.383-0.419-14.337-1.183c-13.031-2.496-17.556-8.705-17.556-15.912
					v-38.898c0-3.671,1.173-7.081,3.176-9.871c1.366-1.928,3.134-3.57,5.179-4.793c2.564-1.534,5.556-2.431,8.749-2.431h0.008
					l6.495,18.226l5.547,15.604L320.033,450.619z"/>
				<path fill="#FF645C" d="M458.847,426.188v38.891c0,9.412-7.699,17.1-17.1,17.1H305.239c0,0,0.162-0.432,0.452-1.186
					c2.153-5.729,11.263-30.385,7.946-30.385c-3.736,0-8.398-1.077-8.398-8.098v-21.309c0-6.632,0-12.113,0-12.113h136.508
					C451.147,409.088,458.847,416.776,458.847,426.188z"/>
				<path fill="#BC3335" d="M357.494,446.609c-34.667-1.333-59.29-21.523-61.603-24.355c-2.044-2.531-3.837-4.273-4.575-5.941
					c1.366-1.928,3.134-3.57,5.179-4.793c2.564-1.534,5.556-2.431,8.749-2.431h0.008l11.58,14.763L357.494,446.609z"/>
				<path fill="#BC3335" d="M458.844,468.774c0,9.989-9.185,18.161-20.409,18.161H308.552c-11.225,0-20.408-8.173-20.409-18.161
					c0-9.989,9.184-18.161,20.409-18.161h129.882C449.659,450.613,458.844,458.786,458.844,468.774z"/>
				<g>
					<path fill="#97AAAD" d="M384.151,620.742c0,2.458-2.01,4.469-4.468,4.469h-12.125c-2.458,0-4.468-2.011-4.468-4.469v-5.104
						c0-2.458,2.011-4.469,4.468-4.469h12.125c2.458,0,4.468,2.012,4.468,4.469V620.742z"/>
					<path fill="none" stroke="#97AAAD" stroke-width="4.0139" stroke-linejoin="round" stroke-miterlimit="10" d="M384.151,620.742
						c0,2.458-2.01,4.469-4.468,4.469h-12.125c-2.458,0-4.468-2.011-4.468-4.469v-5.104c0-2.458,2.011-4.469,4.468-4.469h12.125
						c2.458,0,4.468,2.012,4.468,4.469V620.742z"/>
				</g>
				<path fill="#433A47" d="M388.028,605.087v9.36h-28.821v-9.36c0-6.271,5.92-11.37,13.181-11.37h2.469
					c6.95,0,12.661,4.68,13.131,10.58C388.018,604.557,388.028,604.816,388.028,605.087z"/>
				<path fill="#97AAAD" d="M447.151,575.939c0,6.328,5.131,11.459,11.459,11.459c6.329,0,11.459-5.131,11.459-11.459"/>
				
					<line fill="none" stroke="#433A47" stroke-width="25.5106" stroke-linecap="round" stroke-linejoin="round" stroke-miterlimit="10" x1="376.302" y1="546.131" x2="444.769" y2="546.131"/>
				
					<line fill="none" stroke="#433A47" stroke-width="25.5106" stroke-linecap="round" stroke-linejoin="round" stroke-miterlimit="10" x1="306.375" y1="546.131" x2="374.842" y2="546.131"/>
				<g>
					<path fill="#433A47" d="M296.536,567.123c-1.349,0-2.702-0.494-3.764-1.49c-2.214-2.08-4.481-8.73-2.402-10.945l4.167-11.891
						c2.08-2.214,12.777,2.911,14.991,4.99c2.214,2.08,2.324,5.561,0.245,7.774l-9.227,9.827
						C299.464,566.541,298.002,567.123,296.536,567.123z"/>
				</g>
				<g>
					<path fill="#534859" d="M294.538,566.123c-3.037,0-5.5-2.463-5.5-5.5c0-0.295-0.019-0.676-0.038-1.127
						c-0.176-4.147-0.589-13.862,5.83-20.559c4.021-4.195,9.81-6.324,17.208-6.324h47.169c3.037,0,5.5,2.463,5.5,5.5
						c0,3.038-2.463,5.5-5.5,5.5h-55.17c-4.283,0-7.401,0.988-9.267,2.936c-3.171,3.308-2.917,9.275-2.782,12.48
						c0.028,0.638,0.048,1.176,0.048,1.594C292.037,563.66,297.575,566.123,294.538,566.123z"/>
				</g>
				<g>
					<path fill="#433A47" d="M454.397,567.123c-1.465,0-2.928-0.582-4.011-1.734l-9.226-9.827c-2.08-2.214-1.971-5.694,0.244-7.774
						c2.215-2.079,15.125-3.87,17.205-1.656l-0.203,11.727c2.078,2.215,1.969,5.695-0.246,7.775
						C457.101,566.629,455.747,567.123,454.397,567.123z"/>
				</g>
				<g>
					<path fill="#534859" d="M456.397,566.123c-3.037,0,1.5-2.463,1.5-5.5c0-0.418,0.021-0.956,0.047-1.594
						c0.137-3.205,0.391-9.173-2.78-12.48c-1.866-1.947-4.984-2.936-9.267-2.936h-54.17c-3.037,0-5.5-2.462-5.5-5.5
						c0-3.037,2.463-5.5,5.5-5.5h47.17c7.396,0,13.186,2.129,17.207,6.324c6.42,6.696,6.006,16.411,5.83,20.559
						c-0.02,0.451-0.037,0.832-0.037,1.127C461.897,563.66,459.435,566.123,456.397,566.123z"/>
				</g>
				
					<line fill="none" stroke="#433A47" stroke-width="29.0426" stroke-linecap="round" stroke-linejoin="round" stroke-miterlimit="10" x1="373.494" y1="520.732" x2="373.494" y2="585.424"/>
				
					<line fill="none" stroke="#534859" stroke-width="21" stroke-linecap="round" stroke-linejoin="round" stroke-miterlimit="10" x1="377.494" y1="509.906" x2="377.494" y2="574.6"/>
				<polygon fill="#BC3335" points="379.559,450.613 358.848,450.613 292.66,431.276 342.69,409.087 				"/>
				<g>
					<path fill="#B8D3E0" d="M384.498,488.986v44.5c0,6.07-4.93,11-11,11c-2.46,0-4.73-0.81-6.56-2.17
						c-2.7-2.01-4.44-5.22-4.44-8.83v-44.5c0-0.529,0.04-1.039,0.109-1.549c0.75-5.341,5.341-9.451,10.891-9.451
						C379.568,477.986,384.498,482.906,384.498,488.986z"/>
					<path fill="#87B4C6" d="M384.498,488.986v28.871c-3.73,3.73-12.406,4.713-12.406,4.713v14.485c0,0-8.554-2.962-9.594-2.696
						v-45.373c0-6.08,4.92-11,11-11C379.568,477.986,384.498,482.906,384.498,488.986z"/>
					<path fill="#433A47" d="M373.498,536.698c-6.08,0-11-4.931-11-11l-1,8.788c0,6.07,5.92,11,12,11c6.07,0,12-4.93,12-11l-1-8.788
						C384.498,531.768,379.568,536.698,373.498,536.698z"/>
					<path fill="#433A47" d="M373.498,492.004c-6.08,0-11-4.93-11-11l-1,8.789c0,6.069,5.92,11,12,11c6.07,0,12-4.931,12-11
						l-1-8.789C384.498,487.074,379.568,492.004,373.498,492.004z"/>
				</g>
				<path fill="#3B2D3C" d="M414.192,356.408c21.958,0.07,41.264,7.815,42.9,17.213c1.637,9.398-5.572,29.561-16.021,44.807
					c-10.448,15.246-36.963,27.721-58.92,27.721h-23.9c-21.958,0-47.566-15.077-56.908-33.505s-15.831-38.707-14.421-45.065
					c1.41-6.359,20.529-11.506,42.487-11.436L414.192,356.408z"/>
				<g opacity="0.2">
					<path fill="#1F3242" d="M401.444,311.341c21.881-1.845,39.782,14.612,39.782,36.571v23.904
						c0,21.959-17.966,39.924-39.923,39.924h-59.346c-21.958,0-39.923-17.966-39.923-39.924v-12.174
						c0-21.958,17.902-41.432,39.782-43.276L401.444,311.341z"/>
				</g>
				<path fill="#433A47" d="M458.844,473.226c0,0,0,4.709,0,10.465c0,5.755-9.184,10.466-20.409,10.466l-129.882-0.001
					c-11.225,0-20.408-4.71-20.408-10.465c0-5.756,0-10.466,0-10.466"/>
			</g>
			<path fill="#3B2D3C" d="M332.749,356.408c-21.958,0.069-38.646,7.814-37.085,17.213s8.77,29.561,16.021,44.807
				s31.149,27.721,53.106,27.721h23.9c21.958,0,47.566-15.077,56.908-33.504c9.342-18.428,15.831-38.707,14.421-45.066
				s-20.529-11.506-42.487-11.436L332.749,356.408z"/>
			<path fill="#91AD1A" d="M442.601,392.076c-5.36,6.08-16.09,11.52-28.42,15.051c-9.13,2.619-19.141,4.189-28.49,4.189h-23.9
				c-21.96,0-45.86-7.16-53.11-15.92c-7.25-8.75-14.46-20.32-16.02-25.721c-1.56-5.399,15.13-9.84,37.09-9.879l79.79-0.15
				l4.99-0.011c21.96-0.029,32.55,2.921,33.96,6.569C449.9,369.856,451.94,381.496,442.601,392.076z"/>
			<path fill="#97AAAD" d="M281.172,575.939c0,6.328,5.13,11.459,11.458,11.459s11.459-5.131,11.459-11.459"/>
			<g>
				<path fill="#433A47" d="M281.838,578.824c-1.108,0-2.007-0.898-2.007-2.007c0-7.425,6.041-13.466,13.466-13.466
					c7.426,0,13.467,6.041,13.467,13.466c0,1.108-0.898,2.007-2.007,2.007H281.838z"/>
				<g>
					<path fill="#433A47" d="M292.63,563.359c6.329,0,11.459,5.129,11.459,11.458h-22.918
						C281.171,568.488,286.302,563.359,292.63,563.359 M292.63,559.345c-8.532,0-15.472,6.941-15.472,15.473
						c0,2.217,1.797,4.015,4.013,4.015h22.918c2.217,0,4.014-1.798,4.014-4.015C308.103,566.286,301.163,559.345,292.63,559.345
						L292.63,559.345z"/>
				</g>
			</g>
		</g>
		<g>
			<path fill="#433A47" d="M447.151,576.824c-1.107,0-2.006-0.898-2.006-2.006c0-7.426,6.041-13.467,13.465-13.467
				c7.426,0,13.467,6.041,13.467,13.467c0,1.107-0.899,2.006-2.008,2.006H447.151z"/>
			<g>
				<path fill="#433A47" d="M458.61,563.359c6.33,0,11.46,5.131,11.46,11.458h-22.919
					C447.151,568.488,452.282,563.359,458.61,563.359 M458.61,559.345c-8.531,0-15.473,6.941-15.473,15.473
					c0,2.217,1.797,4.015,4.014,4.015h22.919c2.217,0,4.014-1.798,4.014-4.015C474.084,566.286,467.144,559.345,458.61,559.345
					L458.61,559.345z"/>
			</g>
		</g>
		<path fill="#CAD80E" d="M442.601,392.076c-5.36,6.08-16.09,11.52-28.42,15.051c-1.181-12.241-3.101-30-4.641-47.48l4.99-0.011
			c21.96-0.029,32.55,2.921,33.96,6.569C449.9,369.856,451.94,381.496,442.601,392.076z"/>
	</g>
	<path fill="#CAD80E" d="M458.16,263.029c-3.11,2.77-7.45,4.911-13.33,5.541c-4.55,0.489-9.069-1.301-13.29-4.301
		c-6.1-4.32-11.6-11.139-15.73-17.189c-4.719-6.93-7.649-12.84-7.649-12.84s-14.85-34.129-6.5-33.669
		c12.17,0.669,35.83,5,62.17,44.5C465.8,248.019,464.91,257.019,458.16,263.029z"/>
	<path fill="#CAD80E" d="M352.33,208.509c-1.77,9.96-8.63,25.73-8.63,25.73s-1.58,3.831-4.34,9
		c-5.64,10.581-16.18,26.791-28.1,27.39c-0.69,0.03-1.4,0.021-2.1-0.06c-18.67-2-24-21.19-21.13-25.5
		c11.74-17.601,22.94-28.22,32.84-34.64c12.3-7.99,22.58-9.49,29.33-9.86C352.87,200.419,353.17,203.819,352.33,208.509z"/>
	<path fill="#91AD1A" d="M458.16,263.029c-3.11,2.77-7.45,4.911-13.33,5.541c-4.55,0.489-9.069-1.301-13.29-4.301v38.601
		l-62.71,11.369l-57.57-8.279v-35.33c-0.69,0.03-1.4,0.021-2.1-0.06c-18.67-2-24.156-21.298-21.13-25.5
		c16.296-22.626,34.463-44.69,56.68-44.69h17.69c0.27,2.389,0.43,3.859,0.43,3.859l-7.34,4c-1.05,0-2.11,0.09-3.16,0.27
		c-9.6,1.57-19.09,9.92-27.5,17.73c-6.85,6.351-3.67,12.538,20.08,12.538c5.596,0,11.28-0.18,18.75,0
		c22.41,0.54,36.761,0.229,49-0.75c6.25-0.5,9.519-1.942,11.25-2.75c3.75-1.75,7.745-1.305,10.5,0
		c4.75,2.25,9.04,8.952,16.42,17.623C453.229,255.729,455.729,259.239,458.16,263.029z"/>
	<g>
		<path fill="#FF645C" d="M454.65,351.797l-160.64-4.471l2.15-24.48l4.41-50.029c0.84-14.75,12.17-27.15,26.31-29.96
			c1.97-0.391,3.99-0.6,6.05-0.6h81.12c16.84,0,31.53,13.74,32.66,30.541L454.65,351.797z"/>
		<path fill="#BC3335" d="M331.16,281.276l-19.33,29.33c0,0-13,19-14,15.67c-0.25-0.831-0.88-2.04-1.67-3.431l4.41-50.029
			c0.84-14.75,12.17-27.15,26.31-29.96c-1.12,2.14-1.729,4.52-2.05,6.75c-0.67,4.67-2.48,12,7.43,12.67
			C342.16,262.946,331.16,281.276,331.16,281.276z"/>
		<path fill="#BC3335" d="M318.756,395.328c-16.837,0-29.518-13.731-28.18-30.516l9.313-76.839
			c1.338-16.784,16.208-30.516,33.045-30.516l81.118,0c16.837,0,31.707,13.731,33.045,30.517l9.313,76.838
			c1.338,16.784-11.344,30.516-28.18,30.516H318.756z"/>
	</g>
	<path fill="#FFFFFF" d="M393.58,200.376c-1.5,8.049-10.17,13.579-20.6,13.579h-3.07c-10.43,0-19.1-5.53-20.6-13.579H393.58z"/>
	<path fill="#FFB287" d="M389.2,171.876v24.62c0,8.5-7.3,11.53-16.23,11.53h-3.05c-0.96,0-1.9-0.04-2.82-0.11
		c-7.6-0.61-13.41-3.84-13.41-11.42v-24.62c0-8.491,7.3-15.441,16.229-15.441h3.05C381.9,156.436,389.2,163.386,389.2,171.876z"/>
	<path fill="#DD7662" d="M389.199,181.722c0,8.491-7.302,13.68-16.227,13.68h-3.055c-8.925,0-16.227-5.189-16.227-13.68v-21.398
		c0-8.491,7.302-15.438,16.227-15.438h3.055c8.925,0,16.227,6.947,16.227,15.438V181.722z"/>
	<path fill="#CAD80E" d="M285.69,288.529c-0.271,0.39-0.54,0.77-0.8,1.15C285.16,289.248,285.42,288.869,285.69,288.529z"/>
	<path fill="#DD7662" d="M371.83,195.276c-6,0-4.67,7.83-4.67,12.5c0,0-0.02,0.05-0.06,0.14c-7.6-0.61-13.41-3.84-13.41-11.42
		v-12.801c0.96-2.449,0.3-3.609,0.3-5.419c0-1.831,20.67,1,21.34,1.83C375.99,180.946,377.83,195.276,371.83,195.276z"/>
</g>
<path fill="#FFB287" d="M485.827,251.776c-1-1.667-2.006,1.755-2.336-4.539c-0.331-6.294-2.331-10.128-1.164-10.461
	c1.166-0.333,4.666-2.5,5.166,4.333c0.5,6.834,0.334,9.167,0.334,9.167L485.827,251.776z"/>
<path fill="#6D352E" d="M408.34,126.434l-0.072,2.079l-0.672,18.316c-0.197,5.244-1.375,10.561-3.341,15.597
	c-2.896,7.405-7.488,14.181-13.125,19.103c-3.919,3.651-8.688,6.257-13.911,7.374c-0.32,0.073-0.631,0.125-0.951,0.176
	c-0.135,0.031-0.259,0.052-0.393,0.073c-0.466,0.083-0.931,0.144-1.396,0.196c0,0,0,0-0.01,0c-0.476,0.052-0.961,0.093-1.448,0.124
	c-0.094,0-0.187,0-0.279,0.011c-0.31,0.011-0.621,0.03-0.931,0.03l-0.362,0c-10.105,0-19.155-5.523-24.677-13.9
	c-6.33-8.005-10.446-18.472-10.839-28.608l-0.817-17.701c-0.32-8.16,2.027-15.741,6.257-21.905c0.248-0.362,0.464-0.761,0.776-1.076
	c8.983-9.076,15.107-13.519,31.711-13.489C393.695,93.694,409.085,106.369,408.34,126.434z"/>
<path fill="#562C24" d="M404.254,162.427c-2.896,7.405-7.488,14.181-13.125,19.103c-3.919,3.651-8.688,6.257-13.911,7.374
	c-0.32,0.073-0.631,0.125-0.951,0.176c-0.135,0.031-0.259,0.052-0.393,0.073c-0.466,0.083-0.931,0.144-1.396,0.196c0,0,0,0-0.01,0
	c-0.476,0.052-0.961,0.093-1.448,0.124c-0.094,0-0.187,0-0.279,0.011c-0.31,0.011-0.621,0.03-0.931,0.03l-0.362,0
	c-10.105,0-19.155-5.523-24.677-13.9c-6.33-8.005-10.446-18.472-10.839-28.608l-0.817-17.701c-0.32-8.16,2.027-15.741,6.257-21.905
	c0.248-0.362,0.507-0.725,0.776-1.076c-2.658,4.147-2.658,56.765,29.972,61.047C387.748,169.429,397.677,166.977,404.254,162.427z"
	/>
<g>
	<g>
		<path fill="#C6AE8B" d="M668.488,410.233c1.042-0.351,2.706-0.249,3.698,0.226l5.727,2.743c0.992,0.476,1.754,1.763,1.693,2.86
			l-9.105,83.307c-0.061,1.099-0.936,2.356-1.944,2.795l-83.728,36.457c-1.009,0.438-2.61,0.343-3.56-0.213l-5.883-3.449
			c-0.948-0.557-1.726-1.911-1.726-3.012l-0.007-87.771c0-1.101,0.853-2.287,1.896-2.638L668.488,410.233z"/>
		<path fill="#F2DBBB" d="M678.071,414.705c1.043-0.352,1.896,0.262,1.896,1.361l0.007,87.771c0,1.1-0.85,2.295-1.889,2.654
			l-92.95,32.271c-1.04,0.359-1.89-0.245-1.89-1.345l-0.007-88.771c0-1.101,0.853-2.287,1.896-2.639L678.071,414.705z"/>
	</g>
	
		<line fill="none" stroke="#AA8B79" stroke-width="8" stroke-linecap="round" stroke-linejoin="round" stroke-miterlimit="10" x1="596.511" y1="456.412" x2="596.511" y2="490.348"/>
	<path fill="none" stroke="#7D7087" stroke-width="8" stroke-linecap="round" stroke-linejoin="round" stroke-miterlimit="10" d="
		M597.511,484.348l6.081,3.355c1.926,1.062,3.502,0.133,3.502-2.067v-20.753c0-2.199-1.563-4.893-3.474-5.982l-6.109-3.488"/>
</g>
<line fill="none" stroke="#433A47" stroke-width="20" stroke-linecap="round" stroke-linejoin="round" stroke-miterlimit="10" x1="373.494" y1="381.041" x2="373.494" y2="485.961"/>
<path fill="#362E3A" d="M324.757,379.328c-5.32,0-10.137-2.041-13.56-5.748c-3.384-3.664-5.037-8.554-4.667-13.787l7.343-60.646
	l0.017-0.205c0.921-11.552,11.488-21.31,23.076-21.31h72.118c11.588,0,22.155,9.759,23.076,21.311l0.017,0.205l8.28,60.645
	c0.37,5.233-1.284,10.124-4.667,13.787c-3.423,3.707-8.238,5.748-13.56,5.748l0,0H324.757z"/>
<path fill="#433A47" d="M324.757,385.328c-5.32,0-10.137-2.041-13.56-5.748c-3.384-3.664-5.037-8.554-4.667-13.787l7.343-60.646
	l0.017-0.205c0.921-11.552,11.488-21.31,23.076-21.31h72.118c11.588,0,22.155,9.759,23.076,21.311l0.017,0.205l8.28,60.645
	c0.37,5.233-1.284,10.124-4.667,13.787c-3.423,3.707-8.238,5.748-13.56,5.748l0,0H324.757z"/>
<g>
	<path fill="#B59885" d="M502.983,213.436l-10.34-19.051l-0.006,0.001c-0.062-0.063-0.129-0.129-0.206-0.202
		c-0.099-0.094-0.205-0.186-0.309-0.278c-0.098-0.099-0.192-0.198-0.296-0.296c-5.708-5.42-17.654-8.216-26.152-6.542
		c-7.802,1.538-10.192,6.415-5.779,11.122c0.08,0.085,0.164,0.168,0.248,0.252c0.072,0.082,0.141,0.163,0.218,0.245
		c0.06,0.063,0.114,0.12,0.167,0.173h-0.004l13.008,13.874l0.5,0.533l2.969,3.167c5.092,5.431,15.202,7.988,20.018,3.35
		c7.053-6.793,9.29-9.312,2.792-15.393L502.983,213.436L502.983,213.436z"/>
	<g>
		<g>
			<path fill="#DDD3B8" d="M506.837,210.802l-0.58,5.117c0,1.34-0.73,2.589-2.01,3.639c-1.919,1.6-5.056,2.787-8.756,3.198
				c-0.959,0.107-1.965,0.168-3,0.168c-0.016,0-0.016,0-0.016,0c-3.197,0-6.137-0.563-8.467-1.492
				c-3.213-1.28-5.299-3.275-5.299-5.513l-0.578-5.117l6.959-19.385l-3.488-7.796l10.873,0.487l10.508,2.284l0.152,0.99
				l2.406,15.197L506.837,210.802z"/>
			<path fill="#C96855" d="M509.296,183.341l-0.135,1.441l-1.966,22.031l-0.354,3.993c-2.516,2.748-7.998,4.666-14.35,4.666h-0.012
				c-6.363,0-11.846-1.918-14.35-4.666l-2.455-27.465l16.805,0.757L509.296,183.341z"/>
			<path opacity="0.4" fill="#FFFFFF" d="M506.837,185.539l-1.295,17.04l-0.762,9.898l-0.533,7.081
				c-1.919,1.6-5.056,2.787-8.756,3.198l0.365-7.461l1.233-26.421l6.046-1.492L506.837,185.539z"/>
			<path opacity="0.4" fill="#8271A8" d="M484.005,221.428c-3.213-1.276-5.289-3.27-5.289-5.512l-0.586-5.114l-2.455-27.458
				l5.936,0.269c-0.072,2.92-0.207,5.901-0.207,5.901L484.005,221.428z"/>
			<path fill="#DDD3B8" d="M510.882,182.043c0,5.174-8.237,9.368-18.398,9.368s-18.398-4.194-18.398-9.368v-3.103
				c0,0,16.018-5.503,16.082-5.325c0.062,0.178,20.699,4.989,20.699,4.989l0,0L510.882,182.043z"/>
			<path fill="#F9F2E4" d="M510.879,178.939c0,5.17-8.23,9.37-18.399,9.37c-10.161,0-18.391-4.2-18.391-9.37
				c0-0.4,0.051-0.8,0.15-1.19c1.14-4.61,8.869-8.179,18.24-8.179C502.648,169.569,510.879,173.769,510.879,178.939z"/>
			<path opacity="0.4" fill="#8271A8" d="M485.568,185.539c-3.029-0.69-8.159-4.3-11.329-7.791c1.14-4.61,8.869-8.179,18.24-8.179
				c0.169,0.64,3.01,7.76,3.01,7.76l-8.07,6.02C486.898,184.449,489.229,186.369,485.568,185.539z"/>
			<path fill="#DDD3B8" d="M477.313,174.118v4.549c0,4.266,6.792,7.723,15.17,7.723s15.17-3.458,15.17-7.723v-5.052l-30.102,0.503"
				/>
			<ellipse fill="#FFFAF0" cx="492.483" cy="174.118" rx="15.17" ry="7.724"/>
			<path opacity="0.6" fill="none" stroke="#72372F" stroke-width="2.0842" stroke-linecap="round" stroke-miterlimit="10" d="
				M484.178,177.325c0.929,0.38,2.013,0.717,3.239,0.972"/>
		</g>
		<path opacity="0.4" fill="#8271A8" d="M478.603,214.975l0.107,0.944c0,2.238,2.086,4.233,5.299,5.512
			c2.33,0.929,5.27,1.492,8.467,1.492c0,0,0,0,0.016,0c1.035,0,2.041-0.061,3-0.167c3.7-0.411,6.838-1.599,8.756-3.198
			c1.279-1.05,2.01-2.299,2.01-3.639l0.184-1.66c-0.351,1.34-0.99,2.787-2.193,3.776c-1.934,1.584-5.056,2.787-8.756,3.198
			c-0.959,0.106-1.965,0.167-3,0.167c-0.016,0-0.016,0-0.016,0c-3.197,0-6.137-0.563-8.467-1.493
			C481.101,218.751,478.969,216.954,478.603,214.975l-0.061-0.624C478.542,214.563,478.558,214.762,478.603,214.975L478.603,214.975
			z"/>
	</g>
</g>
<g>
	<polygon fill="#8EC426" points="664.889,345.061 661.326,344.49 635.399,373.036 630.837,401.732 635.399,402.303 664.889,374.326 
			"/>
	<polygon fill="#407F26" points="660.28,376.205 658.098,376.651 630.837,401.732 635.399,402.303 	"/>
	<polygon fill="#589E3B" points="661.326,344.49 630.837,372.465 630.837,401.732 661.326,373.756 	"/>
	<g>
		<polygon fill="#574D5E" points="648.518,358.492 644.074,358.319 638.536,367.903 633.974,389.184 638.536,389.754 
			648.518,380.344 		"/>
		<polygon fill="#685B72" points="643.954,357.922 633.974,367.333 633.974,389.184 643.954,379.773 		"/>
	</g>
	<path opacity="0.35" fill="#FFFFFF" d="M640.93,364.773c-0.283-0.484-1.065-0.783-1.561-0.41c-1.523,1.149-2.827,2.459-3.967,3.99
		c-0.368,0.494-0.081,1.273,0.409,1.561c0.582,0.34,1.191,0.087,1.562-0.408c0.887-1.193,1.96-2.277,3.147-3.172
		C641.012,365.963,641.267,365.349,640.93,364.773z"/>
	<path opacity="0.35" fill="#FFFFFF" d="M639.456,370.804c-0.471-0.47-1.138-0.395-1.613,0c-0.469,0.388-0.938,0.776-1.406,1.164
		c-0.475,0.394-0.406,1.206,0,1.614c0.47,0.469,1.137,0.394,1.613,0c0.469-0.389,0.938-0.777,1.406-1.165
		C639.931,372.023,639.862,371.211,639.456,370.804z"/>
	<path fill="#D1AF8C" d="M651.499,360.1c-0.971-0.512-2.009-1.023-3.132-1.023c-1.005,0-1.898,0.463-2.786,0.877
		c-1.329,0.619-0.172,2.586,1.152,1.969c0.517-0.24,1.049-0.552,1.634-0.564c0.698-0.014,1.384,0.398,1.98,0.712
		C651.646,362.752,652.8,360.784,651.499,360.1z"/>
	<path fill="#D1AF8C" d="M651.353,365.278c-1.764-1.011-3.726-1.298-5.711-0.892c-1.438,0.294-0.829,2.494,0.606,2.2
		c1.38-0.282,2.736-0.036,3.953,0.661C651.478,367.98,652.628,366.009,651.353,365.278z"/>
	<path fill="#D1AF8C" d="M651.323,370.752c-1.756-0.934-3.682-1.366-5.668-1.195c-1.451,0.125-1.465,2.408,0,2.281
		c1.596-0.138,3.099,0.13,4.518,0.885C651.468,373.411,652.622,371.442,651.323,370.752z"/>
	<path fill="#D1AF8C" d="M651.206,375.828c-1.455-1.002-3.223-1.463-4.982-1.281c-1.445,0.148-1.461,2.432,0,2.281
		c1.413-0.146,2.66,0.163,3.832,0.971C651.268,378.634,652.409,376.657,651.206,375.828z"/>
	<g>
		<polygon fill="#FFCA76" points="661.993,376.682 661.981,381.553 659.153,384.154 636.293,405.131 634.589,404.652 
			638.434,400.26 660.284,376.202 		"/>
		<polygon fill="#F99D5F" points="660.28,376.205 660.28,381.076 634.591,404.646 634.591,399.776 634.67,399.705 636.53,397.996 
			636.78,397.767 638.77,395.945 641.15,393.756 643.07,391.996 643.9,391.236 645.82,389.466 648.2,387.286 650.07,385.566 
			650.82,384.886 652.64,383.216 654.229,381.756 656.15,379.996 656.96,379.256 658.91,377.466 		"/>
	</g>
	<polygon fill="#574D5E" points="658.125,347.234 656.243,346.193 652.123,352.893 650.327,364.776 652.123,366.031 
		658.125,360.373 	"/>
	<polygon fill="#685B72" points="656.224,346.094 650.222,351.752 650.222,364.891 656.224,359.232 	"/>
</g>
<polygon fill="#407F26" points="664.889,374.326 661.243,369.776 661.243,344.49 664.889,345.061 "/>
<path fill="#FFCA76" d="M658.979,380.396c0.031,1.289-1.969,1.289-2,0c-0.01-0.38-0.02-0.761-0.02-1.141l1.95-1.79
	c0.01,0.021,0.01,0.04,0.01,0.061C658.94,378.486,658.96,379.445,658.979,380.396z"/>
<path fill="#FFCA76" d="M656.27,382.466c0.071,1.29-1.929,1.28-2,0c-0.009-0.239-0.02-0.47-0.04-0.71l1.921-1.76
	C656.19,380.816,656.229,381.636,656.27,382.466z"/>
<path fill="#FFCA76" d="M652.89,385.586c0.051,0.541-0.51,1.01-1,1c-0.58,0-0.949-0.45-1-1c-0.02-0.229-0.049-0.47-0.069-0.7
	l1.819-1.67C652.72,384.006,652.81,384.797,652.89,385.586z"/>
<path fill="#FFCA76" d="M650.29,388.336c0.13,1.28-1.88,1.271-2,0c-0.029-0.35-0.07-0.7-0.09-1.05l1.87-1.72
	C650.13,386.486,650.2,387.416,650.29,388.336z"/>
<path fill="#FFCA76" d="M645.95,392.526c0.05,1.29-1.95,1.28-2,0c-0.02-0.431-0.04-0.86-0.05-1.29l1.92-1.771
	C645.87,390.486,645.91,391.506,645.95,392.526z"/>
<path fill="#FFCA76" d="M643.2,394.776c0.061,1.29-1.939,1.28-2,0c-0.02-0.341-0.03-0.681-0.05-1.021l1.92-1.76
	C643.11,392.926,643.16,393.846,643.2,394.776z"/>
<path fill="#FFCA76" d="M638.88,398.945c0.18,1.26-1.75,1.801-1.93,0.531c-0.08-0.57-0.141-1.141-0.17-1.71l1.989-1.821
	C638.71,396.945,638.74,397.955,638.88,398.945z"/>
<path fill="#FFCA76" d="M635.011,401.547c-0.15-0.611-0.271-1.221-0.341-1.842l1.86-1.709c0.02,1.01,0.16,2.01,0.4,3.01
	C637.24,402.267,635.31,402.797,635.011,401.547z"/>
</svg>
