<?xml version="1.0" ?><svg height="60px" version="1.1" viewBox="0 0 60 60" width="60px" xmlns="http://www.w3.org/2000/svg" xmlns:xlink="http://www.w3.org/1999/xlink"><title/><desc/><defs/><g fill="none" fill-rule="evenodd" id="Page-1" stroke="none" stroke-width="1"><g id="Hotel-Services---Webby" transform="translate(-239.000000, -1362.000000)"><g id="82--Hotel--(hotel,-service,-travel)" transform="translate(240.000000, 1363.000000)"><polygon fill="#FFFFFF" id="Fill-1220" points="18.008 58 40.008 58 40.008 16 18.008 16"/><polygon id="Stroke-1221" points="18.008 58 40.008 58 40.008 16 18.008 16" stroke="#0096E6" stroke-linecap="round" stroke-linejoin="round" stroke-width="2"/><polygon fill="#FFFFFF" id="Fill-1222" points="4.008 58 18.008 58 18.008 34 4.008 34"/><polygon id="Stroke-1223" points="4.008 58 18.008 58 18.008 34 4.008 34" stroke="#0096E6" stroke-linecap="round" stroke-linejoin="round" stroke-width="2"/><polygon fill="#FFFFFF" id="Fill-1224" points="40.008 58 54.008 58 54.008 34 40.008 34"/><polygon id="Stroke-1225" points="40.008 58 54.008 58 54.008 34 40.008 34" stroke="#0096E6" stroke-linecap="round" stroke-linejoin="round" stroke-width="2"/><polygon fill="#D0E8F9" id="Fill-1226" points="19.0079 0 21.0079 4 26.0079 4 22.0079 7 23.0079 12 19.0079 9.015 15.0079 12 16.0079 7 12.0079 4 17.0079 4"/><polygon id="Stroke-1227" points="19.0079 0 21.0079 4 26.0079 4 22.0079 7 23.0079 12 19.0079 9.015 15.0079 12 16.0079 7 12.0079 4 17.0079 4" stroke="#0096E6" stroke-linecap="round" stroke-linejoin="round" stroke-width="2"/><polygon fill="#D0E8F9" id="Fill-1228" points="39.0079 0 41.0079 4 46.0079 4 42.0079 7 43.0079 12 39.0079 9.015 35.0079 12 36.0079 7 32.0079 4 37.0079 4"/><polygon id="Stroke-1229" points="39.0079 0 41.0079 4 46.0079 4 42.0079 7 43.0079 12 39.0079 9.015 35.0079 12 36.0079 7 32.0079 4 37.0079 4" stroke="#0096E6" stroke-linecap="round" stroke-linejoin="round" stroke-width="2"/><polygon fill="#D0E8F9" id="Fill-1230" points="26.008 58 32.008 58 32.008 48 26.008 48"/><polygon id="Stroke-1231" points="26.008 58 32.008 58 32.008 48 26.008 48" stroke="#0096E6" stroke-linecap="round" stroke-linejoin="round" stroke-width="2"/><polygon fill="#D0E8F9" id="Fill-1232" points="9.008 44 13.008 44 13.008 38 9.008 38"/><polygon id="Stroke-1233" points="9.008 44 13.008 44 13.008 38 9.008 38" stroke="#0096E6" stroke-linecap="round" stroke-linejoin="round" stroke-width="2"/><polygon fill="#D0E8F9" id="Fill-1234" points="9.008 54 13.008 54 13.008 48 9.008 48"/><polygon id="Stroke-1235" points="9.008 54 13.008 54 13.008 48 9.008 48" stroke="#0096E6" stroke-linecap="round" stroke-linejoin="round" stroke-width="2"/><polygon fill="#D0E8F9" id="Fill-1236" points="45.008 44 49.008 44 49.008 38 45.008 38"/><polygon id="Stroke-1237" points="45.008 44 49.008 44 49.008 38 45.008 38" stroke="#0096E6" stroke-linecap="round" stroke-linejoin="round" stroke-width="2"/><polygon fill="#D0E8F9" id="Fill-1238" points="45.008 54 49.008 54 49.008 48 45.008 48"/><polygon id="Stroke-1239" points="45.008 54 49.008 54 49.008 48 45.008 48" stroke="#0096E6" stroke-linecap="round" stroke-linejoin="round" stroke-width="2"/><polygon fill="#D0E8F9" id="Fill-1240" points="22.008 28 26.008 28 26.008 20 22.008 20"/><polygon id="Stroke-1241" points="22.008 28 26.008 28 26.008 20 22.008 20" stroke="#0096E6" stroke-linecap="round" stroke-linejoin="round" stroke-width="2"/><polygon fill="#D0E8F9" id="Fill-1242" points="32.008 28 36.008 28 36.008 20 32.008 20"/><polygon id="Stroke-1243" points="32.008 28 36.008 28 36.008 20 32.008 20" stroke="#0096E6" stroke-linecap="round" stroke-linejoin="round" stroke-width="2"/><polygon fill="#D0E8F9" id="Fill-1244" points="32.008 40 36.008 40 36.008 32 32.008 32"/><polygon id="Stroke-1245" points="32.008 40 36.008 40 36.008 32 32.008 32" stroke="#0096E6" stroke-linecap="round" stroke-linejoin="round" stroke-width="2"/><polygon fill="#D0E8F9" id="Fill-1246" points="22.008 40 26.008 40 26.008 32 22.008 32"/><polygon id="Stroke-1247" points="22.008 40 26.008 40 26.008 32 22.008 32" stroke="#0096E6" stroke-linecap="round" stroke-linejoin="round" stroke-width="2"/><path d="M0.0079,58 L4.0079,58" id="Stroke-1248" stroke="#0196E7" stroke-linecap="round" stroke-linejoin="round" stroke-width="2"/><path d="M54.0079,58 L58.0079,58" id="Stroke-1249" stroke="#0196E7" stroke-linecap="round" stroke-linejoin="round" stroke-width="2"/></g></g></g></svg>