<?xml version="1.0" ?><svg height="44px" version="1.1" viewBox="0 0 60 44" width="60px" xmlns="http://www.w3.org/2000/svg" xmlns:xlink="http://www.w3.org/1999/xlink"><title/><desc/><defs/><g fill="none" fill-rule="evenodd" id="Page-1" stroke="none" stroke-width="1"><g id="Icons" transform="translate(-1080.000000, -605.000000)"><g id="Credit-Card" transform="translate(1081.000000, 606.000000)"><path d="M54.783,42 L3.217,42 C1.44,42 0,40.56 0,38.783 L0,3.217 C0,1.44 1.44,0 3.217,0 L54.783,0 C56.56,0 58,1.44 58,3.217 L58,38.783 C58,40.56 56.56,42 54.783,42 L54.783,42 Z" fill="#FFFFFF" fill-rule="evenodd" id="Fill-3"/><path d="M54.783,42 L3.217,42 C1.44,42 0,40.56 0,38.783 L0,3.217 C0,1.44 1.44,0 3.217,0 L54.783,0 C56.56,0 58,1.44 58,3.217 L58,38.783 C58,40.56 56.56,42 54.783,42 L54.783,42 Z" id="Stroke-4" stroke="#0096E6" stroke-width="2"/><path d="M6,29 L15,29 M19,29 L28,29 M6,34 L7,34 M11,34 L13,34 M17,34 L18,34 M22,34 L24,34" id="Stroke-318" stroke="#0096E6" stroke-linecap="round" stroke-width="2"/><path d="M46,31 C46,34.314 43.314,37 40,37 C36.686,37 34,34.314 34,31 C34,27.686 36.686,25 40,25 C43.314,25 46,27.686 46,31 L46,31 Z" fill="#D0E8F9" fill-rule="evenodd" id="Fill-319"/><path d="M46,31 C46,34.314 43.314,37 40,37 C36.686,37 34,34.314 34,31 C34,27.686 36.686,25 40,25 C43.314,25 46,27.686 46,31 L46,31 Z" id="Stroke-320" stroke="#0096E6" stroke-linecap="round" stroke-width="2"/><path d="M53,31 C53,34.314 50.314,37 47,37 C43.686,37 41,34.314 41,31 C41,27.686 43.686,25 47,25 C50.314,25 53,27.686 53,31 L53,31 Z" fill="#D0E8F9" fill-rule="evenodd" id="Fill-321"/><path d="M53,31 C53,34.314 50.314,37 47,37 C43.686,37 41,34.314 41,31 C41,27.686 43.686,25 47,25 C50.314,25 53,27.686 53,31 L53,31 Z" id="Stroke-322" stroke="#0096E6" stroke-linecap="round" stroke-width="2"/><path d="M20.745,20 L7.255,20 C6.562,20 6,19.438 6,18.745 L6,9.255 C6,8.562 6.562,8 7.255,8 L20.745,8 C21.438,8 22,8.562 22,9.255 L22,18.745 C22,19.438 21.438,20 20.745,20 L20.745,20 Z" fill="#D0E8F9" fill-rule="evenodd" id="Fill-392"/><path d="M20.745,20 L7.255,20 C6.562,20 6,19.438 6,18.745 L6,9.255 C6,8.562 6.562,8 7.255,8 L20.745,8 C21.438,8 22,8.562 22,9.255 L22,18.745 C22,19.438 21.438,20 20.745,20 L20.745,20 Z" id="Stroke-393" stroke="#0096E6" stroke-linecap="round" stroke-width="2"/><path d="M22,9.255 C22,8.562 21.438,8 20.745,8 L13.255,8 C12.562,8 12,8.562 12,9.255 L12,18.745 C12,19.438 12.562,20 13.255,20 L14.745,20 C15.438,20 16,19.438 16,18.745 L16,13.255 C16,12.562 16.562,12 17.255,12 L20.745,12 C21.438,12 22,11.438 22,10.745 L22,9.255 L22,9.255 Z M16,16 L22,16 L16,16 Z M12,12 L6,12 L12,12 Z M12,16 L6,16 L12,16 Z" id="Stroke-394" stroke="#0096E6" stroke-linecap="round" stroke-width="2"/></g></g></g></svg>