<?xml version="1.0" encoding="utf-8"?>
<!-- Generator: Adobe Illustrator 16.2.1, SVG Export Plug-In . SVG Version: 6.00 Build 0)  -->
<!DOCTYPE svg PUBLIC "-//W3C//DTD SVG 1.1//EN" "http://www.w3.org/Graphics/SVG/1.1/DTD/svg11.dtd">
<svg version="1.1" xmlns="http://www.w3.org/2000/svg" xmlns:xlink="http://www.w3.org/1999/xlink" x="0px" y="0px"
	 width="711.785px" height="662.03px" viewBox="0 0 711.785 662.03" enable-background="new 0 0 711.785 662.03"
	 xml:space="preserve">
<g id="Layer_1">
</g>
<g id="Layer_2">
	<g opacity="0.2">
		<path fill="#454C60" d="M577.056,292.707c0,0-16.12,86.621-20.465,89.225c-4.344,2.604-22.932,3.588-26.119,2.836
			C540.096,370.336,577.056,292.707,577.056,292.707z"/>
	</g>
	<g opacity="0.2">
		<path fill="#454C60" d="M587.919,327.596c0,0-0.375,49.156,3.969,51.76s11.396,5.023,28.344,2.367
			C589.399,364.757,587.919,327.596,587.919,327.596z"/>
	</g>
</g>
<g id="Layer_3">
	<g>
		<g>
			<g opacity="0.2">
				<path fill="#414042" d="M306.244,399.164l-90.255-52.106c-6.693-3.865-17.519-3.865-24.169,0L4.966,456.069
					c-6.654,3.868-6.615,10.141,0.081,14.002l90.251,52.108c6.696,3.865,17.521,3.865,24.17,0l186.855-109.013
					C312.977,409.302,312.937,403.032,306.244,399.164z"/>
			</g>
			<g>
				<g>
					<polygon fill="#2A3244" points="33.693,441.504 186.631,352.479 276.743,404.508 276.701,420.486 186.583,368.46 
						33.646,457.487 					"/>
				</g>
				<g>
					<g>
						<polygon fill="#808080" points="276.743,404.508 276.701,420.486 137.664,501.282 137.709,485.302 						"/>
					</g>
				</g>
				<g>
					<g>
						<polygon fill="#57B6D9" points="276.743,405.327 123.779,494.32 33.671,442.295 186.631,353.298 						"/>
					</g>
				</g>
				<g>
					<g>
						<g>
							<polygon fill="#60C8EF" points="273.556,405.811 124.606,492.468 36.859,441.81 185.807,355.146 							"/>
						</g>
						<g opacity="0.25">
							<polygon fill="#FFFFFF" points="103.119,503.72 86.59,503.72 86.59,411.505 103.119,401.889 							"/>
						</g>
						<g opacity="0.1">
							<polygon fill="#FFFFFF" points="152.708,487.973 148.572,487.973 148.572,375.441 152.708,373.037 							"/>
						</g>
						<g opacity="0.25">
							<polygon fill="#FFFFFF" points="225.427,436.917 250.362,436.917 250.362,390.094 225.427,375.698 							"/>
						</g>
						<g opacity="0.25">
							<polygon fill="#FFFFFF" points="201.409,465.899 209.992,451.405 209.992,366.786 201.409,361.83 							"/>
						</g>
					</g>
				</g>
				<g>
					<path fill="#2A3244" d="M5.546,458.454c0.006-2.561,0.011-5.125,0.018-7.686c-0.006,2.438,1.603,4.883,4.826,6.737l98.3,40.381
						c7.083,4.089-3.414,17.721,20.025,3.881l169.811-98.681c3.034-1.768,4.596-4.054,4.724-6.361
						c-0.002,0.835-0.004,1.669-0.006,2.504c0.002-0.019,0.006-0.035,0.006-0.054c-0.006,2.366-0.015,4.731-0.021,7.101
						c-0.006,2.408-1.587,4.811-4.749,6.648l-178.7,104.258c-6.366,3.695-16.717,3.695-23.122,0l-86.314-49.832
						c-3.09-1.786-4.683-4.107-4.798-6.447c0-0.797,0.002-1.595,0.006-2.395C5.55,458.492,5.546,458.474,5.546,458.454z"/>
				</g>
				<g>
					<path fill="#454C60" d="M298.451,389.693l-86.315-49.835c-6.404-3.696-16.759-3.696-23.119,0L10.313,444.118
						c-6.361,3.695-6.327,9.695,0.077,13.388l86.314,49.835c6.405,3.7,16.758,3.7,23.117,0l178.705-104.254
						C304.889,399.389,304.853,393.392,298.451,389.693z M123.829,493.663l-90.11-52.025l152.912-89.158l90.111,52.028
						L123.829,493.663z"/>
				</g>
				<g>
					<polygon fill="#58698F" points="43.494,482.354 43.706,478.723 60.421,488.385 60.294,492.014 					"/>
				</g>
				<g>
					<polygon fill="#3F4B66" points="43.494,482.354 46.44,480.23 60.421,488.385 60.294,492.014 					"/>
				</g>
			</g>
			<g>
				<path fill="#2A3244" d="M55.516,477.9c4.714,2.723,12.344,2.733,17.048,0c4.685-2.725,4.638-7.141-0.076-9.866
					c-4.713-2.719-12.342-2.728-17.027-0.015C50.755,470.76,50.803,475.176,55.516,477.9z M56.657,468.715
					c4.031-2.336,10.592-2.327,14.641,0.013c4.054,2.339,4.091,6.143,0.065,8.481c-4.043,2.351-10.604,2.339-14.656,0
					S52.614,471.066,56.657,468.715z"/>
			</g>
		</g>
		<g>
			<path fill="#5E5E5E" d="M250.255,376.122c-0.231,0.393-0.731,0.525-1.124,0.299l-12.974-7.531
				c-0.39-0.225-0.522-0.727-0.298-1.118c0.231-0.392,0.73-0.524,1.123-0.298l12.973,7.532
				C250.343,375.231,250.479,375.732,250.255,376.122z"/>
		</g>
		<g>
			<g>
				<path fill="#073649" d="M259.092,383.228c-0.95,0.551-0.948,1.441-0.009,1.985c0.949,0.551,2.475,0.551,3.428,0
					c0.948-0.544,0.959-1.435,0.013-1.985C261.584,382.679,260.041,382.679,259.092,383.228z"/>
			</g>
		</g>
		<g>
			<g>
				<path fill="#073649" d="M241.099,365.218c-0.238,0.136-0.383,0.323-0.383,0.529c0.008,0.412,0.579,0.747,1.283,0.747
					c0.357,0,0.682-0.084,0.917-0.221c0.233-0.135,0.379-0.322,0.379-0.53c0.002-0.404-0.57-0.739-1.28-0.744
					C241.657,364.999,241.333,365.084,241.099,365.218z"/>
			</g>
		</g>
		<g>
			<g enable-background="new    ">
				<g>
					<path fill="#3C4454" d="M275.241,421.149c0.098-0.222,0.233-0.435,0.388-0.612c0.136-0.15,0.285-0.28,0.444-0.372l5.702-3.291
						c0.283-0.166,0.537-0.181,0.721-0.076l0.864,0.502c-0.185-0.104-0.437-0.089-0.721,0.074l-5.705,3.291
						c-0.156,0.093-0.308,0.222-0.441,0.374c-0.157,0.18-0.292,0.389-0.388,0.61c-0.112,0.249-0.175,0.513-0.175,0.76
						c0,0.314,0.112,0.532,0.29,0.639l-0.862-0.503c-0.18-0.104-0.29-0.323-0.29-0.636
						C275.069,421.659,275.129,421.396,275.241,421.149z"/>
				</g>
				<g>
					<g>
						<path fill="#19202B" d="M276.934,420.665c-0.554,0.322-1.006,1.095-1.004,1.744c0,0.637,0.456,0.886,1.011,0.567l5.707-3.295
							c0.556-0.321,1.006-1.094,1.004-1.733c0-0.648-0.458-0.896-1.013-0.574L276.934,420.665z"/>
					</g>
				</g>
			</g>
		</g>
		<g>
			<g enable-background="new    ">
				<g>
					<path fill="#3C4454" d="M253.241,433.842c0.096-0.226,0.231-0.438,0.391-0.618c0.13-0.15,0.281-0.279,0.437-0.368l12.655-7.304
						c0.281-0.166,0.533-0.178,0.716-0.071l0.863,0.502c-0.182-0.106-0.438-0.093-0.717,0.066l-12.653,7.308
						c-0.156,0.091-0.306,0.219-0.437,0.37c-0.158,0.179-0.294,0.393-0.393,0.615c-0.112,0.252-0.177,0.515-0.177,0.755
						c0.002,0.317,0.114,0.542,0.296,0.646l-0.863-0.5c-0.18-0.107-0.295-0.329-0.295-0.647
						C253.062,434.354,253.129,434.091,253.241,433.842z"/>
				</g>
				<g>
					<g>
						<path fill="#19202B" d="M254.932,433.356c-0.556,0.321-1.008,1.104-1.006,1.74c0.002,0.639,0.459,0.898,1.016,0.578
							l12.651-7.307c0.556-0.32,1.009-1.104,1.006-1.741c-0.002-0.638-0.458-0.899-1.013-0.578L254.932,433.356z"/>
					</g>
				</g>
			</g>
		</g>
		<g>
			<g enable-background="new    ">
				<g>
					<path fill="#3C4454" d="M235.062,444.174c0.095-0.224,0.228-0.438,0.387-0.618c0.136-0.151,0.283-0.279,0.44-0.368
						l12.652-7.309c0.28-0.159,0.535-0.176,0.719-0.069l0.861,0.504c-0.184-0.106-0.434-0.094-0.714,0.069l-12.655,7.305
						c-0.157,0.09-0.309,0.218-0.44,0.37c-0.156,0.181-0.291,0.394-0.389,0.617c-0.112,0.248-0.178,0.51-0.178,0.753
						c0.003,0.317,0.115,0.54,0.297,0.645l-0.865-0.5c-0.179-0.107-0.291-0.328-0.291-0.646
						C234.883,444.687,234.949,444.422,235.062,444.174z"/>
				</g>
				<g>
					<g>
						<path fill="#19202B" d="M236.752,443.688c-0.554,0.318-1.007,1.102-1.007,1.74c0.005,0.638,0.458,0.896,1.013,0.575
							l12.653-7.304c0.556-0.319,1.007-1.104,1.007-1.74c-0.002-0.638-0.458-0.898-1.011-0.576L236.752,443.688z"/>
					</g>
				</g>
			</g>
		</g>
	</g>
	<g>
		<g>
			<g opacity="0.2">
				<path fill="#414042" d="M706.74,385.545l-90.255-52.106c-6.693-3.865-17.52-3.865-24.17,0L405.463,442.45
					c-6.653,3.867-6.614,10.141,0.081,14.002l90.251,52.108c6.695,3.864,17.521,3.864,24.172,0L706.82,399.548
					C713.474,395.683,713.434,389.413,706.74,385.545z"/>
			</g>
			<g>
				<g>
					<polygon fill="#2A3244" points="434.19,427.885 587.129,338.86 677.239,390.889 677.198,406.867 587.081,354.84 
						434.144,443.868 					"/>
				</g>
				<g>
					<g>
						<polygon fill="#808080" points="677.239,390.889 677.198,406.867 538.161,487.663 538.207,471.682 						"/>
					</g>
				</g>
				<g>
					<g>
						<polygon fill="#57B6D9" points="677.239,391.708 524.276,480.701 434.169,428.677 587.129,339.679 						"/>
					</g>
				</g>
				<g>
					<g>
						<g>
							<polygon fill="#60C8EF" points="674.054,392.191 525.103,478.849 437.355,428.19 586.304,341.528 							"/>
						</g>
						<g opacity="0.25">
							<polygon fill="#FFFFFF" points="503.617,490.101 487.088,490.101 487.088,397.886 503.617,388.27 							"/>
						</g>
						<g opacity="0.1">
							<polygon fill="#FFFFFF" points="553.204,474.354 549.069,474.354 549.069,361.822 553.204,359.419 							"/>
						</g>
						<g opacity="0.25">
							<polygon fill="#FFFFFF" points="625.924,423.298 650.859,423.298 650.859,376.475 625.924,362.079 							"/>
						</g>
						<g opacity="0.25">
							<polygon fill="#FFFFFF" points="601.906,452.28 610.489,437.786 610.489,353.168 601.906,348.21 							"/>
						</g>
					</g>
				</g>
				<g>
					<path fill="#2A3244" d="M406.043,444.835c0.007-2.561,0.012-5.125,0.019-7.686c-0.007,2.437,1.603,4.883,4.825,6.737
						l98.301,40.381c7.082,4.089-3.414,17.721,20.025,3.881l169.81-98.681c3.034-1.768,4.597-4.054,4.724-6.361
						c-0.003,0.835-0.004,1.669-0.006,2.504c0.002-0.019,0.006-0.035,0.006-0.055c-0.006,2.366-0.015,4.732-0.021,7.102
						c-0.007,2.407-1.587,4.811-4.749,6.648L520.277,503.563c-6.367,3.695-16.716,3.695-23.122,0l-86.314-49.832
						c-3.09-1.786-4.683-4.107-4.798-6.446c0-0.798,0.002-1.596,0.007-2.396C406.048,444.873,406.043,444.854,406.043,444.835z"/>
				</g>
				<g>
					<path fill="#454C60" d="M698.949,376.074l-86.316-49.836c-6.404-3.695-16.758-3.695-23.119,0L410.811,430.499
						c-6.361,3.696-6.325,9.694,0.076,13.388l86.314,49.836c6.405,3.699,16.758,3.699,23.116,0l178.705-104.255
						C705.386,385.77,705.35,379.772,698.949,376.074z M524.326,480.044l-90.109-52.025l152.912-89.158l90.11,52.028
						L524.326,480.044z"/>
				</g>
				<g>
					<polygon fill="#58698F" points="443.991,468.733 444.204,465.104 460.918,474.767 460.791,478.394 					"/>
				</g>
				<g>
					<polygon fill="#3F4B66" points="443.991,468.733 446.938,466.611 460.918,474.767 460.791,478.394 					"/>
				</g>
			</g>
			<g>
				<path fill="#2A3244" d="M456.013,464.281c4.715,2.724,12.344,2.734,17.049,0c4.684-2.725,4.638-7.14-0.077-9.866
					c-4.712-2.718-12.342-2.728-17.026-0.015C451.252,457.142,451.3,461.557,456.013,464.281z M457.153,455.096
					c4.032-2.335,10.593-2.327,14.642,0.013c4.054,2.338,4.091,6.143,0.066,8.481c-4.043,2.352-10.604,2.339-14.657,0
					C453.152,461.251,453.11,457.446,457.153,455.096z"/>
			</g>
		</g>
		<g>
			<path fill="#5E5E5E" d="M650.753,362.503c-0.232,0.393-0.731,0.525-1.124,0.299l-12.974-7.532
				c-0.389-0.224-0.522-0.726-0.299-1.117c0.232-0.392,0.731-0.523,1.124-0.298l12.973,7.533
				C650.84,361.613,650.977,362.113,650.753,362.503z"/>
		</g>
		<g>
			<g>
				<path fill="#073649" d="M659.59,369.608c-0.95,0.551-0.948,1.44-0.01,1.984c0.949,0.551,2.475,0.551,3.428,0
					c0.949-0.544,0.96-1.434,0.013-1.984C662.081,369.06,660.538,369.06,659.59,369.608z"/>
			</g>
		</g>
		<g>
			<g>
				<path fill="#073649" d="M641.597,351.6c-0.238,0.134-0.383,0.322-0.383,0.529c0.007,0.412,0.578,0.746,1.282,0.746
					c0.356,0,0.681-0.084,0.917-0.22c0.232-0.136,0.378-0.323,0.378-0.53c0.003-0.406-0.57-0.741-1.279-0.746
					C642.155,351.379,641.83,351.464,641.597,351.6z"/>
			</g>
		</g>
		<g>
			<g enable-background="new    ">
				<g>
					<path fill="#3C4454" d="M675.738,407.53c0.1-0.223,0.234-0.434,0.388-0.611c0.137-0.151,0.284-0.28,0.443-0.373l5.703-3.291
						c0.282-0.166,0.537-0.181,0.722-0.076l0.862,0.503c-0.184-0.104-0.437-0.089-0.721,0.073l-5.705,3.291
						c-0.155,0.093-0.307,0.222-0.439,0.374c-0.157,0.179-0.292,0.389-0.39,0.61c-0.111,0.249-0.174,0.513-0.174,0.76
						c0,0.313,0.112,0.532,0.29,0.639l-0.862-0.503c-0.18-0.104-0.289-0.323-0.289-0.636
						C675.566,408.04,675.626,407.777,675.738,407.53z"/>
				</g>
				<g>
					<g>
						<path fill="#19202B" d="M677.431,407.046c-0.553,0.322-1.006,1.095-1.003,1.744c0,0.637,0.455,0.886,1.012,0.567l5.706-3.295
							c0.555-0.32,1.006-1.093,1.003-1.733c0-0.647-0.457-0.896-1.013-0.574L677.431,407.046z"/>
					</g>
				</g>
			</g>
		</g>
		<g>
			<g enable-background="new    ">
				<g>
					<path fill="#3C4454" d="M653.737,420.223c0.098-0.225,0.232-0.438,0.391-0.617c0.132-0.151,0.281-0.279,0.437-0.369
						l12.656-7.303c0.28-0.166,0.533-0.179,0.715-0.072l0.863,0.501c-0.183-0.105-0.438-0.091-0.717,0.067l-12.653,7.309
						c-0.156,0.09-0.306,0.218-0.437,0.368c-0.158,0.181-0.294,0.395-0.393,0.616c-0.112,0.252-0.177,0.515-0.177,0.755
						c0.002,0.317,0.114,0.542,0.297,0.646l-0.864-0.501c-0.18-0.107-0.294-0.328-0.294-0.647
						C653.559,420.736,653.626,420.472,653.737,420.223z"/>
				</g>
				<g>
					<g>
						<path fill="#19202B" d="M655.429,419.738c-0.556,0.32-1.009,1.102-1.006,1.739c0.002,0.639,0.459,0.898,1.015,0.579
							l12.652-7.308c0.556-0.32,1.009-1.104,1.006-1.741c-0.002-0.637-0.457-0.899-1.014-0.578L655.429,419.738z"/>
					</g>
				</g>
			</g>
		</g>
		<g>
			<g enable-background="new    ">
				<g>
					<path fill="#3C4454" d="M635.559,430.555c0.095-0.225,0.228-0.439,0.387-0.618c0.137-0.151,0.283-0.279,0.44-0.368
						l12.652-7.309c0.28-0.16,0.534-0.176,0.719-0.068l0.861,0.503c-0.185-0.106-0.434-0.094-0.713,0.069l-12.656,7.305
						c-0.157,0.09-0.31,0.218-0.439,0.369c-0.156,0.182-0.291,0.395-0.39,0.618c-0.111,0.248-0.178,0.51-0.178,0.753
						c0.003,0.317,0.114,0.54,0.297,0.645l-0.865-0.5c-0.179-0.107-0.291-0.328-0.291-0.646
						C635.381,431.067,635.446,430.804,635.559,430.555z"/>
				</g>
				<g>
					<g>
						<path fill="#19202B" d="M637.249,430.068c-0.554,0.318-1.007,1.102-1.007,1.74c0.005,0.639,0.459,0.897,1.013,0.575
							l12.653-7.303c0.557-0.32,1.007-1.104,1.007-1.742c-0.002-0.637-0.457-0.898-1.01-0.575L637.249,430.068z"/>
					</g>
				</g>
			</g>
		</g>
	</g>
	<g>
		<g>
			<g opacity="0.2">
				<path fill="#414042" d="M190.498,309.074l186.854,109.014c6.65,3.865,17.477,3.865,24.171,0l90.255-52.108
					c6.695-3.861,6.736-10.135,0.08-14.003L305.002,242.963c-6.651-3.865-17.476-3.865-24.17,0l-90.253,52.107
					C183.885,298.939,183.846,305.208,190.498,309.074z"/>
			</g>
			<g>
				<g>
					<polygon fill="#2A3244" points="463.132,337.411 310.188,248.386 220.078,300.414 220.121,316.393 310.237,264.367 
						463.178,353.395 					"/>
				</g>
				<g>
					<g>
						<polygon fill="#808080" points="220.078,300.414 220.121,316.393 359.156,397.188 359.112,381.213 						"/>
					</g>
				</g>
				<g>
					<g>
						<polygon fill="#57B6D9" points="220.078,301.235 373.042,390.229 463.152,338.202 310.188,249.205 						"/>
					</g>
				</g>
				<g>
					<g>
						<g>
							<polygon fill="#60C8EF" points="223.265,301.716 372.215,388.376 459.963,337.716 311.014,251.055 							"/>
						</g>
						<g opacity="0.25">
							<polygon fill="#FFFFFF" points="393.702,399.627 410.232,399.627 410.232,307.412 393.702,297.794 							"/>
						</g>
						<g opacity="0.1">
							<polygon fill="#FFFFFF" points="344.113,383.883 348.25,383.883 348.25,271.348 344.113,268.944 							"/>
						</g>
						<g opacity="0.25">
							<polygon fill="#FFFFFF" points="271.394,332.823 246.46,332.823 246.46,286.001 271.394,271.604 							"/>
						</g>
						<g opacity="0.25">
							<polygon fill="#FFFFFF" points="295.412,361.808 286.828,347.311 286.828,262.692 295.412,257.737 							"/>
						</g>
					</g>
				</g>
				<g>
					<path fill="#2A3244" d="M491.278,354.363c-0.005-2.562-0.012-5.127-0.018-7.688c0.006,2.438-1.604,4.882-4.826,6.739
						l-98.305,40.379c-7.082,4.091,3.414,17.726-20.022,3.882l-169.813-98.682c-3.031-1.765-4.594-4.053-4.722-6.359
						c0.001,0.834,0.004,1.667,0.007,2.503c-0.002-0.019-0.007-0.037-0.007-0.056c0.007,2.367,0.014,4.734,0.02,7.102
						c0.005,2.408,1.588,4.811,4.75,6.649L377.041,413.09c6.365,3.698,16.719,3.698,23.122,0l86.317-49.831
						c3.091-1.786,4.682-4.108,4.798-6.444c0-0.803-0.002-1.6-0.005-2.398C491.273,354.401,491.278,354.381,491.278,354.363z"/>
				</g>
				<g>
					<path fill="#454C60" d="M198.294,298.993l178.705,104.259c6.359,3.695,16.714,3.695,23.118,0l86.317-49.838
						c6.402-3.693,6.438-9.692,0.077-13.388L307.806,235.764c-6.363-3.696-16.715-3.696-23.121,0l-86.314,49.837
						C191.968,289.298,191.933,295.295,198.294,298.993z M220.078,300.414l90.11-52.027l152.916,89.158l-90.112,52.027
						L220.078,300.414z"/>
				</g>
				<g>
					<polygon fill="#58698F" points="453.328,378.261 453.115,374.63 436.401,384.292 436.527,387.924 					"/>
				</g>
				<g>
					<polygon fill="#3F4B66" points="453.328,378.261 450.382,376.137 436.401,384.292 436.527,387.924 					"/>
				</g>
			</g>
			<g>
				<path fill="#2A3244" d="M441.361,363.928c-4.685-2.714-12.313-2.705-17.027,0.016c-4.716,2.725-4.764,7.143-0.079,9.863
					c4.706,2.734,12.337,2.722,17.053,0C446.019,371.086,446.068,366.668,441.361,363.928z M440.113,373.118
					c-4.051,2.339-10.611,2.352-14.654,0c-4.027-2.342-3.99-6.142,0.064-8.481c4.051-2.34,10.612-2.35,14.641-0.014
					C444.209,366.977,444.165,370.776,440.113,373.118z"/>
			</g>
		</g>
		<g>
			<path fill="#5E5E5E" d="M246.568,272.028c0.229,0.392,0.73,0.525,1.124,0.301l12.973-7.534c0.389-0.224,0.522-0.726,0.299-1.119
				c-0.232-0.392-0.733-0.522-1.124-0.295l-12.972,7.531C246.478,271.139,246.344,271.639,246.568,272.028z"/>
		</g>
		<g>
			<g>
				<path fill="#073649" d="M237.727,279.134c0.952,0.551,0.949,1.439,0.012,1.985c-0.948,0.551-2.477,0.551-3.429,0
					c-0.946-0.543-0.958-1.434-0.01-1.985C235.237,278.587,236.781,278.587,237.727,279.134z"/>
			</g>
		</g>
		<g>
			<g>
				<path fill="#073649" d="M255.724,261.125c0.234,0.135,0.38,0.322,0.38,0.529c-0.004,0.413-0.578,0.748-1.28,0.748
					c-0.358,0-0.683-0.084-0.917-0.22c-0.235-0.136-0.379-0.323-0.379-0.53c-0.001-0.406,0.572-0.741,1.28-0.746
					C255.167,260.906,255.489,260.989,255.724,261.125z"/>
			</g>
		</g>
		<g>
			<g enable-background="new    ">
				<g>
					<path fill="#3C4454" d="M221.58,317.055c-0.098-0.221-0.231-0.432-0.387-0.612c-0.135-0.149-0.284-0.28-0.443-0.371
						l-5.705-3.293c-0.281-0.162-0.535-0.179-0.719-0.072l-0.863,0.503c0.184-0.108,0.437-0.091,0.719,0.072l5.706,3.29
						c0.157,0.094,0.307,0.222,0.442,0.374c0.157,0.18,0.291,0.39,0.387,0.61c0.111,0.249,0.174,0.512,0.174,0.76
						c0,0.313-0.111,0.532-0.29,0.639l0.862-0.503c0.179-0.103,0.29-0.325,0.29-0.638
						C221.753,317.566,221.691,317.303,221.58,317.055z"/>
				</g>
				<g>
					<g>
						<path fill="#19202B" d="M219.888,316.572c0.553,0.323,1.006,1.095,1.003,1.744c0,0.635-0.456,0.887-1.01,0.566l-5.708-3.294
							c-0.556-0.322-1.006-1.094-1.004-1.734c0-0.644,0.457-0.895,1.012-0.572L219.888,316.572z"/>
					</g>
				</g>
			</g>
		</g>
		<g>
			<g enable-background="new    ">
				<g>
					<path fill="#3C4454" d="M243.583,329.747c-0.097-0.224-0.232-0.436-0.391-0.616c-0.131-0.151-0.281-0.279-0.439-0.368
						l-12.654-7.307c-0.281-0.162-0.533-0.177-0.715-0.068l-0.864,0.5c0.184-0.105,0.438-0.09,0.718,0.068l12.652,7.309
						c0.156,0.088,0.307,0.217,0.438,0.369c0.159,0.179,0.294,0.393,0.392,0.614c0.112,0.252,0.176,0.516,0.176,0.756
						c-0.001,0.318-0.114,0.542-0.296,0.645l0.864-0.499c0.18-0.107,0.293-0.329,0.293-0.646
						C243.758,330.262,243.694,329.997,243.583,329.747z"/>
				</g>
				<g>
					<g>
						<path fill="#19202B" d="M241.89,329.265c0.554,0.32,1.006,1.1,1.006,1.739c-0.001,0.638-0.458,0.897-1.015,0.577
							l-12.651-7.307c-0.555-0.32-1.008-1.104-1.006-1.742c0.002-0.637,0.457-0.898,1.014-0.576L241.89,329.265z"/>
					</g>
				</g>
			</g>
		</g>
		<g>
			<g enable-background="new    ">
				<g>
					<path fill="#3C4454" d="M261.762,340.081c-0.097-0.225-0.231-0.438-0.39-0.619c-0.134-0.151-0.282-0.277-0.439-0.367
						l-12.653-7.308c-0.279-0.161-0.533-0.177-0.717-0.069l-0.863,0.502c0.183-0.106,0.436-0.095,0.716,0.07l12.653,7.305
						c0.157,0.091,0.308,0.217,0.439,0.369c0.157,0.182,0.293,0.393,0.392,0.617c0.109,0.25,0.176,0.512,0.176,0.753
						c-0.002,0.318-0.113,0.539-0.296,0.647l0.864-0.504c0.181-0.104,0.293-0.326,0.293-0.642
						C261.938,340.595,261.873,340.331,261.762,340.081z"/>
				</g>
				<g>
					<g>
						<path fill="#19202B" d="M260.069,339.595c0.555,0.32,1.007,1.102,1.007,1.739c-0.004,0.64-0.458,0.899-1.014,0.577
							l-12.653-7.305c-0.555-0.322-1.007-1.104-1.007-1.741c0.002-0.638,0.458-0.899,1.013-0.575L260.069,339.595z"/>
					</g>
				</g>
			</g>
		</g>
	</g>
	<g>
		<g>
			<g opacity="0.2">
				<path fill="#414042" d="M166.451,550.117l186.853,109.015c6.65,3.865,17.478,3.865,24.172,0l90.254-52.109
					c6.697-3.861,6.736-10.134,0.08-14.003L280.955,484.006c-6.651-3.864-17.476-3.864-24.17,0l-90.254,52.109
					C159.837,539.983,159.799,546.251,166.451,550.117z"/>
			</g>
			<g>
				<g>
					<polygon fill="#2A3244" points="439.085,578.456 286.141,489.429 196.031,541.458 196.074,557.438 286.189,505.41 
						439.131,594.437 					"/>
				</g>
				<g>
					<g>
						<polygon fill="#808080" points="196.031,541.458 196.074,557.438 335.109,638.231 335.065,622.256 						"/>
					</g>
				</g>
				<g>
					<g>
						<polygon fill="#57B6D9" points="196.031,542.278 348.994,631.272 439.105,579.245 286.141,490.248 						"/>
					</g>
				</g>
				<g>
					<g>
						<g>
							<polygon fill="#60C8EF" points="199.218,542.76 348.167,629.419 435.916,578.759 286.966,492.099 							"/>
						</g>
						<g opacity="0.25">
							<polygon fill="#FFFFFF" points="369.655,640.671 386.185,640.671 386.185,548.455 369.655,538.839 							"/>
						</g>
						<g opacity="0.1">
							<polygon fill="#FFFFFF" points="320.067,624.926 324.203,624.926 324.203,512.391 320.067,509.987 							"/>
						</g>
						<g opacity="0.25">
							<polygon fill="#FFFFFF" points="247.347,573.866 222.413,573.866 222.413,527.045 247.347,512.646 							"/>
						</g>
						<g opacity="0.25">
							<polygon fill="#FFFFFF" points="271.365,602.852 262.781,588.354 262.781,503.735 271.365,498.779 							"/>
						</g>
					</g>
				</g>
				<g>
					<path fill="#2A3244" d="M467.231,595.406c-0.006-2.562-0.012-5.127-0.018-7.688c0.006,2.44-1.604,4.883-4.826,6.74
						l-98.305,40.378c-7.082,4.091,3.414,17.726-20.023,3.882l-169.812-98.682c-3.031-1.766-4.594-4.053-4.722-6.359
						c0.001,0.834,0.004,1.668,0.007,2.503c-0.002-0.019-0.007-0.036-0.007-0.055c0.007,2.366,0.014,4.733,0.02,7.103
						c0.005,2.407,1.588,4.809,4.75,6.646l178.698,104.26c6.365,3.697,16.72,3.697,23.123,0l86.316-49.832
						c3.092-1.785,4.682-4.107,4.799-6.443c0-0.803-0.003-1.6-0.006-2.4C467.226,595.443,467.231,595.425,467.231,595.406z"/>
				</g>
				<g>
					<path fill="#454C60" d="M174.247,540.036l178.705,104.26c6.359,3.695,16.713,3.695,23.118,0l86.317-49.838
						c6.402-3.693,6.438-9.692,0.076-13.388L283.759,476.809c-6.363-3.698-16.715-3.698-23.121,0l-86.314,49.837
						C167.92,530.342,167.886,536.339,174.247,540.036z M196.031,541.458l90.11-52.029l152.916,89.159l-90.112,52.027
						L196.031,541.458z"/>
				</g>
				<g>
					<polygon fill="#58698F" points="429.28,619.304 429.068,615.674 412.354,625.336 412.48,628.968 					"/>
				</g>
				<g>
					<polygon fill="#3F4B66" points="429.28,619.304 426.334,617.181 412.354,625.336 412.48,628.968 					"/>
				</g>
			</g>
			<g>
				<path fill="#2A3244" d="M417.314,604.973c-4.686-2.716-12.314-2.705-17.028,0.015c-4.715,2.724-4.764,7.141-0.078,9.863
					c4.706,2.734,12.337,2.722,17.052,0C421.972,612.128,422.021,607.711,417.314,604.973z M416.065,614.162
					c-4.051,2.338-10.611,2.351-14.654,0c-4.026-2.341-3.989-6.142,0.064-8.482c4.051-2.339,10.613-2.349,14.641-0.013
					C420.162,608.021,420.118,611.821,416.065,614.162z"/>
			</g>
		</g>
		<g>
			<path fill="#5E5E5E" d="M222.521,513.071c0.229,0.392,0.73,0.525,1.124,0.302l12.973-7.534c0.389-0.223,0.522-0.727,0.299-1.119
				c-0.232-0.393-0.733-0.521-1.124-0.295l-12.972,7.53C222.431,512.182,222.296,512.682,222.521,513.071z"/>
		</g>
		<g>
			<g>
				<path fill="#073649" d="M213.679,520.177c0.952,0.552,0.949,1.44,0.012,1.985c-0.948,0.551-2.477,0.551-3.429,0
					c-0.946-0.543-0.958-1.434-0.01-1.985C211.189,519.631,212.733,519.631,213.679,520.177z"/>
			</g>
		</g>
		<g>
			<g>
				<path fill="#073649" d="M231.677,502.167c0.234,0.136,0.38,0.323,0.38,0.53c-0.004,0.412-0.578,0.747-1.28,0.747
					c-0.358,0-0.683-0.084-0.917-0.22c-0.234-0.137-0.379-0.322-0.379-0.53c-0.001-0.405,0.572-0.74,1.28-0.745
					C231.12,501.949,231.442,502.033,231.677,502.167z"/>
			</g>
		</g>
		<g>
			<g enable-background="new    ">
				<g>
					<path fill="#3C4454" d="M197.532,558.099c-0.098-0.223-0.231-0.432-0.386-0.611c-0.135-0.15-0.284-0.281-0.443-0.373
						l-5.705-3.293c-0.281-0.161-0.535-0.179-0.719-0.071l-0.863,0.502c0.183-0.106,0.437-0.09,0.719,0.073l5.706,3.29
						c0.157,0.094,0.307,0.222,0.442,0.374c0.157,0.178,0.291,0.391,0.387,0.609c0.111,0.25,0.174,0.513,0.174,0.761
						c0,0.313-0.111,0.532-0.29,0.638l0.862-0.502c0.179-0.103,0.291-0.324,0.291-0.639
						C197.706,558.609,197.644,558.345,197.532,558.099z"/>
				</g>
				<g>
					<g>
						<path fill="#19202B" d="M195.84,557.615c0.553,0.322,1.006,1.095,1.003,1.744c0,0.636-0.456,0.888-1.01,0.566l-5.708-3.295
							c-0.556-0.32-1.006-1.093-1.004-1.733c0-0.646,0.457-0.895,1.012-0.572L195.84,557.615z"/>
					</g>
				</g>
			</g>
		</g>
		<g>
			<g enable-background="new    ">
				<g>
					<path fill="#3C4454" d="M219.536,570.79c-0.098-0.224-0.233-0.435-0.392-0.615c-0.131-0.152-0.28-0.28-0.438-0.368
						l-12.654-7.308c-0.281-0.161-0.533-0.176-0.715-0.068l-0.864,0.5c0.184-0.104,0.438-0.09,0.718,0.069l12.652,7.309
						c0.156,0.088,0.307,0.216,0.438,0.369c0.159,0.178,0.294,0.391,0.391,0.613c0.112,0.254,0.177,0.517,0.177,0.756
						c-0.001,0.317-0.114,0.542-0.296,0.645l0.864-0.498c0.18-0.108,0.293-0.329,0.293-0.646
						C219.711,571.306,219.646,571.042,219.536,570.79z"/>
				</g>
				<g>
					<g>
						<path fill="#19202B" d="M217.842,570.309c0.554,0.319,1.006,1.1,1.006,1.738c-0.001,0.639-0.458,0.898-1.015,0.577
							l-12.651-7.307c-0.555-0.32-1.008-1.104-1.006-1.742c0.002-0.637,0.457-0.897,1.014-0.575L217.842,570.309z"/>
					</g>
				</g>
			</g>
		</g>
		<g>
			<g enable-background="new    ">
				<g>
					<path fill="#3C4454" d="M237.715,581.125c-0.097-0.225-0.231-0.44-0.39-0.62c-0.134-0.15-0.282-0.278-0.439-0.368
						l-12.653-7.307c-0.279-0.159-0.533-0.176-0.717-0.069l-0.863,0.502c0.183-0.106,0.436-0.094,0.716,0.071l12.653,7.306
						c0.157,0.09,0.308,0.215,0.439,0.368c0.157,0.182,0.293,0.392,0.392,0.618c0.109,0.248,0.176,0.511,0.176,0.751
						c-0.002,0.318-0.113,0.54-0.296,0.647l0.864-0.503c0.181-0.104,0.293-0.326,0.293-0.643
						C237.891,581.638,237.826,581.374,237.715,581.125z"/>
				</g>
				<g>
					<g>
						<path fill="#19202B" d="M236.022,580.64c0.555,0.317,1.007,1.101,1.007,1.737c-0.004,0.641-0.458,0.9-1.014,0.578
							l-12.653-7.306c-0.555-0.321-1.007-1.103-1.007-1.741c0.002-0.636,0.458-0.898,1.013-0.574L236.022,580.64z"/>
					</g>
				</g>
			</g>
		</g>
	</g>
	<g>
		<g>
			<g opacity="0.27">
				<path fill="#231F20" d="M141.856,431.893c-3.277-1.759,6.79-5.002-2.624-7.878c-3.136-0.959-19.467-3.087-27.034-2.126
					c-10.18,1.298-27.871,5.716-25.728,15.364c1.868,8.407,27.694,14.715,53.241,11.434c13.86-1.775,21.404-5.144,17.867-10.004
					C155.191,435.403,144.026,433.058,141.856,431.893z"/>
			</g>
			<g>
				<g>
					<path fill="#FAFCFC" d="M98.212,416.495c0,0-2.704,2.275-2.688,6.359c0.019,4.083,0.155,5.176,1.135,6.009
						c0.981,0.828,4.259,1.849,6.723,1.679c2.467-0.175,5.764-2.554,7.27-2.899c1.501-0.345,1.081-0.382,6.453-1.687
						c7.558-1.838,8.955-3.731,9.692-5.666c0.75-1.968,1.159-3.663,0.286-4.291c-5.135-3.702-14.75,2.246-16.949-0.415
						C107.939,412.932,98.212,416.495,98.212,416.495z"/>
				</g>
				<g>
					<path fill="#7DA8A3" d="M97.691,414.24c0,0-1.817,1.98-2.083,6.05c-0.21,3.225-0.097,5.51,0.886,6.345
						c0.981,0.826,3.747,1.817,6.205,1.551c1.958-0.215,3.605-0.799,5.051-1.337c2.407-0.901,3.825-1.142,8.025-1.927
						c6.507-1.217,10.775-5.466,11.401-7.442c0.558-1.742-1.248-4.575-6.202-4.19c-7.125,0.534-9.616,0.613-11.362,0.049
						C106.334,412.269,97.691,414.24,97.691,414.24z"/>
				</g>
			</g>
			<g>
				<path fill="#336689" d="M114.64,309.729c8.936,15.058,10.666,43.029,9.74,58.494c0.515-8.593-0.062,6.166-2.037,13.439
					c-3.257,11.992-10.075,34.129-9.252,33.312c-0.566,0.563-4.587,4.948-8.134,6.185c-5.205,1.81-11.631,0.705-9.87-6.293
					c0,0,6.951-38.731,7.185-42.812c0.428-7.479,1.192-10.09,0.199-23.503c-0.417-5.623-2.923-18.481-1.042-29.778
					C103.133,308.541,108.086,298.7,114.64,309.729z"/>
			</g>
			<g>
				<g>
					<g>
						<path fill="#7CE9F2" d="M127.872,418.827c0,0-6.105-5.213-10.768-2.154c-1.005,0.663-3.062,4.228-3.793,6.704
							c-0.351,1.199-1.553,5.557,2.92,7.582c2.179,0.985,4.043-0.491,8.559,2.403c4.526,2.889,12.458,6.084,14.457,6.282
							c2.832,0.284,4.422,0.151,5.326-2.145c0.037-0.091,0.207-0.582,0.088-1.651c-0.155-1.405-0.754-2.158-2.108-2.836
							c-4.681-2.342-10.29-6.577-9.418-10.951C133.789,418.777,127.872,418.827,127.872,418.827z"/>
					</g>
				</g>
				<g>
					<path fill="#FAFCFC" d="M144.59,437.484c-0.03-0.029-0.167-0.201-0.502-0.402c-0.964-0.578-3.463-1.506-6.011-2.118
						c-3.399-0.813-8.588-2.408-11.208-4.302c-2.627-1.896-6.561-5.831-11.223-6.702c-1.129-0.214-1.942-0.088-2.539,0.217
						c-0.385,1.739-1.125,4.895,2.631,6.594c2.179,0.985,4.537-0.303,9.052,2.592c4.526,2.889,12.458,6.084,14.457,6.282
						c2.012,0.2,4.239,0.518,4.824-0.67C144.11,438.896,144.483,438.144,144.59,437.484z"/>
				</g>
				<g>
					<path fill="#81959B" d="M143.887,439.243c0.067-0.135-0.105-0.407-0.285-0.52c-1.93-1.212-11.633-1.938-17.172-6.018
						c-5.541-4.086-8.02-6.327-10.097-6.93c-1.84-0.534-2.545-0.135-3.108,0.314c-0.477,0.65-0.709,2.59,1.516,4.203
						c2.793,2.027,4.077,2.739,7.718,5.504c3.019,2.289,5.906,2.822,7.912,3.019C132.38,439.019,143.078,441.015,143.887,439.243z"
						/>
				</g>
			</g>
			<g>
				<path fill="#4F81AA" d="M131.136,314.332c3.374,14.604,11.617,56.911,11.105,61.635c-0.013,0.137,0.278,6.941-2.774,21.102
					c-2.359,10.94-5.098,29.586-5.098,29.586c0.048-0.206-3.103-4.143-5.87-6.681c-4.999-4.581-11.662-2.916-12.077-2.916
					c0,0,6.276-40.497,5.831-44.561c-1.344-12.296-9.615-28.206-12.079-39.146C108.012,323.731,124.526,285.718,131.136,314.332z"/>
			</g>
			<g>
				<path fill="#DBB295" d="M105.522,252.6c5.766,1.175-10.28,3.662-23.891,32.771c-1.91,4.083-2.571,10.063,3.001,12.275
					c5.57,2.21,28.281,5.399,28.281,5.399l1.074-31.914L105.522,252.6z"/>
			</g>
			<g>
				<path fill="#21633C" d="M105.872,252.282c0.605,0.101,2.265,0.089,2.864,0.317l2.958,13.573
					c-1.966,7.759-6.882,17.161-6.882,17.161c-9.074,1.695-16.332-3.639-19.208-7.831
					C94.416,256.713,100.191,253.263,105.872,252.282z"/>
			</g>
			<g>
				<path fill="#F7CBAD" d="M103.848,254.9c0,0,2.419-5.657,3.217-12.305c0.372-3.114,11.893-0.74,11.893-0.74
					s-0.242,10.761-0.689,17.087C117.853,264.825,105.685,256.871,103.848,254.9z"/>
			</g>
			<g>
				<g>
					<path fill="#F7CBAD" d="M111.846,216.693l8.958-2.966l6.746,23.448c2.068,6.678-0.317,8.707-2.291,9.469
						c-4.096,1.578-9.526,0.981-12.338,0.484c-5.442-0.965-8.218-8.633-8.489-9.244l-7.144-14.668L111.846,216.693z"/>
				</g>
				<g>
					<path fill="#E2770C" d="M121.271,210.812c-0.348,2.137,0.844,6.622,0.45,6.555c-5.977-1.017-0.948,8.94-0.274,11.589
						c0,0,0.258,2.561-0.939,2.496c-1.047-0.055-2.894-8.582-5.01,0.706c0,0-0.663,6.724-2.361,9.601
						c-3.069,5.188-6.346,4.092-6.151,4.323c0.138,0.165-1.56-2.166-4.642-6.744c-6.231-9.252-9.519-13.473-8.585-18.31
						c0.985-5.104,7.775-9.465,14.363-10.525C113.662,209.62,121.271,210.812,121.271,210.812z"/>
				</g>
				<g>
					<g>
						<path fill="#EFCCAF" d="M118.598,227.546c0,0-1.695,1.064-1.399,3.418c0.209,1.663,1.252,2.677,1.702,2.92
							c1.18,0.644,2.077,0.503,2.077,0.503s-1.548-3.533-1.793-4.209C118.94,229.511,118.598,227.546,118.598,227.546z"/>
					</g>
					<g>
						<path fill="#F7DDCB" d="M119.138,226.405c0,0,1.012-0.5,0.918,1.31c-0.104,1.802,0.109,2.773,0.44,3.629
							c0.305,0.779,1.47,2.993,1.47,2.993s-0.243,1.228-1.478,0.102c-0.584-0.538-1.325-1.725-1.989-3.378
							C118.225,230.388,117.869,226.554,119.138,226.405z"/>
					</g>
				</g>
			</g>
			<g>
				<path fill="#E52323" d="M98.539,330.27c-1.285-8.568-2.361-24.849-2.775-32.762c-0.415-7.867-0.303-16.911,0.114-24.821
					c0.468-8.91,1.5-12.945,4.345-16.603c1.251-1.608,2.854-4.001,5.36-3.395c10.778,2.606,21.601,8.935,23.957,12.362
					c5.027,7.311,5.094,14.352,5.232,18.256c0.252,7.148-1.329,20.693-0.857,28.804c0.855,14.785,2.938,23.519,4.013,26.52
					C137.926,338.631,101.648,351.008,98.539,330.27z"/>
			</g>
			<g>
				<path fill="#F7CBAD" d="M152.665,283.872c-10.335-6.894-22.746-18.335-22.746-18.335c-3.292-2.454-6.753-4.026-8.822-3.389
					c-7.464,2.306-0.041,14.185-0.041,14.185s12.453,9.455,23.971,16.416c1.963,1.186,3.329,2.017,5.77,3.103l1.719-0.309
					l4.98-8.743c-0.97-0.542-1.26-2.849-2.167-3.403C153.792,283.941,153.311,284.303,152.665,283.872z"/>
			</g>
			<g>
				<path fill="#F7CBAD" d="M183.529,275.332c-3.147-2.16-3.311-2.859-3.311-2.859s-17.279,8.972-31.94,13.239l-1.074,8.268
					c0,0,1.82,1.446,3.851,1.939c2.031,0.494,32.303-16.884,32.303-16.884S185.083,276.399,183.529,275.332z"/>
			</g>
			<g>
				<path fill="#EF4343" d="M120.27,277.289c2.221,2.915,4.574,6.623,11.465,11.361c5.889-2.477,13.184-6.485,14.209-9.891
					c-5.038-3.835-13.536-12.389-14.404-13.291c-0.544-0.375-5.244-6.225-10.605-3.814
					C113.294,265.092,117.898,274.178,120.27,277.289z"/>
			</g>
		</g>
		<g>
			<g>
				<g>
					<path fill="#165D70" d="M125.149,195.468c17.167-6.167,25.325,7.352,11.5,26c-22.471,30.309-53.76,30.765-60.5,28.834
						c-14.189-4.065-8.07-20.936,5.333-29.333c11.739-7.355,15.299-8.67,20.166-12C114.69,200.045,113.649,202.301,125.149,195.468z
						"/>
				</g>
			</g>
			<g>
				<path fill="#1E647C" d="M64.987,220.549c-1.649,0.701,13.28-24.75,14.895-23.457c0.856,0.685,2.569-1.541,2.569-1.541
					s1.712-0.343,4.794,5.821c3.253,7.705,4.505,20.94,4.504,20.941c-0.732,3.66,1.625,6.675,6.539,7.518
					c6.847,1.172,16.061-2.316,20.582-7.794c2.618-3.17,3.088-6.312,1.693-8.624c-0.316-0.521-10.652-12.696-21.484-27.274
					c-3.068-4.128-13.545-7.539-20.565-4.114c0,0-5.137,5.65-8.732,17.635C66.856,209.409,64.987,220.549,64.987,220.549z"/>
			</g>
			<g>
				<path fill="#A0611C" d="M104.734,210.69C104.6,210.773,104.989,210.585,104.734,210.69L104.734,210.69z"/>
			</g>
		</g>
		<g>
			<g>
				<path fill="#1D5E6D" d="M123.149,315.135c2.667-21.333,4.12-46.751,1.014-54.563c0,0-1.83-2.539-4.352-4.382
					c-1.742-1.273-4.564-0.523-6.447-1.021c-0.788-0.208-2.094-0.815-3.526-1.267c-1.992-0.629-4.176-1.129-5.098-1.388
					c-0.893-0.349-2.084,0.079-2.084,0.079c-14.401,6.322-30.792,32.008-37.507,66.543c-9.333,48.001-26.786,73.699-49.333,92.667
					c2.218,10.891,29.687,9.578,41.333,6.666c9.024-2.262,19.084-18.018,27.833-13.484c28,21.333,42.194,12.496,73.463-4.141
					C113.399,387.968,118.979,348.496,123.149,315.135z"/>
			</g>
		</g>
		<g>
			<path fill="#0C4A5B" d="M118.504,210.872c-0.983,2.748-2.972,6.299-6.948,8.307c-9.917,5.01-16.352,3.792-19.929,1.999
				c0.082,0.719,0.122,1.137,0.122,1.137c-0.732,3.66,1.625,6.675,6.539,7.518c6.847,1.172,16.061-2.316,20.582-7.794
				c2.618-3.17,3.088-6.312,1.693-8.624C120.482,213.281,119.74,212.378,118.504,210.872z"/>
		</g>
	</g>
	<g>
		<g>
			<path fill="#F7CBAD" d="M537.592,259.389c10.335-6.894,22.746-18.336,22.746-18.336c3.291-2.454,6.752-4.026,8.821-3.389
				c7.465,2.306,0.041,14.185,0.041,14.185s-12.453,9.455-23.972,16.416c-1.963,1.185-3.327,2.017-5.769,3.103l-1.72-0.309
				l-4.979-8.743c0.969-0.542,1.26-2.848,2.166-3.403C536.465,259.458,536.945,259.819,537.592,259.389z"/>
		</g>
		<g>
			<path fill="#F7CBAD" d="M506.728,250.849c3.146-2.16,3.311-2.859,3.311-2.859s17.278,8.972,31.94,13.239l1.074,8.268
				c0,0-1.82,1.446-3.851,1.939c-2.031,0.494-32.304-16.884-32.304-16.884S505.173,251.916,506.728,250.849z"/>
		</g>
		<g>
			<path fill="#46A56C" d="M569.987,252.806c-2.221,2.915-4.574,6.622-11.467,11.36c-5.888-2.477-13.182-6.485-14.208-9.891
				c5.037-3.835,13.536-12.389,14.403-13.291c0.543-0.375,5.244-6.225,10.606-3.814
				C576.962,240.608,572.358,249.695,569.987,252.806z"/>
		</g>
		<g opacity="0.27">
			<path fill="#231F20" d="M536.562,409.897c3.277-1.759-6.79-5.003,2.623-7.88c3.137-0.958,19.468-3.085,27.034-2.127
				c10.18,1.298,27.872,5.718,25.728,15.366c-1.867,8.406-27.693,14.715-53.241,11.434c-13.859-1.776-21.403-5.145-17.865-10.004
				C523.227,413.405,534.392,411.062,536.562,409.897z"/>
		</g>
		<g>
			<g>
				<path fill="#FAFCFC" d="M580.206,394.5c0,0,2.703,2.273,2.688,6.358c-0.019,4.082-0.155,5.176-1.136,6.009
					c-0.98,0.827-4.259,1.849-6.722,1.679c-2.467-0.176-5.765-2.555-7.27-2.899c-1.501-0.346-1.081-0.384-6.453-1.688
					c-7.559-1.838-8.955-3.731-9.691-5.665c-0.75-1.968-1.159-3.664-0.286-4.293c5.135-3.701,14.75,2.246,16.948-0.414
					C570.479,390.934,580.206,394.5,580.206,394.5z"/>
			</g>
			<g>
				<path fill="#7F6B3D" d="M580.726,392.242c0,0,1.818,1.98,2.084,6.052c0.21,3.224,0.097,5.511-0.886,6.343
					c-0.98,0.827-3.747,1.82-6.205,1.553c-1.958-0.214-3.605-0.801-5.052-1.339c-2.406-0.899-3.825-1.141-8.025-1.926
					c-6.507-1.217-10.774-5.465-11.4-7.44c-0.559-1.743,1.247-4.578,6.201-4.192c7.125,0.533,9.616,0.613,11.362,0.051
					C572.083,390.272,580.726,392.242,580.726,392.242z"/>
			</g>
		</g>
		<g>
			<path fill="#336689" d="M563.777,287.733c-8.936,15.058-10.665,43.028-9.739,58.495c-0.516-8.595,0.062,6.164,2.037,13.438
				c3.257,11.992,10.074,34.129,9.252,33.312c0.566,0.562,4.587,4.949,8.134,6.185c5.205,1.812,11.632,0.706,9.87-6.294
				c0,0-6.951-38.73-7.186-42.811c-0.427-7.479-1.191-10.09-0.198-23.504c0.417-5.622,2.924-18.48,1.042-29.777
				C575.284,286.544,570.331,276.703,563.777,287.733z"/>
		</g>
		<g>
			<g>
				<g>
					<path fill="#9B8859" d="M550.546,396.83c0,0,6.105-5.214,10.768-2.154c1.005,0.664,3.062,4.229,3.792,6.703
						c0.352,1.2,1.554,5.558-2.919,7.584c-2.18,0.984-4.044-0.492-8.559,2.403c-4.526,2.888-12.459,6.082-14.457,6.281
						c-2.833,0.285-4.423,0.151-5.327-2.144c-0.036-0.093-0.207-0.582-0.088-1.652c0.155-1.404,0.754-2.158,2.108-2.834
						c4.681-2.344,10.29-6.579,9.419-10.952C544.629,396.782,550.546,396.83,550.546,396.83z"/>
				</g>
			</g>
			<g>
				<path fill="#FAFCFC" d="M533.827,415.486c0.03-0.026,0.168-0.201,0.503-0.401c0.964-0.578,3.463-1.505,6.011-2.117
					c3.398-0.814,8.587-2.409,11.207-4.302c2.629-1.897,6.561-5.832,11.224-6.702c1.13-0.214,1.941-0.088,2.539,0.218
					c0.385,1.737,1.125,4.894-2.631,6.593c-2.18,0.984-4.537-0.304-9.052,2.592c-4.526,2.888-12.459,6.082-14.457,6.281
					c-2.013,0.201-4.239,0.518-4.824-0.67C534.308,416.9,533.935,416.146,533.827,415.486z"/>
			</g>
			<g>
				<path fill="#617A7F" d="M534.531,417.245c-0.067-0.134,0.104-0.405,0.284-0.519c1.93-1.21,11.633-1.937,17.172-6.018
					c5.541-4.085,8.02-6.327,10.097-6.93c1.841-0.534,2.546-0.135,3.108,0.316c0.476,0.648,0.709,2.589-1.517,4.201
					c-2.792,2.026-4.076,2.741-7.719,5.505c-3.019,2.288-5.905,2.822-7.911,3.019C546.037,417.021,535.341,419.017,534.531,417.245z
					"/>
			</g>
		</g>
		<g>
			<path fill="#4F81AA" d="M547.281,292.336c-3.374,14.603-11.616,56.911-11.104,61.635c0.013,0.137-0.278,6.94,2.773,21.102
				c2.359,10.939,5.099,29.586,5.099,29.586c-0.049-0.207,3.104-4.144,5.87-6.681c4.998-4.581,11.661-2.917,12.077-2.917
				c0,0-6.276-40.497-5.831-44.562c1.345-12.295,9.614-28.204,12.078-39.145C570.406,301.734,553.892,263.722,547.281,292.336z"/>
		</g>
		<g>
			<path fill="#21633C" d="M572.546,230.286c-0.604,0.102-2.266,0.089-2.863,0.317l-2.959,13.573
				c1.966,7.759,6.882,17.161,6.882,17.161c9.074,1.695,16.332-3.639,19.209-7.832C584.002,234.717,578.227,231.267,572.546,230.286
				z"/>
		</g>
		<g>
			<path fill="#F7CBAD" d="M574.569,232.904c0,0-2.419-5.657-3.217-12.305c-0.371-3.114-11.892-0.74-11.892-0.74
				s0.241,10.761,0.688,17.087C560.565,242.829,572.732,234.874,574.569,232.904z"/>
		</g>
		<g>
			<g>
				<path fill="#F7CBAD" d="M566.571,194.697l-8.957-2.966l-6.746,23.448c-2.068,6.678,0.317,8.708,2.29,9.47
					c4.097,1.577,9.527,0.981,12.339,0.483c5.441-0.965,8.218-8.633,8.488-9.244l7.144-14.668L566.571,194.697z"/>
			</g>
			<g>
				<path fill="#261D14" d="M557.146,188.815c0.349,2.137-0.843,6.621-0.45,6.554c5.979-1.016,0.949,8.94,0.275,11.59
					c0,0-0.259,2.561,0.938,2.496c1.047-0.056,2.894-8.583,5.01,0.706c0,0,0.663,6.724,2.361,9.601
					c3.069,5.188,6.346,4.092,6.15,4.322c-0.138,0.164,1.561-2.166,4.643-6.744c6.23-9.251,9.52-13.473,8.585-18.309
					c-0.985-5.104-7.774-9.465-14.362-10.525C564.757,187.623,557.146,188.815,557.146,188.815z"/>
			</g>
			<g>
				<g>
					<path fill="#EFCCAF" d="M559.819,205.549c0,0,1.695,1.065,1.4,3.418c-0.21,1.662-1.253,2.677-1.703,2.92
						c-1.18,0.644-2.076,0.502-2.076,0.502s1.548-3.533,1.793-4.209C559.478,207.514,559.819,205.549,559.819,205.549z"/>
				</g>
				<g>
					<path fill="#F7DDCB" d="M559.279,204.408c0,0-1.013-0.499-0.918,1.31c0.104,1.802-0.109,2.773-0.439,3.63
						c-0.305,0.779-1.471,2.993-1.471,2.993s0.244,1.228,1.479,0.102c0.584-0.538,1.326-1.725,1.99-3.378
						C560.193,208.392,560.549,204.557,559.279,204.408z"/>
				</g>
			</g>
		</g>
		<g>
			<path fill="#348959" d="M579.879,308.273c1.284-8.569,2.361-24.849,2.775-32.762c0.415-7.867,0.304-16.911-0.114-24.821
				c-0.468-8.91-1.5-12.945-4.346-16.604c-1.251-1.608-2.854-4.001-5.359-3.395c-10.776,2.606-16.226,4.455-18.58,7.883
				c-5.027,7.311-8.364,22.931-8.502,26.834c-0.252,7.148-0.776,16.594-1.249,24.705c-0.854,14.785-2.938,23.519-4.012,26.52
				C540.492,316.634,576.77,329.011,579.879,308.273z"/>
		</g>
	</g>
	<g opacity="0.2">
		<g>
			<path d="M330.012,292.121c4.785,0,8.648-2.246,8.636-5.017l0.018-7.061c-0.005-1.385-0.982-2.64-2.556-3.548
				c-1.572-0.908-3.742-1.469-6.133-1.469h-46.698c-2.301,0-4.502,0.529-6.122,1.473c-1.621,0.941-2.525,2.221-2.512,3.552
				l-0.02,7.062l0.226,27.006c0.013,1.383,0.989,2.634,2.557,3.539c1.577,0.91,3.749,1.473,6.147,1.47
				c4.783-0.003,8.642-2.254,8.621-5.025l0.02-7.061l-0.126-14.92L330.012,292.121z"/>
		</g>
		<g>
			<path d="M386.773,311.554l0.021-7.062c0,0.026-0.009,0.052-0.01,0.078c0.019-0.657-0.162-1.326-0.58-1.98
				c-0.491-0.763-1.242-1.425-2.177-1.965c-2.517-1.452-6.351-2.015-9.893-1.258l-75.518,16.125
				c-3.869,0.827-6.217,2.978-6.103,5.244c-0.003-0.057-0.012-0.112-0.012-0.168l-0.02,7.061c-0.002,0.632,0.187,1.275,0.59,1.902
				c0.491,0.764,1.241,1.425,2.176,1.965c2.517,1.453,6.349,2.016,9.891,1.26l75.517-16.126
				C384.432,315.823,386.768,313.756,386.773,311.554z"/>
		</g>
		<g>
			<path d="M404.425,318.009c-0.007-1.386-0.983-2.64-2.556-3.548c-1.574-0.908-3.741-1.469-6.133-1.469
				c-4.786,0-8.65,2.246-8.635,5.017l-0.02,7.062l0.083,14.963l-37.89-0.037c-4.782-0.002-8.656,2.24-8.645,5.01l-0.022,7.062
				c0.005,1.389,0.984,2.646,2.56,3.556c1.569,0.906,3.73,1.467,6.118,1.47l46.624,0.043c2.298,0.004,4.503-0.525,6.126-1.467
				c1.622-0.941,2.528-2.218,2.522-3.551l0.02-7.062L404.425,318.009z"/>
		</g>
	</g>
	<g>
		<g>
			<g>
				<g enable-background="new    ">
					<g enable-background="new    ">
						<g enable-background="new    ">
							<g>
								<path fill="#F0F1F2" d="M470.808,118.414l0.77,8.297c-0.679-7.264-10.375-14.369-28.094-20.388
									c-80.297-27.295-239.3-11.311-236.323,20.434l-0.77-8.293c-3.029-32.143,157.061-47.378,236.323-20.438
									C460.423,104.048,470.128,111.153,470.808,118.414L470.808,118.414z"/>
							</g>
						</g>
					</g>
					<g enable-background="new    ">
						<g enable-background="new    ">
							<g>
								<path fill="#F0F1F2" d="M480.307,117.522l0.77,8.294c1.683,17.934-37.364,28.346-55.104,32.055
									c-91.45,19.124-225.363,1.425-228.311-30.22l-0.77-8.292c0.799,8.572,11.655,16.756,31.479,23.489
									C311.665,171.157,483.725,155.738,480.307,117.522L480.307,117.522z"/>
							</g>
						</g>
					</g>
					<g>
						<g>
							<path fill="#FFFFFF" d="M479.345,123.251c-4.512,10.617-23.743,19.967-54.145,26.326
								c-97.828,20.447-242.089-1.314-227.354-35.949c4.514-10.619,23.745-19.97,54.145-26.326
								C349.868,66.837,494.077,88.635,479.345,123.251z M422.619,145.281c55.407-11.592,64.382-32.205,20.094-47.255
								c-73.946-25.136-222.949-13.764-235.576,15.917c-9.559,22.478,66.134,40.251,144.12,38.798
								C375.667,152.286,400.302,149.948,422.619,145.281L422.619,145.281z"/>
						</g>
					</g>
				</g>
			</g>
			<g>
				<g enable-background="new    ">
					<g enable-background="new    ">
						<g enable-background="new    ">
							<g>
								<path fill="#F0F1F2" d="M421.69,237.296l-6.466,5.249c-13.979,11.361-44.328-15.322-57.267-28.012
									C291.254,149.116,231.578,27.935,256.254,7.904l6.468-5.248c-6.684,5.426-7.457,19.001-2.046,39.224
									c5.163,19.302,14.895,41.143,26.973,63.116c35.222,64.077,91.627,128.927,121.556,134.522
									C414.199,240.453,418.387,239.958,421.69,237.296L421.69,237.296z"/>
							</g>
						</g>
					</g>
					<g>
						<g>
							<path fill="#FFFFFF" d="M409.693,160.706c-1.539,0.225-3.471,0.501-5.059,0.71c5.302,11.788,9.552,23.205,12.384,33.791
								c12.09,45.187-10.037,49.176-50.456,9.543C298.28,137.785,241.403,14.127,272.915,8.168
								c25.736-4.864,91.389,71.749,125.965,141.123c1.599-0.212,3.505-0.485,5.008-0.706
								c-20.141-40.277-51.023-85.674-83.902-117.919C297.812,8.92,279.354-1.877,268.016,0.268
								c-36.987,6.988,25.065,139.033,96.41,209.015c22.176,21.748,40.635,32.544,51.968,30.397
								C434.602,236.242,428.8,202.464,409.693,160.706z"/>
						</g>
					</g>
				</g>
			</g>
		</g>
		<g>
			<circle fill="#1F82BF" cx="336.129" cy="119.974" r="16.786"/>
		</g>
		<g>
			<path fill="#F0F1F2" d="M351.558,165.368c-36.999,49.049-78.609,85.34-95.254,71.928l6.467,5.249
				c13.979,11.361,44.328-15.322,57.267-28.012c14.533-14.253,28.709-31.37,41.775-49.293
				C360.877,165.282,353.403,165.303,351.558,165.368z"/>
		</g>
		<g>
			<g>
				<path fill="#F0F1F2" d="M398.926,149.285C361.876,74.816,289.363-6.716,268.744,10.059l-6.468,5.247
					c20.018-16.271,90.36,61.357,128.095,134.984c2.273-0.257,5.341-0.607,7.114-0.821
					C397.917,149.417,398.407,149.354,398.926,149.285z"/>
			</g>
			<g>
				<path fill="#F0F1F2" d="M417.019,195.207c-2.837-10.603-7.049-21.958-12.281-33.64c-1.604,0.229-3.33,0.468-4.582,0.619
					c-0.977,0.118-2.345,0.277-3.759,0.439c6.083,13.107,10.963,25.908,14.151,37.831c4.839,18.078,4.316,30.087-1.348,34.688
					l6.473-5.25C421.335,225.296,421.852,213.28,417.019,195.207z"/>
			</g>
		</g>
		<g>
			<path fill="#F0F1F2" d="M409.251,10.059c-14.03-11.415-52.08,22.685-86.64,69.105c0.22-0.01,0.427-0.017,0.62-0.021
				c2.8-0.066,7.964,0.147,9.619,0.221c33.594-43.826,69.484-74.939,82.871-64.058L409.251,10.059z"/>
		</g>
		<g>
			<g>
				<path fill="#FFFFFF" d="M295.606,110.316c0.675,1.074,1.618,2.576,2.823,4.492c4.614-7.461,9.455-14.835,14.428-22.015
					c-2.334,0.177-4.954,0.438-6.225,0.57C302.825,98.974,299.138,104.639,295.606,110.316z"/>
			</g>
		</g>
		<g>
			<g>
				<path fill="#F0F1F2" d="M314.585,92.805c-0.521,0.013-1.152,0.044-1.839,0.088c-4.949,7.134-9.767,14.465-14.362,21.889
					c0.834,1.322,1.821,2.896,3.021,4.803c0.691,1.099,1.294,2.041,1.856,2.912c6.161-10.088,12.845-20.347,19.633-29.861
					C320.629,92.546,316.811,92.753,314.585,92.805z"/>
			</g>
		</g>
		<g>
			<g>
				<g>
					<path fill="#FFFFFF" d="M355.113,152.634c1.259-0.043,3.182-0.111,5.802-0.203c13.048-18.653,24.896-38.069,34.481-56.589
						c-2.042-0.252-3.98-0.462-5.441-0.613C380.407,113.902,368.499,133.709,355.113,152.634z"/>
				</g>
			</g>
			<g>
				<path fill="#FFFFFF" d="M409.977,0.268c-11.337-2.145-29.795,8.652-51.968,30.398c-14.559,14.279-28.724,31.138-41.738,48.988
					c2.018-0.192,4.597-0.417,6.364-0.492c31.28-42.098,65.504-74.197,82.446-70.994c15.664,2.962,9.484,35.009-9.079,74.718
					c1.612,0.174,3.546,0.396,5.49,0.65C422.15,39.85,428.806,3.826,409.977,0.268z"/>
			</g>
		</g>
		<g>
			<g>
				<g>
					<path fill="#F0F1F2" d="M398.129,96.187c-0.901-0.128-1.824-0.25-2.732-0.364c-9.876,19.061-21.848,38.469-34.646,56.614
						c1.163-0.04,2.422-0.085,3.875-0.135c2.851-0.1,5.036-0.212,6.685-0.314c12.377-18.216,23.441-37.048,32.406-54.902
						C401.713,96.74,399.725,96.414,398.129,96.187z"/>
				</g>
			</g>
			<g>
				<path fill="#F0F1F2" d="M421.741,7.904l-6.468-5.248c6.684,5.426,7.456,19.001,2.043,39.224
					c-3.472,12.978-8.941,27.111-15.823,41.657c0.597,0.078,1.195,0.158,1.785,0.243c1.796,0.255,4.089,0.636,6.341,1.029
					C426.553,47.917,433.124,17.145,421.741,7.904z"/>
			</g>
		</g>
		<g>
			<path fill="#FFFFFF" d="M290.976,127.268c-1.133-1.802-2.038-3.395-2.805-4.615c-4.968,8.521-9.564,16.992-13.712,25.252
				l5.019,0.669C283.018,141.514,286.874,134.38,290.976,127.268z"/>
		</g>
		<g>
			<path fill="#F0F1F2" d="M295.932,134.925c-0.969-1.426-2.381-3.562-4.336-6.671c-0.233-0.37-0.432-0.687-0.651-1.035
				c-4.107,7.117-7.969,14.264-11.515,21.35l8.498,1.132C290.46,144.783,293.136,139.848,295.932,134.925z"/>
		</g>
		<g>
			<g>
				<path fill="#FFFFFF" d="M345.545,165.677c-10.759,14.124-22.264,27.453-34.112,39.074
					c-40.419,39.632-62.547,35.644-50.456-9.543c2.87-10.732,7.201-22.318,12.608-34.279l-5.062-0.675
					c-19.259,41.957-25.186,75.979-6.921,79.426c11.333,2.147,29.792-8.649,51.967-30.397c13.14-12.888,25.96-27.885,37.908-43.813
					C348.854,165.562,346.902,165.629,345.545,165.677z"/>
			</g>
		</g>
		<g>
			<g>
				<path fill="#F0F1F2" d="M281.804,162.181l-8.321-1.109c-5.337,11.856-9.631,23.382-12.505,34.135
					c-4.833,18.073-4.317,30.089,1.345,34.687l6.473,5.25c-5.665-4.601-6.188-16.61-1.348-34.688
					C270.671,188.398,275.625,175.443,281.804,162.181z"/>
			</g>
		</g>
		<g>
			<g>
				<path fill="#245F7C" d="M322.992,130.403c3.085,3.87,7.842,6.354,13.192,6.357c9.275-0.007,16.782-7.516,16.762-16.787
					c0-1.671-0.263-3.282-0.716-4.807C349.452,127.603,334.941,133.345,322.992,130.403z"/>
			</g>
		</g>
		<g opacity="0.5">
			<path fill="#A8DBEF" d="M338.715,106.958c0.208,0.907-4.135,0.618-7.415,2.718c-3.705,2.371-6.425,7.046-6.659,6.021
				c-0.442-1.931,1.357-6.835,5.484-9.087C333.657,104.683,338.274,105.026,338.715,106.958z"/>
		</g>
	</g>
	<g>
		<g enable-background="new    ">
			<g>
				<path fill="#B22E00" d="M329.996,282.121l-38.022,0.001l-0.021,7.061l38.022-0.002c4.786,0,8.65-2.245,8.635-5.017l0.018-7.061
					C338.646,279.874,334.78,282.121,329.996,282.121z"/>
			</g>
			<g>
				<g>
					<polygon fill="#802100" points="274.834,304.118 274.813,311.179 274.588,284.173 274.608,277.111 					"/>
				</g>
			</g>
			<g>
				<g enable-background="new    ">
					<g>
						<path fill="#B22E00" d="M292.159,304.102l-0.021,7.061c0.021,2.771-3.837,5.022-8.62,5.025
							c-2.398,0.003-4.571-0.56-6.147-1.47c-1.569-0.905-2.545-2.156-2.558-3.539l0.021-7.061c0.013,1.383,0.988,2.633,2.557,3.539
							c1.576,0.91,3.749,1.473,6.147,1.469C288.321,309.124,292.18,306.873,292.159,304.102L292.159,304.102z"/>
					</g>
				</g>
			</g>
			<g>
				<g>
					<path fill="#FF4200" d="M336.073,273.555c1.572,0.908,2.55,2.163,2.555,3.548c0.018,2.771-3.848,5.018-8.632,5.018
						l-38.022,0.001l0.186,21.98c0.021,2.771-3.838,5.022-8.621,5.024c-2.398,0.003-4.571-0.559-6.147-1.469
						c-1.569-0.906-2.544-2.156-2.557-3.539l-0.226-27.007c-0.013-1.331,0.892-2.611,2.512-3.552
						c1.619-0.944,3.821-1.474,6.122-1.474h46.698C332.331,272.086,334.501,272.647,336.073,273.555z"/>
				</g>
			</g>
		</g>
		<g enable-background="new    ">
			<g>
				<path fill="#B22E00" d="M380.64,306.628l-75.518,16.125c-3.541,0.756-7.374,0.194-9.89-1.26
					c-0.935-0.539-1.686-1.201-2.177-1.963c-0.402-0.628-0.592-1.271-0.59-1.903l-0.02,7.062c-0.001,0.631,0.188,1.274,0.591,1.902
					c0.491,0.763,1.24,1.424,2.175,1.965c2.517,1.452,6.35,2.014,9.892,1.258l75.516-16.125c3.775-0.806,6.112-2.873,6.117-5.076
					l0.021-7.062C386.751,303.755,384.414,305.822,380.64,306.628z"/>
			</g>
			<g>
				<g>
					<path fill="#FF4200" d="M383.99,297.686c0.935,0.539,1.687,1.201,2.177,1.964c1.807,2.816-0.67,5.941-5.527,6.978
						l-75.518,16.125c-3.541,0.756-7.374,0.194-9.89-1.26c-0.935-0.539-1.686-1.201-2.177-1.963
						c-1.805-2.816,0.668-5.941,5.525-6.979l75.519-16.125C377.64,295.67,381.474,296.232,383.99,297.686z"/>
				</g>
			</g>
		</g>
		<g enable-background="new    ">
			<g>
				<g>
					<polygon fill="#802100" points="387.188,337.094 387.168,344.154 387.045,322.13 387.065,315.069 					"/>
				</g>
			</g>
			<g>
				<path fill="#B22E00" d="M402.017,345.669c-1.62,0.942-3.825,1.471-6.124,1.467l-46.624-0.043
					c-2.387-0.002-4.549-0.564-6.118-1.469c-1.575-0.91-2.554-2.168-2.557-3.557l-0.021,7.062c0.004,1.389,0.983,2.645,2.559,3.555
					c1.569,0.906,3.731,1.467,6.118,1.471l46.624,0.042c2.299,0.004,4.503-0.524,6.127-1.467c1.621-0.94,2.527-2.218,2.521-3.55
					l0.02-7.062C404.549,343.45,403.641,344.728,402.017,345.669z"/>
			</g>
			<g>
				<g>
					<path fill="#FF4200" d="M401.832,311.521c1.572,0.908,2.549,2.163,2.557,3.549l0.152,27.049c0.008,1.332-0.9,2.609-2.524,3.551
						c-1.62,0.942-3.825,1.471-6.124,1.467l-46.624-0.043c-2.387-0.002-4.549-0.564-6.118-1.469
						c-1.575-0.91-2.554-2.168-2.557-3.557c-0.011-2.771,3.862-5.013,8.646-5.01l37.948,0.036l-0.122-22.024
						c-0.016-2.771,3.848-5.017,8.635-5.017C398.091,310.052,400.258,310.613,401.832,311.521z"/>
				</g>
			</g>
		</g>
	</g>
	<g opacity="0.2">
		<g>
			<path d="M305.722,533.883c4.785,0,8.649-2.245,8.636-5.017l0.017-7.062c-0.005-1.385-0.982-2.64-2.555-3.547
				c-1.572-0.909-3.743-1.47-6.133-1.47h-46.698c-2.301,0-4.502,0.529-6.122,1.474c-1.62,0.939-2.525,2.221-2.511,3.551l-0.02,7.062
				l0.226,27.007c0.013,1.382,0.989,2.633,2.557,3.539c1.577,0.909,3.75,1.473,6.147,1.469c4.784-0.002,8.643-2.253,8.621-5.024
				l0.02-7.06l-0.125-14.92L305.722,533.883z"/>
		</g>
		<g>
			<path d="M358.604,553.979l0.021-7.061c0,0.026-0.01,0.051-0.01,0.079c0.019-0.657-0.162-1.328-0.58-1.98
				c-0.492-0.764-1.244-1.426-2.178-1.965c-2.517-1.452-6.351-2.016-9.891-1.258l-75.519,16.124
				c-3.869,0.827-6.216,2.979-6.102,5.243c-0.003-0.056-0.012-0.112-0.012-0.169l-0.021,7.062c-0.002,0.631,0.188,1.275,0.59,1.902
				c0.492,0.764,1.242,1.425,2.175,1.965c2.517,1.453,6.35,2.014,9.892,1.258l75.516-16.124
				C356.262,558.251,358.598,556.185,358.604,553.979z"/>
		</g>
		<g>
			<path d="M403.986,556.114c-0.007-1.386-0.983-2.641-2.557-3.549c-1.573-0.909-3.741-1.471-6.132-1.469
				c-4.787,0-8.65,2.244-8.635,5.018l-0.02,7.061l0.082,14.963l-37.889-0.036c-4.783-0.003-8.656,2.239-8.646,5.01l-0.021,7.061
				c0.004,1.389,0.983,2.646,2.559,3.557c1.569,0.905,3.731,1.467,6.118,1.469l46.625,0.044c2.297,0.003,4.502-0.525,6.126-1.468
				c1.622-0.94,2.528-2.217,2.521-3.55l0.02-7.062L403.986,556.114z"/>
		</g>
	</g>
	<g>
		<g enable-background="new    ">
			<g>
				<path fill="#B28100" d="M316.197,521.72l-30.85-22.226l-4.145,5.718l30.85,22.225c3.883,2.797,8.33,3.235,9.939,0.979
					l4.143-5.719C324.528,524.954,320.079,524.517,316.197,521.72z"/>
			</g>
			<g>
				<g>
					<polygon fill="#805D00" points="258.582,507.322 254.439,513.039 270.043,490.996 274.187,485.278 					"/>
				</g>
			</g>
			<g>
				<g enable-background="new    ">
					<g>
						<path fill="#B28100" d="M272.648,517.438l-4.144,5.716c-1.603,2.261-6.05,1.833-9.932-0.962
							c-1.948-1.398-3.382-3.126-4.128-4.786c-0.744-1.651-0.803-3.236-0.006-4.366l4.143-5.717
							c-0.797,1.129-0.737,2.715,0.006,4.366c0.747,1.66,2.182,3.387,4.128,4.786C266.6,519.267,271.046,519.697,272.648,517.438
							L272.648,517.438z"/>
					</g>
				</g>
			</g>
			<g>
				<g>
					<path fill="#FFB900" d="M326.135,518.323c0.745,1.657,0.804,3.247,0,4.373c-1.606,2.258-6.056,1.82-9.938-0.977l-30.85-22.226
						l-12.699,17.943c-1.603,2.26-6.049,1.829-9.932-0.963c-1.947-1.399-3.381-3.126-4.128-4.786
						c-0.743-1.651-0.803-3.237-0.006-4.366l15.604-22.044c0.768-1.086,2.25-1.598,4.115-1.413c1.865,0.18,3.961,1.037,5.828,2.383
						l37.888,27.297C323.958,514.943,325.39,516.668,326.135,518.323z"/>
				</g>
			</g>
		</g>
		<g enable-background="new    ">
			<g>
				<path fill="#B28100" d="M352.497,547.671l-75.518,16.126c-3.542,0.755-7.374,0.194-9.89-1.26
					c-0.935-0.539-1.685-1.202-2.176-1.964c-0.402-0.628-0.592-1.272-0.59-1.902l-0.02,7.061c-0.002,0.632,0.187,1.274,0.59,1.903
					c0.491,0.762,1.241,1.424,2.176,1.964c2.516,1.453,6.349,2.015,9.891,1.259l75.517-16.125c3.774-0.806,6.111-2.872,6.116-5.076
					l0.021-7.061C358.608,544.798,356.271,546.865,352.497,547.671z"/>
			</g>
			<g>
				<g>
					<path fill="#FFB900" d="M355.848,538.729c0.935,0.54,1.686,1.202,2.177,1.964c1.806,2.816-0.67,5.941-5.527,6.979
						l-75.518,16.126c-3.542,0.755-7.374,0.194-9.89-1.26c-0.935-0.539-1.685-1.202-2.176-1.964
						c-1.805-2.817,0.668-5.94,5.525-6.979l75.519-16.124C349.498,536.713,353.332,537.275,355.848,538.729z"/>
				</g>
			</g>
		</g>
		<g enable-background="new    ">
			<g>
				<g>
					<polygon fill="#805D00" points="387.989,561.345 389.293,568.283 385.045,546.673 383.74,539.732 					"/>
				</g>
			</g>
			<g>
				<path fill="#B28100" d="M404.162,566.987c-1.415,1.229-3.483,2.161-5.739,2.59l-45.808,8.695
					c-2.345,0.444-4.574,0.299-6.285-0.297c-1.717-0.597-2.914-1.649-3.178-3.013l1.303,6.94c0.265,1.362,1.461,2.413,3.18,3.013
					c1.712,0.595,3.939,0.741,6.285,0.297l45.806-8.697c2.259-0.427,4.324-1.36,5.743-2.589c1.416-1.228,2.067-2.652,1.812-3.959
					l-1.304-6.941C406.232,564.336,405.581,565.76,404.162,566.987z"/>
			</g>
			<g>
				<g>
					<path fill="#FFB900" d="M397.581,533.479c1.715,0.599,2.908,1.646,3.176,3.007l5.22,26.54c0.256,1.31-0.396,2.733-1.814,3.961
						c-1.415,1.229-3.483,2.161-5.739,2.59l-45.808,8.695c-2.345,0.444-4.574,0.299-6.285-0.297
						c-1.717-0.597-2.914-1.649-3.178-3.013c-0.529-2.72,2.855-5.647,7.554-6.542l37.283-7.076l-4.249-21.612
						c-0.535-2.719,2.84-5.648,7.542-6.546C393.63,532.737,395.864,532.883,397.581,533.479z"/>
				</g>
			</g>
		</g>
	</g>
	<g>
		<g>
			<path fill="#F7CBAD" d="M550.726,248.824c0,0-1.554,21.313-5.326,34.894c-2.5,9-15.25,35.75-15.25,35.75s-3.5,8.25-0.25,15.75
				c1.385,3.195,4.378,2.205,5.75-6.5c0.718-4.556,3-10.75,3-10.75s13.068-17.385,18.867-34.482
				c4.905-14.465,8.797-31.775,8.797-31.775s-2.252-15.739-10.413-12.277C553.638,240.393,551.785,244.287,550.726,248.824z"/>
		</g>
		<g>
			<path fill="#4F9967" d="M567.692,251.964c0.206,4.156,0.877,9.091-1.639,18.245c-6.922,2.153-16.183,4.009-19.564,1.81
				c1.566-7.016,2.685-20.65,2.777-22.071c0.201-0.721-0.001-9.235,6.413-11.065C564.827,236.277,567.476,247.531,567.692,251.964z"
				/>
		</g>
		<g>
			<path fill="#F7CBAD" d="M534.695,323.925c1.797-3.477,5.812-7.759,4.792-10.661c-1.025-2.892-4.092-4.466-4.092-4.466
				L534.695,323.925z"/>
		</g>
	</g>
	<g>
		<path fill="#F7CBAD" d="M541.72,324.208c0,0-3.983,3.749-9.376,8.906c-3.056,2.922-1.672,7.314-1.171,9.141
			c0.499,1.822,6.094,3.984,6.094,3.984s1.875-0.469,1.641-2.109c-0.187-1.312-0.051-2.6-0.051-2.6s0.36-1.466,2.304-5.219
			c1.437-2.781,4.651-6.208,3.834-8.531C544.174,325.467,541.72,324.208,541.72,324.208z"/>
	</g>
	<g>
		<g>
			<defs>
				<path id="SVGID_1_" d="M549.649,286.968c2.217-22.976,1.293-43.975,10.25-52.5c1.562-1.487,2.865-1.502,4.75-2
					c0.787-0.208,2.498-0.112,3.929-0.562c1.992-0.629,4.176-1.13,5.1-1.388c0.892-0.35,2.083,0.079,2.083,0.079
					c14.402,6.322,19.998,26.553,20.976,41.896c0.722,11.353,4.43,90.822,26.978,109.787c-2.218,10.892-15.925,15.8-27.57,12.887
					c-9.023-2.261-16.664-8.112-25.411-3.58c-46.885,14.316-48.917-33.163-71.823-37.46
					C519.905,345.536,546.899,315.468,549.649,286.968z"/>
			</defs>
			<use xlink:href="#SVGID_1_"  overflow="visible" fill="#1E647C"/>
			<clipPath id="SVGID_2_">
				<use xlink:href="#SVGID_1_"  overflow="visible"/>
			</clipPath>
			<g opacity="0.35" clip-path="url(#SVGID_2_)">
				<polygon fill="#FFFFFF" points="589.983,285.134 590.064,279.09 591.926,284.735 598.077,282.667 592.852,286.042 
					596.734,290.324 591.472,287.058 588.157,291.352 589.803,286.549 583.814,285.461 				"/>
			</g>
			<g opacity="0.35" clip-path="url(#SVGID_2_)">
				<polygon fill="#FFFFFF" points="558.035,295.103 566.356,291.432 560.074,297.714 566.185,302.744 559.15,300.134 
					557.138,306.443 556.368,299.03 541.258,300.188 556.158,296.245 553.794,289.066 				"/>
			</g>
			<g opacity="0.35" clip-path="url(#SVGID_2_)">
				<polygon fill="#FFFFFF" points="603.319,370.03 612.151,366.134 605.483,372.802 611.969,378.141 604.502,375.371 
					602.366,382.067 601.549,374.199 585.511,375.429 601.327,371.243 598.816,363.623 				"/>
			</g>
			<g opacity="0.35" clip-path="url(#SVGID_2_)">
				<polygon fill="#FFFFFF" points="521.355,348.962 520.075,336.99 524.102,348.27 533.831,343.361 525.215,350.287 
					532.324,358.305 523.413,352.85 516.238,361.658 520.927,352.126 514.162,350.217 				"/>
			</g>
			<g opacity="0.35" clip-path="url(#SVGID_2_)">
				<polygon fill="#FFFFFF" points="588.433,244.42 587.42,234.955 590.604,243.873 598.296,239.992 591.483,245.468 
					597.104,251.807 590.06,247.494 584.387,254.458 588.094,246.922 582.745,245.412 				"/>
			</g>
			<g opacity="0.35" clip-path="url(#SVGID_2_)">
				<polygon fill="#FFFFFF" points="572.582,340.605 571.321,328.829 575.282,339.925 584.854,335.097 576.378,341.909 
					583.372,349.797 574.605,344.431 567.548,353.095 572.16,343.719 565.505,341.84 				"/>
			</g>
			<g opacity="0.35" clip-path="url(#SVGID_2_)">
				<path fill="#FFFFFF" d="M574.082,260.367l-4.918-3.242l3.737-9.186l-5.233,8.162l-5.294-1.537l4.479,3.025l-3.606,8.119
					l5.199-7.364l3.766,1.393L574.082,260.367z"/>
			</g>
			<g opacity="0.35" clip-path="url(#SVGID_2_)">
				<path fill="#FFFFFF" d="M588.777,306.074l-3.386,1.601l-3.757-5.065l2.706,5.54l-2.584,2.37l3.123-1.435l3.221,4.641
					l-2.284-5.257l2.001-1.586L588.777,306.074z"/>
			</g>
			<g opacity="0.35" clip-path="url(#SVGID_2_)">
				<path fill="#FFFFFF" d="M563.782,367.334l-4.298,4.029l-8.064-5.771l6.722,6.988l-2.726,4.791l3.983-3.653l7.058,5.396
					l-5.954-6.769l2.23-3.339L563.782,367.334z"/>
			</g>
			<g opacity="0.35" clip-path="url(#SVGID_2_)">
				<path fill="#FFFFFF" d="M542.516,323.767l-2.973-1.4l1.337-5.368l-2.243,4.922l-3.045-0.43l2.713,1.315l-1.349,4.768
					l2.287-4.478l2.189,0.471L542.516,323.767z"/>
			</g>
		</g>
	</g>
	<g>
		<circle fill="#1F82BF" cx="254.858" cy="208.869" r="3.577"/>
	</g>
	<g>
		<path fill="#EF4343" d="M181.852,279.078c-0.366,0-0.73-0.145-1-0.431c-0.25-0.266-0.374-0.604-0.374-0.942
			c0-0.366,0.145-0.73,0.431-1.001l71.048-66.986c0.552-0.521,1.422-0.495,1.943,0.057c0.25,0.266,0.374,0.604,0.374,0.942
			c0,0.366-0.145,0.73-0.431,1.001l-71.048,66.986C182.528,278.954,182.189,279.078,181.852,279.078z"/>
	</g>
	<g>
		<path fill="#F7CBAD" d="M178.222,275.425c0,0,2.018-4.538,4.887-6.772c1.677-1.302,6.781-4.899,8.105-2.932
			c1.326,1.972-4.944,3.794-4.944,3.794s0.618-0.168,2.68-0.782c5.935-1.835,6.409-3.311,7.551,0.15
			c0.848,2.58-1.138,6.762-7.314,9.134c-6.174,2.371-9.196,1.412-9.196,1.412L178.222,275.425z"/>
	</g>
	<g>
		<path fill="#F7CBAD" d="M515.311,253.42c0,0-2.017-4.538-4.886-6.771c-1.678-1.303-6.782-4.9-8.105-2.932
			c-1.326,1.972,4.943,3.794,4.943,3.794s-0.618-0.168-2.681-0.783c-5.936-1.835-6.409-3.31-7.55,0.15
			c-0.849,2.579,1.138,6.761,7.313,9.134c6.174,2.371,9.196,1.412,9.196,1.412L515.311,253.42z"/>
	</g>
	<g>
		<circle fill="#1F82BF" cx="439.867" cy="186.869" r="3.578"/>
	</g>
	<g opacity="0.5">
		<ellipse fill="#F0FAFF" cx="437.274" cy="187.093" rx="0.869" ry="0.764"/>
	</g>
	<g>
		<g>
			<path fill="#94FFEA" d="M443.061,180.01c-0.146,0-0.292-0.021-0.438-0.065c-0.792-0.242-1.239-1.08-0.997-1.872l1.656-5.437
				c0.241-0.793,1.078-1.24,1.872-0.998c0.792,0.242,1.239,1.08,0.997,1.872l-1.656,5.437
				C444.298,179.593,443.703,180.01,443.061,180.01z"/>
		</g>
		<g>
			<path fill="#94FFEA" d="M426.883,193.056c-0.67,0-1.279-0.452-1.452-1.13c-0.205-0.803,0.28-1.62,1.083-1.824l5.508-1.404
				c0.806-0.205,1.619,0.281,1.823,1.083c0.205,0.803-0.28,1.62-1.083,1.824l-5.508,1.404
				C427.13,193.041,427.005,193.056,426.883,193.056z"/>
		</g>
		<g>
			<path fill="#94FFEA" d="M432.277,181.351c-0.414,0-0.825-0.17-1.121-0.503l-3.777-4.245c-0.551-0.619-0.496-1.567,0.123-2.118
				c0.62-0.551,1.568-0.495,2.117,0.124l3.777,4.245c0.551,0.619,0.496,1.567-0.123,2.118
				C432.987,181.226,432.632,181.351,432.277,181.351z"/>
		</g>
	</g>
	<g>
		<path fill="#EF4343" d="M512.946,257.126c-0.339,0-0.678-0.124-0.943-0.375l-71.047-67.034c-0.287-0.271-0.432-0.636-0.432-1.001
			c0.001-0.338,0.125-0.677,0.375-0.942c0.522-0.552,1.392-0.576,1.943-0.057l71.047,67.034c0.287,0.271,0.432,0.636,0.432,1.001
			c-0.001,0.338-0.125,0.677-0.375,0.942C513.676,256.981,513.312,257.126,512.946,257.126z"/>
	</g>
	<g>
		<path fill="#F7CBAD" d="M496.846,247.99c0,0,1.641-6.112,5.474-4.273c3.832,1.84,6.93,12.035,6.93,12.035l-7.003-1.307
			l-3.337-5.777L496.846,247.99z"/>
	</g>
	<g>
		<g>
			<g>
				<path fill="#165D70" d="M576.948,184.004c4.877,3.316,9.887,6.223,21.625,13.578c13.403,8.398,17.576,23.886,2.076,30.386
					c-6.466,2.711-35.529,7.309-58-23c-13.825-18.648-5.909-40.886,11.258-34.719C563.907,174.249,568.91,178.538,576.948,184.004z"
					/>
			</g>
		</g>
		<g>
			<path fill="#1E647C" d="M608.907,177.582c-3.5-11.667-8.5-17.167-8.5-17.167c-6.834-3.333-17.033-0.014-20.02,4.005
				c-10.545,14.191-20.606,26.042-20.914,26.55c-1.357,2.25-0.9,5.309,1.648,8.395c4.4,5.333,13.369,8.729,20.035,7.587
				c4.783-0.821,7.077-3.755,6.365-7.318c-0.002,0,1.218-12.885,4.385-20.385c3-6,4.666-5.667,4.666-5.667s1.667,2.167,2.5,1.5
				c1.572-1.258,16.105,23.516,14.5,22.834C613.573,197.916,611.753,187.071,608.907,177.582z"/>
		</g>
		<g>
			<path fill="#A0611C" d="M575.322,187.304C575.456,187.387,575.067,187.199,575.322,187.304L575.322,187.304z"/>
		</g>
	</g>
	<g>
		<path fill="#0C4A5B" d="M561.478,188.495c0.957,2.675,2.893,6.131,6.763,8.086c9.653,4.876,15.917,3.691,19.399,1.945
			c-0.079,0.7-0.117,1.106-0.117,1.106c0.712,3.563-1.582,6.498-6.365,7.318c-6.666,1.142-15.635-2.254-20.035-7.587
			c-2.549-3.086-3.006-6.144-1.648-8.395C559.552,190.84,560.274,189.962,561.478,188.495z"/>
	</g>
	<g opacity="0.3">
		<path fill="#454C60" d="M573.899,324.208c0,0-4.228,66.166-8.572,68.77c-4.344,2.604-22.274,1.49-30.438-4.775
			C567.021,392.688,573.899,324.208,573.899,324.208z"/>
	</g>
	<g opacity="0.3">
		<path fill="#454C60" d="M592.336,331.03c0,0-0.536,61.531,3.808,64.135s21.339,1.15,26.727-10.152
			C592.038,368.048,592.336,331.03,592.336,331.03z"/>
	</g>
	<g opacity="0.5">
		<ellipse fill="#F0FAFF" cx="253.871" cy="207.075" rx="0.869" ry="0.764"/>
	</g>
	<g>
		<g>
			<path fill="#94FFEA" d="M251.664,202.01c-0.643,0-1.237-0.417-1.435-1.063l-1.655-5.437c-0.241-0.792,0.206-1.631,0.998-1.872
				c0.793-0.241,1.63,0.206,1.872,0.998l1.655,5.437c0.241,0.792-0.206,1.631-0.998,1.872
				C251.956,201.989,251.809,202.01,251.664,202.01z"/>
		</g>
		<g>
			<path fill="#94FFEA" d="M267.841,215.056c-0.123,0-0.247-0.015-0.372-0.047l-5.507-1.404c-0.803-0.205-1.288-1.021-1.083-1.824
				c0.205-0.802,1.019-1.289,1.824-1.083l5.507,1.404c0.803,0.205,1.288,1.021,1.083,1.824
				C269.121,214.604,268.511,215.056,267.841,215.056z"/>
		</g>
		<g>
			<path fill="#94FFEA" d="M262.447,203.351c-0.355,0-0.711-0.125-0.997-0.379c-0.619-0.551-0.674-1.499-0.123-2.118l3.778-4.245
				c0.551-0.618,1.5-0.673,2.118-0.123c0.619,0.551,0.674,1.499,0.123,2.118l-3.778,4.245
				C263.272,203.181,262.86,203.351,262.447,203.351z"/>
		</g>
	</g>
	<g>
		<g enable-background="new    ">
			<g>
				<path fill="#70D5E5" d="M222.925,35.854l-4.447-8.747l-1.627,0.821l4.448,8.747c0.56,1.101,1.528,1.728,2.164,1.4l1.627-0.822
					C224.454,37.581,223.485,36.954,222.925,35.854z"/>
			</g>
			<g>
				<g>
					<polygon fill="#802100" points="211.413,25.737 209.786,26.558 215.972,23.348 217.6,22.526 					"/>
				</g>
			</g>
			<g>
				<g enable-background="new    ">
					<g>
						<path fill="#70D5E5" d="M213.443,29.72l-1.626,0.821c-0.635,0.329-1.604-0.295-2.165-1.395
							c-0.28-0.552-0.405-1.117-0.381-1.586c0.024-0.466,0.199-0.837,0.515-1.002l1.627-0.821c-0.317,0.165-0.491,0.535-0.516,1.002
							c-0.024,0.469,0.1,1.035,0.381,1.586C211.839,29.425,212.808,30.05,213.443,29.72L213.443,29.72z"/>
					</g>
				</g>
			</g>
			<g>
				<g>
					<path fill="#A3E1EF" d="M225.606,36.25c-0.025,0.468-0.2,0.84-0.517,1.003c-0.636,0.328-1.604-0.298-2.164-1.399l-4.447-8.747
						l-5.035,2.613c-0.635,0.33-1.604-0.295-2.164-1.395c-0.281-0.552-0.406-1.117-0.381-1.586c0.025-0.467,0.199-0.837,0.516-1.002
						l6.187-3.211c0.305-0.158,0.705-0.1,1.11,0.163c0.407,0.262,0.786,0.707,1.055,1.236l5.462,10.743
						C225.507,35.217,225.631,35.782,225.606,36.25z"/>
				</g>
			</g>
		</g>
		<g enable-background="new    ">
			<g>
				<g>
					<polygon fill="#802100" points="501.877,145.368 499.603,144.602 506.719,146.933 508.995,147.699 					"/>
				</g>
			</g>
			<g>
				<path fill="#70D5E5" d="M497.515,149.227c-0.13-0.624-0.062-1.392,0.187-2.131l5.034-15.034c0.258-0.77,0.672-1.407,1.133-1.815
					c0.463-0.41,0.974-0.591,1.423-0.442l-2.276-0.768c-0.448-0.148-0.958,0.033-1.422,0.443c-0.461,0.408-0.874,1.045-1.133,1.815
					l-5.034,15.033c-0.249,0.74-0.315,1.509-0.187,2.136c0.129,0.623,0.443,1.052,0.873,1.193l2.275,0.767
					C497.958,150.284,497.644,149.853,497.515,149.227z"/>
			</g>
			<g>
				<g>
					<path fill="#A3E1EF" d="M508.549,152.844c-0.463,0.41-0.973,0.59-1.42,0.444l-8.741-2.865c-0.43-0.14-0.744-0.571-0.873-1.197
						c-0.13-0.624-0.062-1.392,0.187-2.131l5.034-15.034c0.258-0.77,0.672-1.407,1.133-1.815c0.463-0.41,0.974-0.591,1.423-0.442
						c0.895,0.295,1.2,1.785,0.685,3.326l-4.099,12.237l7.118,2.331c0.895,0.295,1.202,1.782,0.688,3.327
						C509.425,151.796,509.011,152.435,508.549,152.844z"/>
				</g>
			</g>
		</g>
		<g enable-background="new    ">
			<g>
				<g>
					<polygon fill="#802100" points="156.99,57.567 156.984,59.492 156.951,53.486 156.956,51.561 					"/>
				</g>
			</g>
			<g>
				<path fill="#70D5E5" d="M161.034,59.905c-0.442,0.256-1.043,0.4-1.67,0.399l-12.713-0.011c-0.65-0.001-1.24-0.154-1.668-0.401
					c-0.43-0.249-0.697-0.591-0.697-0.97l-0.006,1.925c0.001,0.379,0.268,0.721,0.698,0.969c0.427,0.248,1.017,0.4,1.668,0.401
					l12.713,0.011c0.626,0.001,1.227-0.143,1.67-0.4c0.442-0.256,0.689-0.604,0.687-0.967l0.006-1.926
					C161.724,59.3,161.476,59.648,161.034,59.905z"/>
			</g>
			<g>
				<g>
					<path fill="#A3E1EF" d="M160.983,50.593c0.429,0.248,0.695,0.59,0.697,0.968l0.042,7.375c0.002,0.363-0.246,0.711-0.688,0.969
						c-0.442,0.256-1.043,0.4-1.67,0.399l-12.713-0.011c-0.65-0.001-1.24-0.154-1.668-0.401c-0.43-0.249-0.697-0.591-0.697-0.97
						c-0.003-0.755,1.053-1.367,2.357-1.366l10.348,0.01l-0.034-6.006c-0.004-0.756,1.05-1.368,2.355-1.368
						C159.963,50.193,160.554,50.346,160.983,50.593z"/>
				</g>
			</g>
		</g>
		<g enable-background="new    ">
			<g>
				<g>
					<polygon fill="#802100" points="125.816,113.134 125.81,115.059 125.777,109.054 125.782,107.129 					"/>
				</g>
			</g>
			<g>
				<path fill="#70D5E5" d="M129.86,115.472c-0.442,0.257-1.044,0.401-1.67,0.4l-12.713-0.011c-0.65-0.001-1.24-0.154-1.668-0.401
					c-0.429-0.248-0.696-0.591-0.697-0.97l-0.006,1.926c0.002,0.378,0.269,0.721,0.698,0.969c0.428,0.247,1.017,0.4,1.668,0.4
					l12.714,0.012c0.626,0.001,1.226-0.143,1.669-0.4c0.442-0.257,0.689-0.604,0.688-0.968l0.005-1.925
					C130.55,114.867,130.301,115.216,129.86,115.472z"/>
			</g>
			<g>
				<g>
					<path fill="#A3E1EF" d="M129.808,106.161c0.43,0.248,0.695,0.59,0.698,0.968l0.041,7.375c0.002,0.363-0.247,0.711-0.688,0.968
						c-0.442,0.257-1.044,0.401-1.67,0.4l-12.713-0.011c-0.65-0.001-1.24-0.154-1.668-0.401c-0.429-0.248-0.696-0.591-0.697-0.97
						c-0.002-0.755,1.053-1.367,2.357-1.366l10.348,0.01l-0.034-6.005c-0.004-0.756,1.05-1.368,2.355-1.368
						C128.789,105.761,129.38,105.914,129.808,106.161z"/>
				</g>
			</g>
		</g>
		<g enable-background="new    ">
			<g>
				<g>
					<polygon fill="#802100" points="202.517,163.609 201.447,165.082 204.743,160.458 205.812,158.985 					"/>
				</g>
			</g>
			<g>
				<path fill="#70D5E5" d="M204.324,167.638c-0.481-0.047-1.022-0.27-1.501-0.617l-9.743-7.04c-0.498-0.36-0.866-0.804-1.057-1.229
					c-0.192-0.428-0.207-0.838,0.001-1.129l-1.069,1.473c-0.209,0.291-0.194,0.701-0.001,1.129c0.191,0.426,0.558,0.87,1.056,1.23
					l9.743,7.039c0.48,0.348,1.02,0.569,1.502,0.618c0.48,0.048,0.862-0.083,1.062-0.362l1.07-1.473
					C205.188,167.556,204.804,167.686,204.324,167.638z"/>
			</g>
			<g>
				<g>
					<path fill="#A3E1EF" d="M209.435,160.47c0.191,0.428,0.206,0.837-0.001,1.128l-4.047,5.678
						c-0.199,0.28-0.583,0.409-1.063,0.361c-0.481-0.047-1.022-0.27-1.501-0.617l-9.743-7.04c-0.498-0.36-0.866-0.804-1.057-1.229
						c-0.192-0.428-0.207-0.838,0.001-1.129c0.416-0.581,1.564-0.466,2.563,0.255l7.929,5.732l3.295-4.625
						c0.415-0.582,1.562-0.468,2.562,0.254C208.874,159.599,209.242,160.044,209.435,160.47z"/>
				</g>
			</g>
		</g>
		<g enable-background="new    ">
			<g>
				<path fill="#70D5E5" d="M500.981,92.99l4.737,20.082c0.222,0.942-0.007,1.944-0.524,2.587c-0.194,0.239-0.426,0.428-0.69,0.548
					c-0.217,0.099-0.438,0.14-0.651,0.13l2.399,0.095c0.214,0.009,0.435-0.032,0.651-0.13c0.264-0.12,0.497-0.308,0.689-0.548
					c0.519-0.644,0.747-1.646,0.525-2.587l-4.738-20.082c-0.236-1.004-0.915-1.646-1.663-1.676l-2.399-0.094
					C500.066,91.344,500.744,91.986,500.981,92.99z"/>
			</g>
			<g>
				<g>
					<path fill="#A3E1EF" d="M497.977,91.994c0.191-0.239,0.424-0.429,0.688-0.547c0.977-0.44,2.013,0.251,2.317,1.543l4.737,20.082
						c0.222,0.942-0.007,1.944-0.524,2.587c-0.194,0.239-0.426,0.428-0.69,0.548c-0.975,0.439-2.011-0.251-2.315-1.543
						l-4.736-20.083C497.229,93.641,497.456,92.639,497.977,91.994z"/>
				</g>
			</g>
		</g>
		<g enable-background="new    ">
			<g>
				<path fill="#70D5E5" d="M481.063,40.165l-5.86-11.525l-2.144,1.082l5.861,11.524c0.736,1.451,2.014,2.276,2.85,1.845
					l2.143-1.083C483.077,42.441,481.801,41.615,481.063,40.165z"/>
			</g>
			<g>
				<g>
					<polygon fill="#802100" points="465.895,26.835 463.751,27.917 471.901,23.688 474.046,22.605 					"/>
				</g>
			</g>
			<g>
				<g enable-background="new    ">
					<g>
						<path fill="#70D5E5" d="M468.569,32.083l-2.144,1.083c-0.837,0.433-2.113-0.389-2.852-1.838
							c-0.37-0.727-0.534-1.472-0.502-2.089c0.032-0.615,0.262-1.104,0.679-1.321l2.144-1.083c-0.417,0.217-0.646,0.706-0.679,1.321
							c-0.033,0.618,0.131,1.363,0.502,2.089C466.456,31.695,467.733,32.518,468.569,32.083L468.569,32.083z"/>
					</g>
				</g>
			</g>
			<g>
				<g>
					<path fill="#A3E1EF" d="M484.596,40.687c-0.032,0.617-0.263,1.106-0.683,1.322c-0.836,0.432-2.112-0.394-2.85-1.844
						l-5.86-11.525l-6.634,3.443c-0.836,0.435-2.113-0.389-2.852-1.838c-0.371-0.726-0.535-1.472-0.502-2.089
						c0.033-0.615,0.262-1.104,0.679-1.321l8.151-4.23c0.4-0.209,0.929-0.132,1.463,0.214c0.536,0.345,1.035,0.931,1.39,1.628
						l7.197,14.154C484.465,39.326,484.629,40.071,484.596,40.687z"/>
				</g>
			</g>
		</g>
		<g enable-background="new    ">
			<g>
				<path fill="#70D5E5" d="M517.112,197.228l4.382-12.164l-2.256-0.82l-4.383,12.164c-0.551,1.531-0.278,3.026,0.61,3.34
					l2.256,0.82C516.835,200.254,516.562,198.759,517.112,197.228z"/>
			</g>
			<g>
				<g>
					<polygon fill="#802100" points="516.434,177.046 514.176,176.226 522.84,179.266 525.099,180.086 					"/>
				</g>
			</g>
			<g>
				<g enable-background="new    ">
					<g>
						<path fill="#70D5E5" d="M514.441,182.591l-2.256-0.82c-0.89-0.313-1.165-1.807-0.615-3.337
							c0.276-0.768,0.706-1.397,1.179-1.797c0.471-0.398,0.983-0.565,1.427-0.41l2.258,0.82c-0.445-0.155-0.958,0.012-1.428,0.41
							c-0.474,0.399-0.903,1.03-1.179,1.797C513.276,180.783,513.553,182.278,514.441,182.591L514.441,182.591z"/>
					</g>
				</g>
			</g>
			<g>
				<g>
					<path fill="#A3E1EF" d="M519.152,200.16c-0.472,0.398-0.986,0.566-1.431,0.408c-0.887-0.313-1.16-1.809-0.609-3.34
						l4.382-12.164l-7.053-2.474c-0.889-0.312-1.165-1.808-0.614-3.337c0.275-0.768,0.705-1.398,1.179-1.797
						c0.47-0.397,0.982-0.565,1.428-0.41l8.665,3.04c0.428,0.149,0.732,0.586,0.847,1.213c0.115,0.627,0.03,1.392-0.234,2.128
						l-5.383,14.938C520.055,199.132,519.623,199.761,519.152,200.16z"/>
				</g>
			</g>
		</g>
		<g enable-background="new    ">
			<g>
				<g>
					<polygon fill="#802100" points="217.815,73.134 216.96,75.89 219.556,67.271 220.412,64.515 					"/>
				</g>
			</g>
			<g>
				<path fill="#70D5E5" d="M222.58,78.264c-0.746,0.174-1.671,0.116-2.568-0.162L201.8,72.488
					c-0.931-0.287-1.708-0.766-2.213-1.308c-0.506-0.545-0.738-1.152-0.572-1.696l-0.855,2.757c-0.166,0.543,0.067,1.15,0.572,1.695
					c0.505,0.543,1.282,1.021,2.214,1.31l18.209,5.613c0.897,0.278,1.822,0.335,2.57,0.163c0.747-0.173,1.253-0.563,1.411-1.084
					l0.855-2.756C223.835,77.702,223.327,78.091,222.58,78.264z"/>
			</g>
			<g>
				<g>
					<path fill="#A3E1EF" d="M226.607,64.901c0.505,0.543,0.736,1.151,0.572,1.693l-3.187,10.586
						c-0.157,0.521-0.666,0.911-1.413,1.083c-0.746,0.174-1.671,0.116-2.568-0.162L201.8,72.488
						c-0.931-0.287-1.708-0.766-2.213-1.308c-0.506-0.545-0.738-1.152-0.572-1.696c0.328-1.083,2.111-1.495,3.979-0.919
						l14.821,4.569l2.597-8.619c0.326-1.084,2.105-1.499,3.976-0.923C225.322,63.878,226.101,64.357,226.607,64.901z"/>
				</g>
			</g>
		</g>
		<g enable-background="new    ">
			<g>
				<g>
					<polygon fill="#802100" points="546,96.997 545.289,99.29 547.448,92.118 548.159,89.825 					"/>
				</g>
			</g>
			<g>
				<path fill="#70D5E5" d="M549.964,101.264c-0.621,0.145-1.391,0.097-2.138-0.134l-15.149-4.671
					c-0.775-0.239-1.422-0.637-1.843-1.088c-0.42-0.454-0.613-0.959-0.476-1.412l-0.711,2.293c-0.139,0.452,0.055,0.957,0.477,1.411
					c0.419,0.452,1.064,0.85,1.841,1.089l15.15,4.67c0.747,0.23,1.516,0.279,2.139,0.135c0.621-0.144,1.042-0.469,1.173-0.903
					l0.712-2.293C551.009,100.796,550.584,101.121,549.964,101.264z"/>
			</g>
			<g>
				<g>
					<path fill="#A3E1EF" d="M553.314,90.147c0.421,0.452,0.612,0.958,0.477,1.408l-2.652,8.807
						c-0.13,0.434-0.555,0.759-1.175,0.902c-0.621,0.145-1.391,0.097-2.138-0.134l-15.149-4.671
						c-0.775-0.239-1.422-0.637-1.843-1.088c-0.42-0.454-0.613-0.959-0.476-1.412c0.273-0.901,1.757-1.243,3.312-0.765L546,96.997
						l2.159-7.171c0.272-0.902,1.753-1.247,3.31-0.768C552.245,89.295,552.894,89.694,553.314,90.147z"/>
				</g>
			</g>
		</g>
		<g enable-background="new    ">
			<g>
				<g>
					<polygon fill="#802100" points="143.587,169.466 140.674,170.341 149.736,167.535 152.649,166.66 					"/>
				</g>
			</g>
			<g>
				<path fill="#70D5E5" d="M141.908,176.65c-0.591-0.549-1.085-1.393-1.371-2.34l-5.815-19.222
					c-0.297-0.984-0.336-1.945-0.16-2.705c0.179-0.764,0.574-1.324,1.146-1.499l-2.913,0.875c-0.573,0.176-0.967,0.736-1.146,1.499
					c-0.178,0.76-0.137,1.721,0.16,2.707l5.814,19.221c0.286,0.948,0.78,1.79,1.372,2.342c0.59,0.55,1.229,0.764,1.778,0.595
					l2.913-0.875C143.139,177.417,142.499,177.202,141.908,176.65z"/>
			</g>
			<g>
				<g>
					<path fill="#A3E1EF" d="M155.959,172.303c-0.178,0.761-0.573,1.32-1.144,1.498l-11.129,3.446
						c-0.548,0.169-1.188-0.045-1.779-0.597c-0.591-0.549-1.085-1.393-1.371-2.34l-5.815-19.222
						c-0.297-0.984-0.336-1.945-0.16-2.705c0.179-0.764,0.574-1.324,1.146-1.499c1.141-0.351,2.55,0.965,3.146,2.937l4.732,15.646
						l9.062-2.806c1.14-0.353,2.55,0.958,3.148,2.932C156.096,170.577,156.137,171.541,155.959,172.303z"/>
				</g>
			</g>
		</g>
		<g enable-background="new    ">
			<g>
				<path fill="#70D5E5" d="M165.419,83.291l-0.888,16.774c-0.041,0.787-0.485,1.491-1.091,1.838
					c-0.225,0.128-0.471,0.208-0.728,0.225c-0.211,0.013-0.411-0.018-0.593-0.085l2.041,0.756c0.182,0.068,0.382,0.099,0.593,0.085
					c0.257-0.017,0.502-0.095,0.728-0.225c0.605-0.347,1.05-1.051,1.091-1.837l0.888-16.775c0.044-0.838-0.381-1.524-1.019-1.761
					l-2.04-0.757C165.039,81.767,165.464,82.453,165.419,83.291z"/>
			</g>
			<g>
				<g>
					<path fill="#A3E1EF" d="M163.081,81.67c0.224-0.129,0.472-0.208,0.728-0.224c0.946-0.061,1.668,0.767,1.611,1.845
						l-0.888,16.774c-0.041,0.787-0.485,1.491-1.091,1.838c-0.225,0.128-0.471,0.208-0.728,0.225
						c-0.947,0.06-1.668-0.767-1.611-1.845l0.889-16.775C162.031,82.721,162.476,82.017,163.081,81.67z"/>
				</g>
			</g>
		</g>
		<g enable-background="new    ">
			<g>
				<path fill="#70D5E5" d="M399.37,23.693l-0.888,16.774c-0.042,0.787-0.484,1.491-1.091,1.837
					c-0.226,0.128-0.472,0.208-0.729,0.224c-0.21,0.014-0.41-0.017-0.593-0.084l2.04,0.756c0.183,0.067,0.382,0.099,0.594,0.085
					c0.257-0.017,0.502-0.096,0.728-0.225c0.605-0.347,1.05-1.051,1.092-1.837l0.887-16.775c0.045-0.838-0.381-1.524-1.018-1.761
					l-2.04-0.756C398.989,22.168,399.415,22.854,399.37,23.693z"/>
			</g>
			<g>
				<g>
					<path fill="#A3E1EF" d="M397.032,22.071c0.223-0.128,0.471-0.208,0.728-0.224c0.946-0.06,1.668,0.767,1.61,1.846l-0.888,16.774
						c-0.042,0.787-0.484,1.491-1.091,1.837c-0.226,0.128-0.472,0.208-0.729,0.224c-0.946,0.06-1.668-0.766-1.611-1.844l0.89-16.775
						C395.981,23.123,396.427,22.418,397.032,22.071z"/>
				</g>
			</g>
		</g>
		<g>
			<g enable-background="new    ">
				<g>
					<g enable-background="new    ">
						<g>
							<path fill="#A3E1EF" d="M160.026,123.837l1.859,0.36c-0.851-0.165-1.811,0.232-2.673,1.232
								c-1.713,1.984-2.404,5.603-1.538,8.065c0.43,1.223,1.164,1.934,2.004,2.097l-1.858-0.36c-0.84-0.163-1.574-0.874-2.004-2.097
								c-0.865-2.462-0.174-6.08,1.538-8.065C158.217,124.071,159.176,123.672,160.026,123.837L160.026,123.837z"/>
						</g>
					</g>
				</g>
				<g>
					<g enable-background="new    ">
						<g>
							<path fill="#A3E1EF" d="M160.468,121.559l1.859,0.36c1.176,0.228,2.204,1.223,2.805,2.936
								c1.211,3.446,0.246,8.511-2.153,11.29c-1.207,1.398-2.55,1.955-3.742,1.725l-1.859-0.36c1.192,0.23,2.536-0.327,3.742-1.725
								c2.399-2.78,3.365-7.844,2.153-11.29C162.672,122.782,161.644,121.787,160.468,121.559L160.468,121.559z"/>
						</g>
					</g>
				</g>
				<g>
					<g>
						<path fill="#70D5E5" d="M156.727,123.284c2.4-2.78,5.336-2.235,6.546,1.211c1.212,3.445,0.247,8.51-2.153,11.29
							c-2.398,2.779-5.335,2.235-6.547-1.21C153.363,131.128,154.329,126.062,156.727,123.284z M160.492,133.999
							c1.715-1.985,2.404-5.603,1.539-8.064c-0.866-2.462-2.963-2.85-4.677-0.865c-1.712,1.985-2.403,5.603-1.538,8.065
							C156.682,135.597,158.78,135.983,160.492,133.999L160.492,133.999z"/>
					</g>
				</g>
			</g>
		</g>
		<g>
			<g enable-background="new    ">
				<g>
					<g enable-background="new    ">
						<g>
							<path fill="#A3E1EF" d="M513.698,49.871l1.772,1.579c-0.811-0.723-2.101-0.908-3.672-0.384
								c-3.116,1.042-6.182,4.501-6.825,7.71c-0.32,1.594,0.016,2.831,0.817,3.544l-1.773-1.579
								c-0.801-0.714-1.138-1.951-0.817-3.544c0.646-3.209,3.708-6.668,6.826-7.71C511.596,48.963,512.887,49.148,513.698,49.871
								L513.698,49.871z"/>
						</g>
					</g>
				</g>
				<g>
					<g enable-background="new    ">
						<g>
							<path fill="#A3E1EF" d="M515.634,47.697l1.772,1.579c1.122,0.999,1.592,2.731,1.145,4.962
								c-0.902,4.492-5.188,9.334-9.556,10.794c-2.197,0.734-4.003,0.474-5.14-0.538l-1.773-1.579
								c1.138,1.012,2.943,1.272,5.139,0.538c4.368-1.46,8.654-6.303,9.556-10.794C517.226,50.428,516.756,48.696,515.634,47.697
								L515.634,47.697z"/>
						</g>
					</g>
				</g>
				<g>
					<g>
						<path fill="#70D5E5" d="M510.493,47.16c4.369-1.46,7.187,1.008,6.283,5.5c-0.901,4.491-5.188,9.334-9.556,10.794
							c-4.366,1.459-7.186-1.009-6.282-5.5C501.841,53.463,506.128,48.619,510.493,47.16z M507.688,61.126
							c3.12-1.042,6.182-4.5,6.826-7.71s-1.369-4.971-4.488-3.929c-3.118,1.042-6.181,4.501-6.826,7.71
							C502.557,60.407,504.571,62.168,507.688,61.126L507.688,61.126z"/>
					</g>
				</g>
			</g>
		</g>
		<g>
			<g enable-background="new    ">
				<g>
					<g enable-background="new    ">
						<g>
							<path fill="#A3E1EF" d="M184.293,190.943l2.029,1.806c-0.929-0.827-2.405-1.04-4.202-0.438
								c-3.566,1.192-7.073,5.15-7.81,8.822c-0.367,1.824,0.017,3.239,0.935,4.055l-2.029-1.806
								c-0.917-0.816-1.302-2.232-0.937-4.056c0.738-3.672,4.243-7.63,7.811-8.823C181.889,189.904,183.364,190.116,184.293,190.943
								L184.293,190.943z"/>
						</g>
					</g>
				</g>
				<g>
					<g enable-background="new    ">
						<g>
							<path fill="#A3E1EF" d="M186.508,188.456l2.028,1.806c1.284,1.143,1.822,3.125,1.31,5.679
								c-1.032,5.139-5.937,10.68-10.934,12.351c-2.514,0.84-4.58,0.542-5.88-0.616l-2.029-1.806
								c1.301,1.158,3.368,1.456,5.88,0.615c4.999-1.67,9.902-7.212,10.934-12.351C188.329,191.581,187.792,189.599,186.508,188.456
								L186.508,188.456z"/>
						</g>
					</g>
				</g>
				<g>
					<g>
						<path fill="#70D5E5" d="M180.626,187.841c4.999-1.67,8.223,1.154,7.189,6.293c-1.032,5.139-5.935,10.68-10.934,12.351
							c-4.996,1.67-8.222-1.154-7.189-6.293C170.726,195.053,175.631,189.511,180.626,187.841z M177.417,203.821
							c3.571-1.192,7.073-5.149,7.811-8.822c0.738-3.671-1.566-5.688-5.136-4.495c-3.568,1.193-7.073,5.151-7.811,8.823
							C171.544,202.999,173.85,205.014,177.417,203.821L177.417,203.821z"/>
					</g>
				</g>
			</g>
		</g>
		<g>
			<g enable-background="new    ">
				<g>
					<g enable-background="new    ">
						<g>
							<path fill="#A3E1EF" d="M450.864,230.131l2.221-0.842c-1.018,0.386-1.778,1.444-2.038,3.079
								c-0.518,3.246,1.133,7.562,3.681,9.618c1.266,1.021,2.517,1.295,3.52,0.914l-2.22,0.842c-1.003,0.381-2.255,0.106-3.52-0.914
								c-2.548-2.057-4.198-6.372-3.682-9.618C449.088,231.575,449.849,230.517,450.864,230.131L450.864,230.131z"/>
						</g>
					</g>
				</g>
				<g>
					<g enable-background="new    ">
						<g>
							<path fill="#A3E1EF" d="M449.832,227.41l2.22-0.842c1.404-0.532,3.158-0.149,4.929,1.281
								c3.565,2.876,5.878,8.915,5.153,13.463c-0.365,2.288-1.432,3.769-2.854,4.309l-2.221,0.842
								c1.425-0.54,2.49-2.021,2.854-4.308c0.725-4.548-1.586-10.587-5.152-13.463C452.989,227.263,451.237,226.877,449.832,227.41
								L449.832,227.41z"/>
						</g>
					</g>
				</g>
				<g>
					<g>
						<path fill="#70D5E5" d="M446.979,231.72c0.727-4.549,4.216-5.906,7.781-3.028c3.566,2.876,5.877,8.916,5.152,13.463
							c-0.725,4.546-4.217,5.905-7.781,3.028S446.254,236.265,446.979,231.72z M458.065,240.664c0.519-3.249-1.132-7.562-3.68-9.618
							c-2.547-2.055-5.04-1.084-5.56,2.164c-0.517,3.246,1.134,7.562,3.682,9.618C455.055,244.882,457.548,243.911,458.065,240.664
							L458.065,240.664z"/>
					</g>
				</g>
			</g>
		</g>
		<g>
			<g enable-background="new    ">
				<g>
					<g enable-background="new    ">
						<g>
							<path fill="#A3E1EF" d="M189.629,43.496l1.455-0.755c-0.667,0.346-1.104,1.132-1.152,2.274
								c-0.095,2.267,1.38,5.095,3.292,6.301c0.949,0.6,1.83,0.688,2.487,0.346l-1.455,0.755c-0.658,0.341-1.538,0.253-2.487-0.345
								c-1.911-1.207-3.387-4.034-3.292-6.302C188.525,44.628,188.963,43.842,189.629,43.496L189.629,43.496z"/>
						</g>
					</g>
				</g>
				<g>
					<g enable-background="new    ">
						<g>
							<path fill="#A3E1EF" d="M188.704,41.712l1.455-0.754c0.92-0.478,2.153-0.354,3.481,0.484
								c2.675,1.688,4.743,5.645,4.608,8.821c-0.067,1.599-0.681,2.699-1.612,3.182l-1.456,0.755
								c0.933-0.484,1.545-1.585,1.613-3.183c0.134-3.177-1.934-7.133-4.608-8.821C190.857,41.359,189.625,41.234,188.704,41.712
								L188.704,41.712z"/>
						</g>
					</g>
				</g>
				<g>
					<g>
						<path fill="#70D5E5" d="M187.092,44.896c0.134-3.177,2.419-4.387,5.094-2.698c2.674,1.688,4.742,5.644,4.608,8.821
							c-0.134,3.175-2.42,4.386-5.094,2.698C189.025,52.028,186.957,48.07,187.092,44.896z M195.408,50.143
							c0.096-2.269-1.38-5.094-3.291-6.301c-1.911-1.206-3.544-0.342-3.64,1.927c-0.096,2.268,1.38,5.095,3.292,6.302
							C193.68,53.277,195.312,52.411,195.408,50.143L195.408,50.143z"/>
					</g>
				</g>
			</g>
		</g>
		<g>
			<g enable-background="new    ">
				<g>
					<g enable-background="new    ">
						<g>
							<path fill="#A3E1EF" d="M461.945,65.113l0.879,1.131c-0.402-0.518-1.147-0.769-2.138-0.63
								c-1.963,0.278-4.158,1.996-4.892,3.829c-0.364,0.912-0.3,1.682,0.098,2.193l-0.88-1.131
								c-0.398-0.511-0.462-1.282-0.098-2.193c0.732-1.833,2.929-3.551,4.894-3.829C460.797,64.345,461.542,64.595,461.945,65.113
								L461.945,65.113z"/>
						</g>
					</g>
				</g>
				<g>
					<g enable-background="new    ">
						<g>
							<path fill="#A3E1EF" d="M463.331,64.035l0.879,1.13c0.558,0.716,0.646,1.794,0.137,3.07c-1.026,2.567-4.099,4.971-6.85,5.36
								c-1.384,0.196-2.427-0.156-2.992-0.88l-0.878-1.131c0.563,0.725,1.607,1.077,2.99,0.881c2.752-0.389,5.823-2.793,6.85-5.36
								C463.978,65.83,463.888,64.75,463.331,64.035L463.331,64.035z"/>
						</g>
					</g>
				</g>
				<g>
					<g>
						<path fill="#70D5E5" d="M460.34,63.154c2.752-0.389,4.154,1.383,3.127,3.95c-1.026,2.566-4.098,4.971-6.85,5.36
							c-2.751,0.389-4.152-1.384-3.127-3.95C454.517,65.948,457.589,63.542,460.34,63.154z M457.149,71.134
							c1.965-0.277,4.16-1.995,4.892-3.829c0.735-1.833-0.268-3.099-2.232-2.822c-1.965,0.278-4.161,1.995-4.894,3.829
							C454.182,70.147,455.185,71.412,457.149,71.134L457.149,71.134z"/>
					</g>
				</g>
			</g>
		</g>
		<g>
			<g enable-background="new    ">
				<g>
					<g enable-background="new    ">
						<g>
							<path fill="#A3E1EF" d="M515.358,17.833l0.879,1.131c-0.402-0.518-1.147-0.769-2.138-0.63
								c-1.963,0.278-4.158,1.996-4.892,3.829c-0.364,0.912-0.3,1.682,0.098,2.193l-0.88-1.131
								c-0.398-0.511-0.462-1.282-0.098-2.193c0.732-1.833,2.929-3.551,4.894-3.829C514.21,17.065,514.955,17.315,515.358,17.833
								L515.358,17.833z"/>
						</g>
					</g>
				</g>
				<g>
					<g enable-background="new    ">
						<g>
							<path fill="#A3E1EF" d="M516.744,16.755l0.879,1.13c0.558,0.716,0.646,1.794,0.137,3.07c-1.026,2.567-4.099,4.971-6.85,5.36
								c-1.384,0.196-2.427-0.156-2.992-0.88l-0.878-1.131c0.563,0.725,1.607,1.077,2.99,0.881c2.752-0.389,5.823-2.793,6.85-5.36
								C517.391,18.55,517.301,17.47,516.744,16.755L516.744,16.755z"/>
						</g>
					</g>
				</g>
				<g>
					<g>
						<path fill="#70D5E5" d="M513.753,15.875c2.752-0.389,4.154,1.383,3.127,3.95c-1.026,2.566-4.098,4.971-6.85,5.36
							c-2.751,0.389-4.152-1.384-3.127-3.95C507.93,18.668,511.002,16.263,513.753,15.875z M510.562,23.854
							c1.965-0.277,4.16-1.995,4.892-3.829c0.735-1.833-0.268-3.099-2.232-2.822c-1.965,0.278-4.161,1.995-4.894,3.829
							C507.595,22.868,508.598,24.132,510.562,23.854L510.562,23.854z"/>
					</g>
				</g>
			</g>
		</g>
		<g>
			<g enable-background="new    ">
				<g>
					<g enable-background="new    ">
						<g>
							<path fill="#A3E1EF" d="M472.616,174.446l1.433-0.031c-0.657,0.014-1.302,0.462-1.781,1.339
								c-0.949,1.741-0.882,4.528,0.15,6.211c0.514,0.836,1.17,1.245,1.819,1.23l-1.435,0.031c-0.646,0.014-1.302-0.395-1.817-1.23
								c-1.033-1.683-1.1-4.47-0.148-6.212C471.314,174.907,471.961,174.459,472.616,174.446L472.616,174.446z"/>
						</g>
					</g>
				</g>
				<g>
					<g enable-background="new    ">
						<g>
							<path fill="#A3E1EF" d="M472.579,172.69l1.432-0.03c0.907-0.02,1.825,0.552,2.544,1.723c1.446,2.356,1.542,6.256,0.211,8.696
								c-0.67,1.226-1.574,1.853-2.493,1.873l-1.432,0.03c0.918-0.02,1.823-0.646,2.493-1.873c1.33-2.44,1.234-6.34-0.211-8.695
								C474.405,173.243,473.485,172.67,472.579,172.69L472.579,172.69z"/>
						</g>
					</g>
				</g>
				<g>
					<g>
						<path fill="#70D5E5" d="M470.087,174.563c1.332-2.439,3.591-2.506,5.036-0.149c1.445,2.355,1.541,6.255,0.211,8.695
							c-1.331,2.438-3.591,2.505-5.037,0.149C468.853,180.902,468.757,177.002,470.087,174.563z M474.584,181.887
							c0.95-1.742,0.883-4.527-0.15-6.21c-1.033-1.684-2.646-1.635-3.597,0.106c-0.951,1.742-0.885,4.529,0.148,6.212
							C472.021,183.679,473.634,183.63,474.584,181.887L474.584,181.887z"/>
					</g>
				</g>
			</g>
		</g>
		<g>
			<g enable-background="new    ">
				<g>
					<g enable-background="new    ">
						<g>
							<path fill="#A3E1EF" d="M348.255,11.96l-1.022,2.517c0.47-1.153,0.173-2.614-0.995-4.106
								c-2.319-2.96-7.224-4.936-10.93-4.398c-1.842,0.266-3.045,1.103-3.507,2.241l1.021-2.517
								c0.462-1.138,1.666-1.975,3.507-2.242c3.707-0.536,8.611,1.438,10.931,4.4C348.427,9.346,348.722,10.808,348.255,11.96
								L348.255,11.96z"/>
						</g>
					</g>
				</g>
				<g>
					<g enable-background="new    ">
						<g>
							<path fill="#A3E1EF" d="M351.341,13.212l-1.022,2.517c-0.646,1.593-2.333,2.765-4.91,3.138
								c-5.188,0.75-12.052-2.012-15.302-6.16c-1.634-2.087-2.046-4.133-1.392-5.746l1.021-2.518
								c-0.654,1.614-0.242,3.661,1.392,5.747c3.25,4.148,10.115,6.91,15.302,6.159C349.007,15.976,350.693,14.806,351.341,13.212
								L351.341,13.212z"/>
						</g>
					</g>
				</g>
				<g>
					<g>
						<path fill="#70D5E5" d="M349.947,7.466c3.25,4.148,1.67,8.133-3.519,8.883c-5.187,0.751-12.051-2.01-15.302-6.159
							c-3.248-4.146-1.669-8.133,3.519-8.883S346.699,3.319,349.947,7.466z M333.816,9.801c2.321,2.964,7.223,4.936,10.931,4.4
							c3.707-0.536,4.834-3.383,2.512-6.346c-2.319-2.961-7.224-4.936-10.931-4.4C332.622,3.992,331.496,6.84,333.816,9.801
							L333.816,9.801z"/>
					</g>
				</g>
			</g>
		</g>
	</g>
	<g>
		<defs>
			<path id="SVGID_3_" d="M123.149,315.135c2.667-21.333,4.12-46.751,1.014-54.563c0,0-1.83-2.539-4.352-4.382
				c-1.742-1.273-4.564-0.523-6.447-1.021c-0.788-0.208-2.094-0.815-3.526-1.267c-1.992-0.629-4.176-1.129-5.098-1.388
				c-0.893-0.349-2.084,0.079-2.084,0.079c-14.401,6.322-30.792,32.008-37.507,66.543c-9.333,48.001-26.786,73.699-49.333,92.667
				c2.218,10.891,29.687,9.578,41.333,6.666c9.024-2.262,19.084-18.018,27.833-13.484c28,21.333,42.194,12.496,73.463-4.141
				C113.399,387.968,118.979,348.496,123.149,315.135z"/>
		</defs>
		<clipPath id="SVGID_4_">
			<use xlink:href="#SVGID_3_"  overflow="visible"/>
		</clipPath>
		<g opacity="0.35" clip-path="url(#SVGID_4_)">
			<polygon fill="#FFFFFF" points="111.058,308.536 111.144,302.099 113.126,308.11 119.677,305.908 114.112,309.502 
				118.247,314.063 112.643,310.583 109.113,315.157 110.865,310.042 104.488,308.884 			"/>
		</g>
		<g opacity="0.35" clip-path="url(#SVGID_4_)">
			<polygon fill="#FFFFFF" points="77.035,319.152 85.896,315.243 79.206,321.932 85.713,327.288 78.222,324.51 76.079,331.229 
				75.259,323.333 59.168,324.567 75.036,320.368 72.518,312.724 			"/>
		</g>
		<g opacity="0.35" clip-path="url(#SVGID_4_)">
			<polygon fill="#FFFFFF" points="125.259,398.944 134.665,394.795 127.564,401.896 134.471,407.582 126.519,404.633 
				124.245,411.763 123.374,403.385 106.294,404.693 123.138,400.235 120.464,392.122 			"/>
		</g>
		<g opacity="0.35" clip-path="url(#SVGID_4_)">
			<polygon fill="#FFFFFF" points="37.973,376.508 36.609,363.76 40.897,375.771 51.259,370.544 42.083,377.92 49.654,386.458 
				40.164,380.648 32.523,390.029 37.517,379.877 30.312,377.845 			"/>
		</g>
		<g opacity="0.35" clip-path="url(#SVGID_4_)">
			<polygon fill="#FFFFFF" points="109.406,265.177 108.328,255.098 111.718,264.595 119.91,260.462 112.655,266.293 
				118.641,273.044 111.139,268.451 105.097,275.867 109.045,267.842 103.349,266.234 			"/>
		</g>
		<g opacity="0.35" clip-path="url(#SVGID_4_)">
			<polygon fill="#FFFFFF" points="92.526,367.609 91.184,355.067 95.402,366.884 105.595,361.742 96.568,368.997 104.017,377.397 
				94.681,371.683 87.165,380.909 92.077,370.925 84.989,368.924 			"/>
		</g>
		<g opacity="0.35" clip-path="url(#SVGID_4_)">
			<path fill="#FFFFFF" d="M94.124,282.161l-5.237-3.453l3.98-9.783l-5.573,8.693l-5.638-1.637l4.771,3.221l-3.841,8.645
				l5.537-7.841l4.01,1.483L94.124,282.161z"/>
		</g>
		<g opacity="0.35" clip-path="url(#SVGID_4_)">
			<path fill="#FFFFFF" d="M109.773,330.836l-3.605,1.703l-4.001-5.394l2.882,5.899l-2.751,2.525l3.326-1.529l3.43,4.942l-2.432-5.6
				l2.131-1.688L109.773,330.836z"/>
		</g>
		<g opacity="0.35" clip-path="url(#SVGID_4_)">
			<path fill="#FFFFFF" d="M83.155,396.074l-4.577,4.291l-8.588-6.146l7.158,7.441l-2.902,5.103l4.242-3.892l7.516,5.747
				l-6.341-7.209l2.375-3.555L83.155,396.074z"/>
		</g>
		<g opacity="0.35" clip-path="url(#SVGID_4_)">
			<path fill="#FFFFFF" d="M60.507,349.679l-3.166-1.494l1.423-5.716l-2.389,5.242l-3.243-0.458l2.889,1.4l-1.437,5.079l2.436-4.77
				l2.332,0.501L60.507,349.679z"/>
		</g>
	</g>
	<g opacity="0.35">
		<path fill="#454C60" d="M80.254,328.218c0,0-16.12,86.621-20.464,89.225s-22.932,3.588-26.12,2.836
			C43.295,405.847,80.254,328.218,80.254,328.218z"/>
	</g>
	<g opacity="0.35">
		<path fill="#454C60" d="M91.118,363.106c0,0-2.055,45.036,2.289,47.64s13.076,9.144,30.024,6.487
			C92.599,400.268,91.118,363.106,91.118,363.106z"/>
	</g>
</g>
</svg>
