<?xml version="1.0" ?><svg height="56px" version="1.1" viewBox="0 0 61 56" width="61px" xmlns="http://www.w3.org/2000/svg" xmlns:xlink="http://www.w3.org/1999/xlink"><title/><desc/><defs/><g fill="none" fill-rule="evenodd" id="Page-1" stroke="none" stroke-width="1"><g id="Hotel-Services---Webby" transform="translate(-119.000000, -1124.000000)"><g id="61--Calendar--(hotel,-service,-travel)" transform="translate(120.000000, 1125.000000)"><path d="M0.0079,52 L0.0079,14 L58.0079,14 L58.0079,52 C58.0079,53.105 57.1129,54 56.0079,54 L2.0079,54 C0.9029,54 0.0079,53.105 0.0079,52" fill="#FFFFFF" id="Fill-997"/><path d="M0.0079,52 L0.0079,14 L58.0079,14 L58.0079,52 C58.0079,53.105 57.1129,54 56.0079,54 L2.0079,54 C0.9029,54 0.0079,53.105 0.0079,52 L0.0079,52 Z" id="Stroke-998" stroke="#0096E6" stroke-linecap="round" stroke-linejoin="round" stroke-width="2"/><path d="M0.0079,14 L0.0079,6 C0.0079,4.895 0.9029,4 2.0079,4 L56.0079,4 C57.1129,4 58.0079,4.895 58.0079,6 L58.0079,14 L0.0079,14 Z" fill="#FFFFFF" id="Fill-999"/><path d="M0.0079,14 L0.0079,6 C0.0079,4.895 0.9029,4 2.0079,4 L56.0079,4 C57.1129,4 58.0079,4.895 58.0079,6 L58.0079,14 L0.0079,14 L0.0079,14 Z" id="Stroke-1000" stroke="#0096E6" stroke-linecap="round" stroke-linejoin="round" stroke-width="2"/><path d="M51.0079,8 C53.2169,8 55.0079,6.209 55.0079,4 C55.0079,1.791 53.2169,0 51.0079,0 C48.7989,0 47.0079,1.791 47.0079,4" id="Stroke-1001" stroke="#0196E7" stroke-linecap="round" stroke-linejoin="round" stroke-width="2"/><path d="M40.0079,8 C42.2169,8 44.0079,6.209 44.0079,4 C44.0079,1.791 42.2169,0 40.0079,0 C37.7989,0 36.0079,1.791 36.0079,4" id="Stroke-1002" stroke="#0196E7" stroke-linecap="round" stroke-linejoin="round" stroke-width="2"/><path d="M29.0079,8 C31.2169,8 33.0079,6.209 33.0079,4 C33.0079,1.791 31.2169,0 29.0079,0 C26.7989,0 25.0079,1.791 25.0079,4" id="Stroke-1003" stroke="#0196E7" stroke-linecap="round" stroke-linejoin="round" stroke-width="2"/><path d="M18.0079,8 C20.2169,8 22.0079,6.209 22.0079,4 C22.0079,1.791 20.2169,0 18.0079,0 C15.7989,0 14.0079,1.791 14.0079,4" id="Stroke-1004" stroke="#0196E7" stroke-linecap="round" stroke-linejoin="round" stroke-width="2"/><path d="M7.0079,8 C9.2169,8 11.0079,6.209 11.0079,4 C11.0079,1.791 9.2169,0 7.0079,0 C4.7989,0 3.0079,1.791 3.0079,4" id="Stroke-1005" stroke="#0196E7" stroke-linecap="round" stroke-linejoin="round" stroke-width="2"/><polygon fill="#D0E8F9" id="Fill-1006" points="8.008 26 14.008 26 14.008 20 8.008 20"/><polygon id="Stroke-1007" points="8.008 26 14.008 26 14.008 20 8.008 20" stroke="#0096E6" stroke-linecap="round" stroke-linejoin="round" stroke-width="2"/><polygon fill="#D0E8F9" id="Fill-1008" points="20.008 26 26.008 26 26.008 20 20.008 20"/><polygon id="Stroke-1009" points="20.008 26 26.008 26 26.008 20 20.008 20" stroke="#0096E6" stroke-linecap="round" stroke-linejoin="round" stroke-width="2"/><polygon fill="#D0E8F9" id="Fill-1010" points="32.008 26 38.008 26 38.008 20 32.008 20"/><polygon id="Stroke-1011" points="32.008 26 38.008 26 38.008 20 32.008 20" stroke="#0096E6" stroke-linecap="round" stroke-linejoin="round" stroke-width="2"/><polygon fill="#D0E8F9" id="Fill-1012" points="44.008 26 50.008 26 50.008 20 44.008 20"/><polygon id="Stroke-1013" points="44.008 26 50.008 26 50.008 20 44.008 20" stroke="#0096E6" stroke-linecap="round" stroke-linejoin="round" stroke-width="2"/><polygon fill="#D0E8F9" id="Fill-1014" points="8.008 37 14.008 37 14.008 31 8.008 31"/><polygon id="Stroke-1015" points="8.008 37 14.008 37 14.008 31 8.008 31" stroke="#0096E6" stroke-linecap="round" stroke-linejoin="round" stroke-width="2"/><polygon fill="#D0E8F9" id="Fill-1016" points="20.008 37 26.008 37 26.008 31 20.008 31"/><polygon id="Stroke-1017" points="20.008 37 26.008 37 26.008 31 20.008 31" stroke="#0096E6" stroke-linecap="round" stroke-linejoin="round" stroke-width="2"/><polygon fill="#D0E8F9" id="Fill-1018" points="32.008 37 38.008 37 38.008 31 32.008 31"/><polygon id="Stroke-1019" points="32.008 37 38.008 37 38.008 31 32.008 31" stroke="#0096E6" stroke-linecap="round" stroke-linejoin="round" stroke-width="2"/><polygon fill="#D0E8F9" id="Fill-1020" points="44.008 37 50.008 37 50.008 31 44.008 31"/><polygon id="Stroke-1021" points="44.008 37 50.008 37 50.008 31 44.008 31" stroke="#0096E6" stroke-linecap="round" stroke-linejoin="round" stroke-width="2"/><polygon fill="#D0E8F9" id="Fill-1022" points="8.008 48 14.008 48 14.008 42 8.008 42"/><polygon id="Stroke-1023" points="8.008 48 14.008 48 14.008 42 8.008 42" stroke="#0096E6" stroke-linecap="round" stroke-linejoin="round" stroke-width="2"/><polygon fill="#D0E8F9" id="Fill-1024" points="20.008 48 26.008 48 26.008 42 20.008 42"/><polygon id="Stroke-1025" points="20.008 48 26.008 48 26.008 42 20.008 42" stroke="#0096E6" stroke-linecap="round" stroke-linejoin="round" stroke-width="2"/><polygon fill="#D0E8F9" id="Fill-1026" points="32.008 48 38.008 48 38.008 42 32.008 42"/><polygon id="Stroke-1027" points="32.008 48 38.008 48 38.008 42 32.008 42" stroke="#0096E6" stroke-linecap="round" stroke-linejoin="round" stroke-width="2"/><polygon fill="#D0E8F9" id="Fill-1028" points="44.008 48 50.008 48 50.008 42 44.008 42"/><polygon id="Stroke-1029" points="44.008 48 50.008 48 50.008 42 44.008 42" stroke="#0096E6" stroke-linecap="round" stroke-linejoin="round" stroke-width="2"/></g></g></g></svg>
