<?xml version="1.0" ?><svg height="60px" version="1.1" viewBox="0 0 59 60" width="59px" xmlns="http://www.w3.org/2000/svg" xmlns:xlink="http://www.w3.org/1999/xlink"><title/><desc/><defs/><g fill="none" fill-rule="evenodd" id="Page-1" stroke="none" stroke-width="1"><g id="Hotel-Services---Webby" transform="translate(-1199.000000, -1362.000000)"><g id="90--Room-Service--(hotel,-service,-travel)" transform="translate(1200.000000, 1362.000000)"><path d="M57.0079,55 L7.0079,55 L9.8379,32.793 C9.9339,31.765 10.7969,30.979 11.8289,30.979 L52.1869,30.979 C53.2189,30.979 54.0819,31.765 54.1779,32.793 L57.0079,55 Z" fill="#FFFFFF" id="Fill-1409"/><path d="M57.0079,55 L7.0079,55 L9.8379,32.793 C9.9339,31.765 10.7969,30.979 11.8289,30.979 L52.1869,30.979 C53.2189,30.979 54.0819,31.765 54.1779,32.793 L57.0079,55 L57.0079,55 Z" id="Stroke-1410" stroke="#0096E6" stroke-linecap="round" stroke-linejoin="round" stroke-width="2"/><path d="M14.0079,57 C14.0079,55.895 13.1119,55 12.0079,55 C10.9029,55 10.0079,55.895 10.0079,57 C10.0079,58.105 10.9029,59 12.0079,59 C13.1119,59 14.0079,58.105 14.0079,57" fill="#FFFFFF" id="Fill-1411"/><path d="M14.0079,57 C14.0079,55.895 13.1119,55 12.0079,55 C10.9029,55 10.0079,55.895 10.0079,57 C10.0079,58.105 10.9029,59 12.0079,59 C13.1119,59 14.0079,58.105 14.0079,57 L14.0079,57 Z" id="Stroke-1412" stroke="#0096E6" stroke-linecap="round" stroke-linejoin="round" stroke-width="2"/><path d="M54.0079,57 C54.0079,55.895 53.1119,55 52.0079,55 C50.9029,55 50.0079,55.895 50.0079,57 C50.0079,58.105 50.9029,59 52.0079,59 C53.1119,59 54.0079,58.105 54.0079,57" fill="#FFFFFF" id="Fill-1413"/><path d="M54.0079,57 C54.0079,55.895 53.1119,55 52.0079,55 C50.9029,55 50.0079,55.895 50.0079,57 C50.0079,58.105 50.9029,59 52.0079,59 C53.1119,59 54.0079,58.105 54.0079,57 L54.0079,57 Z" id="Stroke-1414" stroke="#0096E6" stroke-linecap="round" stroke-linejoin="round" stroke-width="2"/><polyline id="Stroke-1415" points="8.7927 40.9793 3.9547 40.9793 2.0077 30.9793 0.0077 30.9793" stroke="#0196E7" stroke-linecap="round" stroke-linejoin="round" stroke-width="2"/><polygon fill="#FFFFFF" id="Fill-1416" points="50.0079 26.9793 14.0079 26.9793 16.0079 30.9793 48.0079 30.9793"/><polygon id="Stroke-1417" points="50.0079 26.9793 14.0079 26.9793 16.0079 30.9793 48.0079 30.9793" stroke="#0096E6" stroke-linecap="round" stroke-linejoin="round" stroke-width="2"/><path d="M45.0247,13.0315 C41.1787,4.4665 31.1177,0.6405 22.5527,4.4865 C13.9877,8.3325 10.1617,18.3935 14.0077,26.9585 L45.0247,13.0315 Z" fill="#FFFFFF" id="Fill-1418"/><path d="M45.0247,13.0315 C41.1787,4.4665 31.1177,0.6405 22.5527,4.4865 C13.9877,8.3325 10.1617,18.3935 14.0077,26.9585 L45.0247,13.0315 L45.0247,13.0315 Z" id="Stroke-1419" stroke="#0096E6" stroke-linecap="round" stroke-linejoin="round" stroke-width="2"/><path d="M16.593,21.413 C15.998,15.961 18.924,10.501 24.191,8.136" id="Stroke-1420" stroke="#0196E7" stroke-linecap="round" stroke-linejoin="round" stroke-width="2"/><path d="M21.3239,1.7499 L22.5529,4.4869" id="Stroke-1421" stroke="#0196E7" stroke-linecap="round" stroke-linejoin="round" stroke-width="2"/><path d="M19.4889,2.5528 L23.0079,0.9788" id="Stroke-1422" stroke="#0196E7" stroke-linecap="round" stroke-linejoin="round" stroke-width="2"/><path d="M32.0079,55 L32.0079,39" id="Stroke-1423" stroke="#0196E7" stroke-linecap="round" stroke-linejoin="round" stroke-width="2"/><path d="M23.0079,55 L24.0079,39" id="Stroke-1424" stroke="#0196E7" stroke-linecap="round" stroke-linejoin="round" stroke-width="2"/><path d="M14.0079,55 L16.0079,39" id="Stroke-1425" stroke="#0196E7" stroke-linecap="round" stroke-linejoin="round" stroke-width="2"/><path d="M41.0079,55 L40.0079,39" id="Stroke-1426" stroke="#0196E7" stroke-linecap="round" stroke-linejoin="round" stroke-width="2"/><path d="M50.0079,55 L48.0079,39" id="Stroke-1427" stroke="#0196E7" stroke-linecap="round" stroke-linejoin="round" stroke-width="2"/><path d="M46.0079,20.9585 C45.6479,20.9585 45.3079,21.0325 44.9889,21.1485 C44.9929,21.0845 45.0079,21.0235 45.0079,20.9585 C45.0079,19.3015 43.6649,17.9585 42.0079,17.9585 C41.1379,17.9585 40.3619,18.3345 39.8139,18.9255 C39.3919,17.7795 38.2999,16.9795 37.0079,16.9795 L36.2329,16.9795 L14.0079,26.9585 L46.0079,26.9585 C47.6649,26.9585 49.0079,25.6155 49.0079,23.9585 C49.0079,22.3015 47.6649,20.9585 46.0079,20.9585" fill="#D0E8F9" id="Fill-1428"/><path d="M46.0079,20.9585 C45.6479,20.9585 45.3079,21.0325 44.9889,21.1485 C44.9929,21.0845 45.0079,21.0235 45.0079,20.9585 C45.0079,19.3015 43.6649,17.9585 42.0079,17.9585 C41.1379,17.9585 40.3619,18.3345 39.8139,18.9255 C39.3919,17.7795 38.2999,16.9795 37.0079,16.9795 L36.2329,16.9795 L14.0079,26.9585 L46.0079,26.9585 C47.6649,26.9585 49.0079,25.6155 49.0079,23.9585 C49.0079,22.3015 47.6649,20.9585 46.0079,20.9585 L46.0079,20.9585 Z" id="Stroke-1429" stroke="#0096E6" stroke-linecap="round" stroke-linejoin="round" stroke-width="2"/></g></g></g></svg>
