<?xml version="1.0" encoding="utf-8"?>
<!-- Generator: Adobe Illustrator 16.2.1, SVG Export Plug-In . SVG Version: 6.00 Build 0)  -->
<!DOCTYPE svg PUBLIC "-//W3C//DTD SVG 1.1//EN" "http://www.w3.org/Graphics/SVG/1.1/DTD/svg11.dtd">
<svg version="1.1" id="Layer_1" xmlns="http://www.w3.org/2000/svg" xmlns:xlink="http://www.w3.org/1999/xlink" x="0px" y="0px"
	 width="717.451px" height="573.148px" viewBox="0 0 717.451 573.148" enable-background="new 0 0 717.451 573.148"
	 xml:space="preserve">
<path opacity="0.18" fill="#8189A3" d="M489.494,567.771c0,2.97-2.408,5.378-5.377,5.378H55.451c-2.971,0-5.378-2.408-5.378-5.378
	l0,0c0-2.97,2.407-5.378,5.378-5.378h428.666C487.085,562.393,489.494,564.801,489.494,567.771L489.494,567.771z"/>
<path fill="#2A4E5C" d="M163.617,9.397c0,5.189-4.177,9.396-9.329,9.396h-46.706c-5.152,0-9.329-4.207-9.329-9.396l0,0
	c0-5.19,4.177-9.397,9.329-9.397h46.706C159.44,0,163.617,4.208,163.617,9.397L163.617,9.397z"/>
<path fill="#D3E9EF" d="M593.861,254.833h-8.604v-46.631h8.604c3.936,0,7.127,3.191,7.127,7.127v32.377
	C600.988,251.643,597.796,254.833,593.861,254.833z"/>
<path fill="none" stroke="#D3E9EF" stroke-width="6" stroke-miterlimit="10" d="M596.789,231.518h12.235
	c4.093,0,8.188,1.562,11.312,4.685c3.122,3.124,4.684,7.216,4.684,11.31v260.815c0,14.793,5.643,29.587,16.93,40.873
	c11.287,11.287,26.08,16.931,40.875,16.931h34.627"/>
<path fill="#D3E9EF" d="M604.651,223.909h-5.875c-1.891,0-3.422,1.532-3.422,3.423v8.262c0,1.89,1.531,3.422,3.422,3.422h6.191
	c4.247,0,7.679-3.507,7.551-7.785C612.394,227.096,608.788,223.909,604.651,223.909z"/>
<path fill="#1B323B" d="M158.087,9.397c0,5.189-4.176,9.396-9.329,9.396h-46.704c-5.153,0-9.33-4.207-9.33-9.396l0,0
	c0-5.19,4.177-9.397,9.33-9.397h46.704C153.911,0,158.087,4.208,158.087,9.397L158.087,9.397z"/>
<path fill="#23263F" d="M55.714,453.301c-11.45,0-22.896-4.396-31.633-13.197c-8.736-8.798-13.104-20.33-13.104-31.862V54.794
	c0-11.532,4.368-23.063,13.104-31.861c8.737-8.798,20.183-13.199,31.633-13.199h477.353c11.446,0,22.899,4.401,31.633,13.199
	c8.735,8.798,13.103,20.33,13.103,31.861v353.447c0,11.532-4.367,23.064-13.103,31.862c-8.733,8.802-20.187,13.197-31.633,13.197
	H55.714z"/>
<path fill="#3C415E" d="M566.831,54.793v353.45c0,11.53-4.37,23.06-13.11,31.859c-8.729,8.8-20.18,13.2-31.63,13.2H44.741
	c-11.45,0-22.9-4.4-31.641-13.2C4.371,431.303,0,419.773,0,408.243V54.793c0-11.53,4.371-23.06,13.1-31.86
	c8.741-8.8,20.19-13.2,31.641-13.2h477.35c11.45,0,22.9,4.4,31.63,13.2C562.46,31.733,566.831,43.263,566.831,54.793z"/>
<polygon opacity="0.34" fill="#4AEEFF" points="452.05,9.733 443.71,43.533 275.71,43.533 284.06,9.733 "/>
<polygon opacity="0.34" fill="#4AEEFF" points="349.89,419.503 341.621,452.982 173.62,452.982 181.891,419.503 "/>
<polygon opacity="0.32" fill="#BBEAFF" points="442.71,43.533 349.89,419.503 181.891,419.503 274.71,43.533 "/>
<path fill="#FFFFFF" d="M585.46,254.833h-13.14v-46.631h13.14c3.938,0,7.129,3.191,7.129,7.127v32.377
	C592.589,251.643,589.399,254.833,585.46,254.833z"/>
<g>
	<path fill="#FF9A2C" d="M533.281,51.853v359.33c0,4.591-3.73,8.32-8.32,8.32H41.871c-4.59,0-8.32-3.729-8.32-8.32V51.853
		c0-4.59,3.73-8.32,8.32-8.32h483.09C529.55,43.533,533.281,47.263,533.281,51.853z"/>
</g>
<g opacity="0.6">
	<ellipse opacity="0.7" fill="#FFFFFF" cx="52.075" cy="239.744" rx="2.744" ry="2.764"/>
	<ellipse opacity="0.7" fill="#FFFFFF" cx="65.108" cy="239.744" rx="2.744" ry="2.764"/>
	<ellipse opacity="0.7" fill="#FFFFFF" cx="78.141" cy="239.744" rx="2.744" ry="2.764"/>
	<ellipse opacity="0.7" fill="#FFFFFF" cx="91.175" cy="239.744" rx="2.744" ry="2.764"/>
	<ellipse opacity="0.7" fill="#FFFFFF" cx="104.208" cy="239.744" rx="2.744" ry="2.764"/>
	<ellipse opacity="0.7" fill="#FFFFFF" cx="117.242" cy="239.744" rx="2.744" ry="2.764"/>
	<ellipse opacity="0.7" fill="#FFFFFF" cx="130.275" cy="239.744" rx="2.744" ry="2.764"/>
	<ellipse opacity="0.7" fill="#FFFFFF" cx="143.309" cy="239.744" rx="2.744" ry="2.764"/>
	<ellipse opacity="0.7" fill="#FFFFFF" cx="156.341" cy="239.744" rx="2.744" ry="2.764"/>
	<ellipse opacity="0.7" fill="#FFFFFF" cx="169.375" cy="239.744" rx="2.744" ry="2.764"/>
	<ellipse opacity="0.7" fill="#FFFFFF" cx="182.409" cy="239.744" rx="2.744" ry="2.764"/>
	<ellipse opacity="0.7" fill="#FFFFFF" cx="195.442" cy="239.744" rx="2.744" ry="2.764"/>
	<ellipse opacity="0.7" fill="#FFFFFF" cx="208.476" cy="239.744" rx="2.744" ry="2.764"/>
	<ellipse opacity="0.7" fill="#FFFFFF" cx="221.509" cy="239.744" rx="2.744" ry="2.764"/>
	<ellipse opacity="0.7" fill="#FFFFFF" cx="234.542" cy="239.744" rx="2.745" ry="2.764"/>
	<ellipse opacity="0.7" fill="#FFFFFF" cx="247.576" cy="239.744" rx="2.745" ry="2.764"/>
	<ellipse opacity="0.7" fill="#FFFFFF" cx="260.609" cy="239.744" rx="2.745" ry="2.764"/>
</g>
<g opacity="0.6">
	<ellipse opacity="0.7" fill="#FFFFFF" cx="38.976" cy="225.74" rx="2.744" ry="2.764"/>
	<ellipse opacity="0.7" fill="#FFFFFF" cx="52.009" cy="225.74" rx="2.744" ry="2.764"/>
	<ellipse opacity="0.7" fill="#FFFFFF" cx="65.042" cy="225.74" rx="2.744" ry="2.764"/>
	<ellipse opacity="0.7" fill="#FFFFFF" cx="78.076" cy="225.74" rx="2.745" ry="2.764"/>
	<ellipse opacity="0.7" fill="#FFFFFF" cx="91.109" cy="225.74" rx="2.744" ry="2.764"/>
	<ellipse opacity="0.7" fill="#FFFFFF" cx="104.143" cy="225.74" rx="2.744" ry="2.764"/>
	<ellipse opacity="0.7" fill="#FFFFFF" cx="117.175" cy="225.74" rx="2.745" ry="2.764"/>
	<ellipse opacity="0.7" fill="#FFFFFF" cx="130.209" cy="225.74" rx="2.744" ry="2.764"/>
	<ellipse opacity="0.7" fill="#FFFFFF" cx="143.243" cy="225.74" rx="2.744" ry="2.764"/>
	<ellipse opacity="0.7" fill="#FFFFFF" cx="156.276" cy="225.74" rx="2.744" ry="2.764"/>
	<ellipse opacity="0.7" fill="#FFFFFF" cx="169.309" cy="225.74" rx="2.745" ry="2.764"/>
	<ellipse opacity="0.7" fill="#FFFFFF" cx="182.343" cy="225.74" rx="2.744" ry="2.764"/>
	<ellipse opacity="0.7" fill="#FFFFFF" cx="195.376" cy="225.74" rx="2.744" ry="2.764"/>
	<ellipse opacity="0.7" fill="#FFFFFF" cx="208.41" cy="225.74" rx="2.744" ry="2.764"/>
	<ellipse opacity="0.7" fill="#FFFFFF" cx="221.443" cy="225.74" rx="2.745" ry="2.764"/>
	<ellipse opacity="0.7" fill="#FFFFFF" cx="234.476" cy="225.74" rx="2.744" ry="2.764"/>
	<ellipse opacity="0.7" fill="#FFFFFF" cx="247.51" cy="225.74" rx="2.744" ry="2.764"/>
</g>
<g>
	<path fill="#F48967" d="M131.781,376.306v21.56c0,1.3-1.04,2.34-2.33,2.34c-0.901,0-1.67-0.51-2.061-1.27
		c-0.38,0.76-1.159,1.28-2.06,1.28c-1.28,0-2.32-1.051-2.32-2.351c0,1.3-1.04,2.34-2.33,2.34c-0.909,0-1.689-0.529-2.069-1.29
		c-0.38,0.761-1.16,1.29-2.07,1.29c-0.76,0-1.43-0.359-1.85-0.919c-0.301-0.391-0.481-0.881-0.481-1.421v-21.56
		c0-1.301,1.04-2.351,2.331-2.351c0.91,0,1.69,0.54,2.07,1.3c0.38-0.76,1.16-1.3,2.069-1.3c1.29,0,2.33,1.05,2.33,2.351
		c0-1.301,1.04-2.351,2.32-2.351c0.91,0,1.68,0.521,2.06,1.28c0.39-0.76,1.16-1.28,2.061-1.28
		C130.741,373.955,131.781,375.005,131.781,376.306z"/>
	<path fill="none" stroke="#2C2E44" stroke-width="5.265" stroke-linecap="round" stroke-miterlimit="10" d="M107.851,404.036
		L107.851,404.036c0-6.809,5.482-12.328,12.243-12.328h1.749c6.759,0,12.239,5.52,12.239,12.328l0,0"/>
	<g>
		<polygon fill="#23263F" points="144.102,474.785 144.102,404.042 93.781,404.042 91.882,430.757 93.789,430.757 93.789,474.785 		
			"/>
	</g>
	<path fill="#333656" d="M102.578,465.934c0,4.89-3.934,8.852-8.784,8.852l0,0c-4.856,0-8.789-3.962-8.789-8.852v-53.046
		c0-4.889,3.932-8.852,8.789-8.852l0,0c4.851,0,8.784,3.963,8.784,8.852V465.934z"/>
	<path fill="#F48967" d="M131.781,391.855v6.01c0,1.3-1.04,2.34-2.33,2.34c-0.901,0-1.67-0.51-2.061-1.27
		c-0.38,0.76-1.159,1.28-2.06,1.28c-1.28,0-2.32-1.051-2.32-2.351c0,1.3-1.04,2.34-2.33,2.34c-0.909,0-1.689-0.529-2.069-1.29
		c-0.38,0.761-1.16,1.29-2.07,1.29c-0.76,0-1.43-0.359-1.85-0.919v-6.031c0-1.289,1.04-2.34,2.319-2.34c0.91,0,1.69,0.53,2.07,1.301
		c0.39-0.771,1.169-1.301,2.07-1.301c1.29,0,2.33,1.051,2.33,2.34c0-1.289,1.05-2.34,2.33-2.34c0.9,0,1.67,0.521,2.061,1.271
		c0.379-0.75,1.16-1.271,2.06-1.271C130.691,390.915,131.361,391.286,131.781,391.855z"/>
	<rect x="123.139" y="404.039" fill="#171929" width="7.974" height="70.749"/>
</g>
<g opacity="0.6">
	<ellipse opacity="0.7" fill="#FFFFFF" cx="69.52" cy="253.319" rx="2.744" ry="2.764"/>
	<ellipse opacity="0.7" fill="#FFFFFF" cx="82.554" cy="253.319" rx="2.744" ry="2.764"/>
	<ellipse opacity="0.7" fill="#FFFFFF" cx="95.587" cy="253.319" rx="2.744" ry="2.764"/>
	<ellipse opacity="0.7" fill="#FFFFFF" cx="108.621" cy="253.319" rx="2.744" ry="2.764"/>
	<ellipse opacity="0.7" fill="#FFFFFF" cx="121.654" cy="253.319" rx="2.744" ry="2.764"/>
	<ellipse opacity="0.7" fill="#FFFFFF" cx="134.688" cy="253.319" rx="2.744" ry="2.764"/>
	<ellipse opacity="0.7" fill="#FFFFFF" cx="147.72" cy="253.319" rx="2.744" ry="2.764"/>
	<ellipse opacity="0.7" fill="#FFFFFF" cx="160.754" cy="253.319" rx="2.744" ry="2.764"/>
	<ellipse opacity="0.7" fill="#FFFFFF" cx="173.788" cy="253.319" rx="2.744" ry="2.764"/>
	<ellipse opacity="0.7" fill="#FFFFFF" cx="186.82" cy="253.319" rx="2.744" ry="2.764"/>
	<ellipse opacity="0.7" fill="#FFFFFF" cx="199.854" cy="253.319" rx="2.744" ry="2.764"/>
	<ellipse opacity="0.7" fill="#FFFFFF" cx="212.888" cy="253.319" rx="2.744" ry="2.764"/>
	<ellipse opacity="0.7" fill="#FFFFFF" cx="225.921" cy="253.319" rx="2.743" ry="2.764"/>
	<ellipse opacity="0.7" fill="#FFFFFF" cx="238.955" cy="253.319" rx="2.743" ry="2.764"/>
	<ellipse opacity="0.7" fill="#FFFFFF" cx="251.988" cy="253.319" rx="2.743" ry="2.764"/>
	<ellipse opacity="0.7" fill="#FFFFFF" cx="265.021" cy="253.319" rx="2.743" ry="2.764"/>
	<ellipse opacity="0.7" fill="#FFFFFF" cx="278.055" cy="253.319" rx="2.743" ry="2.764"/>
</g>
<path fill="#23263F" d="M137.752,376.306V227.593c0-7.605-5.761-13.77-12.87-13.77c-7.109,0-12.87,6.164-12.87,13.77v148.713
	H137.752z"/>
<path fill="#FFB287" d="M123.209,391.311c0.116,1.138,1.124,1.966,2.258,1.85l0,0c1.128-0.118,1.953-1.136,1.834-2.273l-0.746-7.353
	c-0.117-1.142-1.13-1.969-2.258-1.854l0,0c-1.133,0.117-1.952,1.136-1.841,2.274L123.209,391.311z"/>
<path fill="#FFE843" d="M190.118,132.008v39.644c0,11.786-7.292,21.858-17.584,25.874c-3.094,1.212-6.451,1.875-9.966,1.875
	c-7.601,0-14.491-3.107-19.483-8.123c-3.597-3.638-6.203-8.267-7.369-13.444c-0.46-1.989-0.694-4.062-0.694-6.181v-39.644
	c0-8.689,3.965-16.453,10.179-21.538c0-0.009,0.007-0.009,0.016-0.009c3.007-1.193,6.206-2.008,9.53-2.367
	c1.336-0.152,2.688-0.228,4.073-0.228c13.027,0,23.78,5.823,29.89,15.376C189.63,125.998,190.118,128.942,190.118,132.008z"/>
<path fill="#FFB287" d="M186.032,132.008v39.644c0,11.786-7.293,21.858-17.586,25.874c-3.091,1.212-6.447,1.875-9.962,1.875
	c-7.603,0-12.469-6.255-17.462-11.271c-3.599-3.637-8.227-5.118-9.392-10.296c-0.46-1.989-0.695-4.062-0.695-6.181v-39.644
	c0-8.689,3.964-16.453,10.18-21.538c0-0.009,0.007-0.009,0.019-0.009c3.006-1.193,6.203-2.008,9.53-2.367
	c1.333-0.152,2.687-0.228,4.068-0.228c13.031,0,23.783,5.823,29.891,15.376C185.545,125.998,186.032,128.942,186.032,132.008z"/>
<path fill="#F48967" d="M166.049,207.491c0,4.354-5.84,7.883-13.035,7.883l0,0c-7.199,0-13.033-3.529-13.033-7.883v-24.447
	c0-4.355,5.834-7.886,13.033-7.886l0,0c7.195,0,13.035,3.53,13.035,7.886V207.491z"/>
<polygon fill="#633127" points="142.258,540.338 124.029,540.338 124.029,552.006 142.322,550.481 "/>
<rect x="163.874" y="538.813" fill="#633127" width="17.874" height="11.668"/>
<path fill="#FFE843" d="M190.311,352.312v194.64h-26.153v-151.16c0-3.747-5.006-6.787-8.728-6.787c-1.175,0-2.272,0.299-3.216,0.829
	c-0.571,0.309-1.087,0.707-1.536,1.16c-1.23,1.228-1.978,2.93-1.978,4.798v151.16h-24.672v-194.64H190.311z"/>
<path fill="#333557" d="M183.877,352.312v194.64h-21.708v-151.16c0-3.747-3.018-6.787-6.739-6.787c-1.175,0,0.943-0.53,0,0
	c-0.957-0.53-5.27,0-6.433,0c-1.865,0-3.544,0.763-4.752,1.989c-1.229,1.228-1.987,2.93-1.987,4.798v151.16h-20.35v-194.64H183.877z
	"/>
<path fill="#F48967" d="M180.591,123.243c-6.108-9.553-16.864-15.376-29.891-15.376c-1.382,0-2.733,0.076-4.07,0.228
	c-3.324,0.359-6.523,1.173-9.531,2.367c-0.008,0-0.014,0-0.014,0.009c-6.215,5.084-10.182,12.848-10.182,21.538v33.788h12.951
	v29.388c4.236,2.668,9.238,4.217,14.597,4.217c3.515,0,6.871-0.663,9.963-1.875c10.294-4.015,17.588-14.088,17.588-25.874v-39.644
	C182.002,128.942,181.514,125.998,180.591,123.243z"/>
<ellipse fill="#47231C" cx="158.087" cy="154.052" rx="0" ry="0.417"/>
<path fill="#333557" d="M195.678,222.453l-3.728,136.01c0,0.3,0.509,14.689,0.5,14.979l-70.556-0.444
	c-0.01-0.29-0.03-0.59-0.03-0.891l-1.367-124.725l-0.55,0.13c0,0-7-14.98-3.93-28.4c3-5.82,13.871-8.78,22.59-10.26
	c6.491-1.09,11.79-1.36,11.79-1.36l-0.07,1.5c2.511-0.53,5.101-0.81,7.76-0.81c4.78,0,9.35,0.9,13.56,2.54
	c0.009,0.01,4.11,0.63,9.021,2.32C186.197,214.933,192.758,217.273,195.678,222.453z"/>
<path fill="#24253D" d="M125.245,550.481h10.94h6.137c0.59,2.91,9.203,4.692,12.444,5.1l19.662,3.646
	c0.506,1.111,0.797,2.345,0.797,3.647c0,4.829-5.014,5.099-9.81,5.099h-16.85h-6.143l-4.323-4.82v4.82h-12.855
	c-4.798,0-5.456,0.339-5.456-4.489C119.79,558.651,120.447,550.481,125.245,550.481z"/>
<rect x="119.087" y="563.152" width="19.013" height="4.82"/>
<rect x="142.322" y="564.941" width="32.387" height="3.031"/>
<polygon points="142.322,564.941 138.1,563.152 142.322,567.973 "/>
<path fill="#FFE843" d="M164.67,550.481h10.941h6.137c0.59,2.91,9.203,4.692,12.445,5.1l19.663,3.646
	c0.508,1.111,0.8,2.345,0.8,3.647c0,4.829-5.017,5.099-9.814,5.099h-16.847h-6.143l-4.326-4.82v4.82H164.67
	c-4.794,0-5.453,0.339-5.453-4.489C159.217,558.651,159.876,550.481,164.67,550.481z"/>
<path fill="#333557" d="M164.67,550.481h10.941h4.025c-0.807,7.812,34.5,10.438,34.5,10.438c0.507,1.111,0.519,0.652,0.519,1.955
	c0,4.829-5.017,5.099-9.814,5.099h-16.847h-6.143l-4.326-4.82v4.82H164.67c-4.794,0-5.453,0.339-5.453-4.489
	C159.217,558.651,159.876,550.481,164.67,550.481z"/>
<rect x="158.515" y="563.152" width="19.01" height="4.82"/>
<rect x="181.748" y="564.941" width="32.389" height="3.031"/>
<polygon points="181.748,564.941 177.525,563.152 181.748,567.973 "/>
<path fill="#4A2021" d="M156.463,103.595c-18.585,0-33.071,10.868-35.942,29.368c-1.622,10.454-3.422,37.833,8.252,51.214
	c3.698,4.237,9.188,5.963,14.399,5.963h14.5c3.281,0,6.561-1.251,9.065-3.754c2.501-2.503,3.753-5.784,3.753-9.064v-20.677h11.513
	v-24.636l8.782-2.036l-2.333-1.177C188.451,110.074,175.047,103.595,156.463,103.595z"/>
<path fill="#425C60" d="M418.677,419.506l-0.001-59.813c0-1.875,0.865-3.575,2.278-4.799c1.4-1.233,3.335-1.991,5.479-1.991
	c4.296,0,7.77,3.038,7.77,6.79l0.002,59.813h32.438l-0.001-103.293h-78.829l0.001,103.293H418.677z"/>
<path fill="#FFE843" d="M194.157,129.112l-0.089,0.86l-5.399,0.91l0.02-0.22c0-18.72-19.111-25.51-37.69-25.51
	c-2.97,0-5.859,0.29-8.6,0.86c4.281-1.59,9.04-2.42,14.07-2.42C175.047,103.592,194.157,110.393,194.157,129.112z"/>
<path fill="#425C60" d="M533.281,333.613v77.569c0,4.591-3.73,8.32-8.32,8.32h-16.73v-47.2c0-3.34-2.68-6.05-6-6.05
	c-1.65,0-3.15,0.68-4.23,1.771c-1.089,1.09-1.759,2.609-1.759,4.279v47.2h-23.83v-85.89H533.281z"/>
<path fill="#425C60" d="M306.187,229.518c0-1.941,0.469-3.911,1.465-5.735c0.997-1.824,2.402-3.282,4.037-4.33l34.268-21.99
	l35.875,21.863c1.773,1.082,3.307,2.616,4.396,4.557s1.604,4.047,1.604,6.126v113.489h-81.645V229.518z"/>
<path fill="#425C60" d="M451.632,225.644c0-1.942,0.469-3.912,1.465-5.736c0.997-1.824,2.402-3.281,4.037-4.331l34.268-21.989
	l35.875,21.863c1.773,1.081,3.308,2.615,4.396,4.556c1.09,1.941,1.603,4.047,1.603,6.126v113.489h-81.644V225.644z"/>
<path fill="#547077" d="M472.414,211.763v127.86h-93.029v-128.46c0-2.33-0.945-17.87,6.271-22.08
	c4.426-3.18,10.678-5.56,17.828-7.12c4.748-1.04,9.893-1.73,15.16-2.05c2.828-0.18,5.686-0.25,8.541-0.21
	c5.24,0.06,10.441,0.46,15.359,1.22c9.287,1.419,17.556,4.09,23.039,8C472.414,194.183,472.414,209.252,472.414,211.763z"/>
<polygon fill="#BCCECC" points="408.951,190.963 426.451,258.463 441.451,190.963 "/>
<path fill="#F48967" d="M179.827,155.809c0,2.596-2.09,4.701-4.669,4.701l0,0c-2.575,0-4.664-2.105-4.664-4.701v-2.686
	c0-2.596,2.089-4.701,4.664-4.701l0,0c2.579,0,4.669,2.105,4.669,4.701V155.809z"/>
<path fill="#333557" d="M169.392,209.938c-12.531,1.581-24.542,1.52-36.075-0.021l3.134-7.946c8.688,1.838,20.91,1.519,29.598,0
	L169.392,209.938z"/>
<path fill="#425C60" d="M341.355,418.936V376.41c0-1.656,0.668-3.159,1.758-4.24c1.08-1.089,2.576-1.759,4.229-1.759
	c3.314,0,5.999,2.685,5.999,5.999v42.525h25.045v-80.942h-60.862v80.942H341.355z"/>
<g>
	<path fill="#FFB287" d="M374.102,175.825c0,3.698-2.979,6.694-6.646,6.694c-3.668,0-6.645-2.996-6.645-6.694
		c0-3.696,2.977-6.692,6.645-6.692C371.123,169.133,374.102,172.129,374.102,175.825z"/>
	<ellipse fill="#FFB287" cx="325.968" cy="175.825" rx="6.645" ry="6.694"/>
	<path fill="#FFB287" d="M326.876,136.906c-0.11,0.102-0.228,0.195-0.333,0.303c-1.509,1.52-2.438,3.409-2.79,5.38v50.569
		c0,2.554,0.568,5.149,1.784,7.555c1.218,2.405,2.935,4.335,4.938,5.734l7.68,5.373c2.638,1.847,5.788,2.927,9.18,2.927
		c3.387,0,6.534-1.08,9.182-2.927l7.849-5.492c1.95-1.363,3.62-3.244,4.809-5.589c0.814-1.615,1.332-3.31,1.579-5.024v-57.743
		c0-0.361-0.069-0.718-0.172-1.066H326.876z"/>
	<path fill="#6B4B46" d="M371.748,137.758c-5.497-5.558-10.176-4.604-11.699-4.073c-0.002,0.001-0.004,0.002-0.004,0.002
		c-2.83-3.027-19.816-7.698-30.819-1.035c-23.517,14.254-5.636,39.526-5.636,39.526v-13.733c0-1.35,0.116-2.67,0.332-3.958
		c4.275,1.942,9.41,3.077,14.931,3.077c12.911,0,23.694-6.18,26.34-14.432c2.235,2.67,5.708,6.457,5.562,28.367
		C378.46,164.713,378.486,144.546,371.748,137.758z"/>
</g>
<g>
	<ellipse fill="#FFB287" cx="518.713" cy="176.931" rx="6.646" ry="6.693"/>
	<ellipse fill="#FFB287" cx="477.225" cy="176.931" rx="6.644" ry="6.693"/>
	<path fill="#FFB287" d="M478.132,138.011c-0.109,0.102-0.227,0.196-0.333,0.304c-1.509,1.52-2.439,3.408-2.79,5.38v50.568
		c0,2.555,0.57,5.149,1.787,7.556c1.217,2.404,2.934,4.335,4.936,5.734l7.682,5.373c2.637,1.847,5.787,2.927,9.18,2.927
		c3.385,0,6.532-1.08,9.18-2.927l7.851-5.492c1.948-1.363,3.617-3.244,4.809-5.589c0.812-1.615,1.33-3.31,1.577-5.024v-57.743
		c0-0.361-0.069-0.717-0.172-1.066H478.132z"/>
	<path fill="#6B4B46" d="M523.004,138.864c-5.496-5.558-10.177-4.604-11.701-4.073c-0.002,0.001-0.003,0.002-0.006,0.003
		c-2.827-3.028-19.812-7.699-30.816-1.036c-23.517,14.254-5.634,39.527-5.634,39.527v-13.733c0-1.35,0.115-2.67,0.332-3.958
		c4.273,1.942,9.407,3.076,14.931,3.076c12.911,0,23.695-6.18,26.339-14.432c2.235,2.67,5.708,6.458,5.561,28.368
		C529.717,165.818,529.744,145.652,523.004,138.864z"/>
</g>
<path fill="#23263F" d="M164.158,321.499c0,2.781-2.238,5.036-5.001,5.036h-25.47c-2.765,0-5.002-2.255-5.002-5.036l0,0
	c0-2.782,2.238-5.036,5.002-5.036h25.47C161.919,316.463,164.158,318.717,164.158,321.499L164.158,321.499z"/>
<g>
	<g>
		<path fill="#547077" d="M374.277,210.917v26.55c0,10.77-5.05,20.39-12.881,26.57c-0.188,0.15-0.379,0.3-0.579,0.44
			c-0.22,0.16-0.431,0.319-0.649,0.479c-0.221,0.161-0.44,0.32-0.67,0.46c-0.17,0.12-0.352,0.24-0.531,0.36
			c-0.3,0.2-0.608,0.39-0.92,0.58c-0.279,0.17-0.569,0.34-0.859,0.5c-0.291,0.17-0.58,0.33-0.88,0.49
			c-0.15,0.081-0.29,0.15-0.44,0.23c-0.189,0.09-0.369,0.181-0.56,0.27c-0.33,0.17-0.661,0.32-1,0.47
			c-0.29,0.13-0.591,0.261-0.899,0.39c-0.371,0.149-0.741,0.29-1.111,0.43c-0.21,0.08-0.42,0.15-0.63,0.23
			c-0.309,0.11-0.62,0.21-0.93,0.299c-0.19,0.061-0.379,0.12-0.58,0.18c-0.329,0.1-0.669,0.19-1,0.28c-0.43,0.11-0.86,0.21-1.29,0.3
			c-0.48,0.11-0.959,0.2-1.449,0.28c-0.44,0.08-0.881,0.149-1.32,0.2c-0.021,0.01-0.029,0.01-0.04,0.01c-0.4,0.05-0.8,0.09-1.2,0.13
			c-0.15,0.01-0.3,0.031-0.461,0.04h-0.029c-0.36,0.031-0.73,0.05-1.1,0.07h-0.06c-0.471,0.02-0.94,0.03-1.411,0.03h-9.819v21h9.819
			c0.63,0,1.261-0.01,1.891-0.04c0.07,0,0.15,0,0.221-0.01c0.639-0.02,1.27-0.05,1.889-0.1c0.66-0.051,1.32-0.11,1.971-0.181
			c0.6-0.06,1.189-0.14,1.779-0.229c0.09-0.01,0.17-0.021,0.261-0.03c0.54-0.08,1.069-0.17,1.601-0.27
			c0.179-0.03,0.359-0.061,0.539-0.1c0.53-0.101,1.07-0.211,1.6-0.331c0.61-0.13,1.211-0.279,1.812-0.439
			c0.06-0.011,0.13-0.03,0.21-0.061c0.549-0.14,1.099-0.29,1.64-0.46c1.319-0.39,2.62-0.83,3.909-1.33
			c0.52-0.189,1.02-0.399,1.529-0.62c0.091-0.029,0.182-0.069,0.28-0.109c0.5-0.21,1-0.431,1.491-0.67
			c0.58-0.261,1.15-0.54,1.71-0.83c0.519-0.26,1.04-0.53,1.55-0.811c0.039-0.029,0.08-0.05,0.119-0.069
			c0.511-0.28,1.031-0.57,1.531-0.88c0.08-0.051,0.16-0.09,0.24-0.14c0.5-0.291,0.989-0.601,1.469-0.921
			c2.561-1.64,4.97-3.51,7.211-5.56c10.979-10.011,17.88-24.47,17.88-40.53l0.989-37.671
			C397.688,178.788,372.707,189.908,374.277,210.917z"/>
	</g>
</g>
<path fill="none" stroke="#8DCCC9" stroke-width="4.2083" stroke-linecap="round" stroke-miterlimit="10" d="M379.185,287.286
	c-3.547,5.098-9.449,8.436-16.133,8.436c-6.445,0-12.168-3.105-15.749-7.902"/>
<path fill="none" stroke="#8DCCC9" stroke-width="4.2083" stroke-linecap="round" stroke-miterlimit="10" d="M346.832,264.999
	c3.539-5.169,9.484-8.561,16.221-8.561c7.188,0,13.474,3.861,16.896,9.622"/>
<path fill="#B5927F" d="M425.748,197.703c-6.699,0-12.16-4.17-12.16-9.28c0-5.11,5.461-9.28,12.16-9.28
	c6.709,0,12.16,4.17,12.16,9.28C437.908,193.533,432.457,197.703,425.748,197.703z"/>
<path fill="#E2F7F5" d="M442.296,180.694c-4.291-0.62-8.758-0.943-13.222-0.991c3.812,1.065,6.772,3.941,7.084,7.487
	c0.429,4.867-4.229,9.139-10.427,9.139c-6.188,0-10.867-4.272-10.453-9.139c0.289-3.381,2.977-6.143,6.518-7.317
	c-4.511,0.259-8.97,0.822-13.175,1.68c-0.94,1.705,2.175,22.701,11.248,25.438c0.825-1.291,1.938-2.868,2.954-4.271
	c1.55-2.146,2.912-3.953,2.912-3.953l2.719,3.964l2.963,4.321C440.607,204.396,443.503,182.61,442.296,180.694z"/>
<path fill="#B5927F" d="M437.908,188.423c0,5.11-5.451,9.28-12.16,9.28c-6.699,0-12.16-4.17-12.16-9.28
	c0-5.11,5.461-9.28,12.16-9.28C432.457,179.143,437.908,183.312,437.908,188.423z"/>
<rect x="189.453" y="297.252" fill="#FFE843" width="6.194" height="76.195"/>
<g>
	<linearGradient id="SVGID_1_" gradientUnits="userSpaceOnUse" x1="248.751" y1="372.1953" x2="472.7507" y2="373.1953">
		<stop  offset="0" style="stop-color:#FFFFFF"/>
		<stop  offset="0.9949" style="stop-color:#8DCCC9"/>
	</linearGradient>
	<ellipse opacity="0.7" fill="url(#SVGID_1_)" cx="244.368" cy="372.175" rx="2.744" ry="2.764"/>
	<linearGradient id="SVGID_2_" gradientUnits="userSpaceOnUse" x1="248.749" y1="372.1367" x2="472.7886" y2="373.1369">
		<stop  offset="0" style="stop-color:#FFFFFF"/>
		<stop  offset="0.9949" style="stop-color:#8DCCC9"/>
	</linearGradient>
	<ellipse opacity="0.7" fill="url(#SVGID_2_)" cx="257.401" cy="372.175" rx="2.745" ry="2.764"/>
	<linearGradient id="SVGID_3_" gradientUnits="userSpaceOnUse" x1="248.7515" y1="372.0781" x2="472.7512" y2="373.0781">
		<stop  offset="0" style="stop-color:#FFFFFF"/>
		<stop  offset="0.9949" style="stop-color:#8DCCC9"/>
	</linearGradient>
	<ellipse opacity="0.7" fill="url(#SVGID_3_)" cx="270.435" cy="372.175" rx="2.744" ry="2.764"/>
	<linearGradient id="SVGID_4_" gradientUnits="userSpaceOnUse" x1="248.7578" y1="372.0215" x2="472.7177" y2="373.0213">
		<stop  offset="0" style="stop-color:#FFFFFF"/>
		<stop  offset="0.9949" style="stop-color:#8DCCC9"/>
	</linearGradient>
	<ellipse opacity="0.7" fill="url(#SVGID_4_)" cx="283.469" cy="372.175" rx="2.744" ry="2.764"/>
	<linearGradient id="SVGID_5_" gradientUnits="userSpaceOnUse" x1="248.751" y1="371.9629" x2="472.7507" y2="372.9629">
		<stop  offset="0" style="stop-color:#FFFFFF"/>
		<stop  offset="0.9949" style="stop-color:#8DCCC9"/>
	</linearGradient>
	<ellipse opacity="0.7" fill="url(#SVGID_5_)" cx="296.501" cy="372.175" rx="2.744" ry="2.764"/>
	<linearGradient id="SVGID_6_" gradientUnits="userSpaceOnUse" x1="248.7622" y1="371.9043" x2="472.7221" y2="372.9041">
		<stop  offset="0" style="stop-color:#FFFFFF"/>
		<stop  offset="0.9949" style="stop-color:#8DCCC9"/>
	</linearGradient>
	<ellipse opacity="0.7" fill="url(#SVGID_6_)" cx="309.535" cy="372.175" rx="2.744" ry="2.764"/>
	<linearGradient id="SVGID_7_" gradientUnits="userSpaceOnUse" x1="248.7524" y1="371.8457" x2="472.7524" y2="372.8457">
		<stop  offset="0" style="stop-color:#FFFFFF"/>
		<stop  offset="0.9949" style="stop-color:#8DCCC9"/>
	</linearGradient>
	<ellipse opacity="0.7" fill="url(#SVGID_7_)" cx="322.568" cy="372.175" rx="2.744" ry="2.764"/>
	<linearGradient id="SVGID_8_" gradientUnits="userSpaceOnUse" x1="248.7686" y1="371.7871" x2="472.7287" y2="372.7869">
		<stop  offset="0" style="stop-color:#FFFFFF"/>
		<stop  offset="0.9949" style="stop-color:#8DCCC9"/>
	</linearGradient>
	<ellipse opacity="0.7" fill="url(#SVGID_8_)" cx="335.602" cy="372.175" rx="2.743" ry="2.764"/>
	<linearGradient id="SVGID_9_" gradientUnits="userSpaceOnUse" x1="248.7539" y1="371.7305" x2="472.7537" y2="372.7305">
		<stop  offset="0" style="stop-color:#FFFFFF"/>
		<stop  offset="0.9949" style="stop-color:#8DCCC9"/>
	</linearGradient>
	<ellipse opacity="0.7" fill="url(#SVGID_9_)" cx="348.636" cy="372.175" rx="2.744" ry="2.764"/>
	<linearGradient id="SVGID_10_" gradientUnits="userSpaceOnUse" x1="248.7544" y1="371.6719" x2="472.7542" y2="372.6719">
		<stop  offset="0" style="stop-color:#FFFFFF"/>
		<stop  offset="0.9949" style="stop-color:#8DCCC9"/>
	</linearGradient>
	<ellipse opacity="0.7" fill="url(#SVGID_10_)" cx="361.669" cy="372.175" rx="2.744" ry="2.764"/>
	<linearGradient id="SVGID_11_" gradientUnits="userSpaceOnUse" x1="248.731" y1="371.6123" x2="472.7706" y2="372.6125">
		<stop  offset="0" style="stop-color:#FFFFFF"/>
		<stop  offset="0.9949" style="stop-color:#8DCCC9"/>
	</linearGradient>
	<ellipse opacity="0.7" fill="url(#SVGID_11_)" cx="374.702" cy="372.175" rx="2.745" ry="2.764"/>
	<linearGradient id="SVGID_12_" gradientUnits="userSpaceOnUse" x1="248.7285" y1="371.5537" x2="472.7684" y2="372.5539">
		<stop  offset="0" style="stop-color:#FFFFFF"/>
		<stop  offset="0.9949" style="stop-color:#8DCCC9"/>
	</linearGradient>
	<ellipse opacity="0.7" fill="url(#SVGID_12_)" cx="387.736" cy="372.175" rx="2.744" ry="2.764"/>
	<linearGradient id="SVGID_13_" gradientUnits="userSpaceOnUse" x1="248.7266" y1="371.4951" x2="472.7664" y2="372.4953">
		<stop  offset="0" style="stop-color:#FFFFFF"/>
		<stop  offset="0.9949" style="stop-color:#8DCCC9"/>
	</linearGradient>
	<ellipse opacity="0.7" fill="url(#SVGID_13_)" cx="400.769" cy="372.175" rx="2.744" ry="2.764"/>
	<linearGradient id="SVGID_14_" gradientUnits="userSpaceOnUse" x1="248.7554" y1="371.4395" x2="472.7553" y2="372.4395">
		<stop  offset="0" style="stop-color:#FFFFFF"/>
		<stop  offset="0.9949" style="stop-color:#8DCCC9"/>
	</linearGradient>
	<ellipse opacity="0.7" fill="url(#SVGID_14_)" cx="413.803" cy="372.175" rx="2.744" ry="2.764"/>
	<linearGradient id="SVGID_15_" gradientUnits="userSpaceOnUse" x1="248.7866" y1="371.3809" x2="472.7467" y2="372.3807">
		<stop  offset="0" style="stop-color:#FFFFFF"/>
		<stop  offset="0.9949" style="stop-color:#8DCCC9"/>
	</linearGradient>
	<ellipse opacity="0.7" fill="url(#SVGID_15_)" cx="426.836" cy="372.175" rx="2.743" ry="2.764"/>
	<linearGradient id="SVGID_16_" gradientUnits="userSpaceOnUse" x1="248.7549" y1="371.3223" x2="472.7549" y2="372.3223">
		<stop  offset="0" style="stop-color:#FFFFFF"/>
		<stop  offset="0.9949" style="stop-color:#8DCCC9"/>
	</linearGradient>
	<ellipse opacity="0.7" fill="url(#SVGID_16_)" cx="439.869" cy="372.175" rx="2.744" ry="2.764"/>
	<linearGradient id="SVGID_17_" gradientUnits="userSpaceOnUse" x1="248.792" y1="371.2637" x2="472.7521" y2="372.2635">
		<stop  offset="0" style="stop-color:#FFFFFF"/>
		<stop  offset="0.9949" style="stop-color:#8DCCC9"/>
	</linearGradient>
	<ellipse opacity="0.7" fill="url(#SVGID_17_)" cx="452.903" cy="372.175" rx="2.743" ry="2.764"/>
	<linearGradient id="SVGID_18_" gradientUnits="userSpaceOnUse" x1="248.6895" y1="386.1396" x2="472.6496" y2="387.1395">
		<stop  offset="0" style="stop-color:#FFFFFF"/>
		<stop  offset="0.9949" style="stop-color:#8DCCC9"/>
	</linearGradient>
	<ellipse opacity="0.7" fill="url(#SVGID_18_)" cx="257.467" cy="386.178" rx="2.743" ry="2.765"/>
	<linearGradient id="SVGID_19_" gradientUnits="userSpaceOnUse" x1="248.6919" y1="386.082" x2="472.652" y2="387.0818">
		<stop  offset="0" style="stop-color:#FFFFFF"/>
		<stop  offset="0.9949" style="stop-color:#8DCCC9"/>
	</linearGradient>
	<ellipse opacity="0.7" fill="url(#SVGID_19_)" cx="270.5" cy="386.178" rx="2.743" ry="2.765"/>
	<linearGradient id="SVGID_20_" gradientUnits="userSpaceOnUse" x1="248.6826" y1="386.0234" x2="472.7222" y2="387.0236">
		<stop  offset="0" style="stop-color:#FFFFFF"/>
		<stop  offset="0.9949" style="stop-color:#8DCCC9"/>
	</linearGradient>
	<ellipse opacity="0.7" fill="url(#SVGID_20_)" cx="283.534" cy="386.178" rx="2.745" ry="2.765"/>
	<linearGradient id="SVGID_21_" gradientUnits="userSpaceOnUse" x1="248.6895" y1="385.9658" x2="472.6892" y2="386.9658">
		<stop  offset="0" style="stop-color:#FFFFFF"/>
		<stop  offset="0.9949" style="stop-color:#8DCCC9"/>
	</linearGradient>
	<ellipse opacity="0.7" fill="url(#SVGID_21_)" cx="296.568" cy="386.178" rx="2.744" ry="2.765"/>
	<linearGradient id="SVGID_22_" gradientUnits="userSpaceOnUse" x1="248.6782" y1="385.9062" x2="472.7178" y2="386.9064">
		<stop  offset="0" style="stop-color:#FFFFFF"/>
		<stop  offset="0.9949" style="stop-color:#8DCCC9"/>
	</linearGradient>
	<ellipse opacity="0.7" fill="url(#SVGID_22_)" cx="309.601" cy="386.178" rx="2.745" ry="2.765"/>
	<linearGradient id="SVGID_23_" gradientUnits="userSpaceOnUse" x1="248.6899" y1="385.8496" x2="472.6899" y2="386.8496">
		<stop  offset="0" style="stop-color:#FFFFFF"/>
		<stop  offset="0.9949" style="stop-color:#8DCCC9"/>
	</linearGradient>
	<ellipse opacity="0.7" fill="url(#SVGID_23_)" cx="322.634" cy="386.178" rx="2.744" ry="2.765"/>
	<linearGradient id="SVGID_24_" gradientUnits="userSpaceOnUse" x1="248.6914" y1="385.791" x2="472.6914" y2="386.791">
		<stop  offset="0" style="stop-color:#FFFFFF"/>
		<stop  offset="0.9949" style="stop-color:#8DCCC9"/>
	</linearGradient>
	<ellipse opacity="0.7" fill="url(#SVGID_24_)" cx="335.668" cy="386.178" rx="2.744" ry="2.765"/>
	<linearGradient id="SVGID_25_" gradientUnits="userSpaceOnUse" x1="248.6904" y1="385.7324" x2="472.6902" y2="386.7324">
		<stop  offset="0" style="stop-color:#FFFFFF"/>
		<stop  offset="0.9949" style="stop-color:#8DCCC9"/>
	</linearGradient>
	<ellipse opacity="0.7" fill="url(#SVGID_25_)" cx="348.701" cy="386.178" rx="2.744" ry="2.765"/>
	<linearGradient id="SVGID_26_" gradientUnits="userSpaceOnUse" x1="248.6909" y1="385.6748" x2="472.6907" y2="386.6748">
		<stop  offset="0" style="stop-color:#FFFFFF"/>
		<stop  offset="0.9949" style="stop-color:#8DCCC9"/>
	</linearGradient>
	<ellipse opacity="0.7" fill="url(#SVGID_26_)" cx="361.734" cy="386.178" rx="2.744" ry="2.765"/>
	<linearGradient id="SVGID_27_" gradientUnits="userSpaceOnUse" x1="248.6899" y1="385.6162" x2="472.6897" y2="386.6162">
		<stop  offset="0" style="stop-color:#FFFFFF"/>
		<stop  offset="0.9949" style="stop-color:#8DCCC9"/>
	</linearGradient>
	<ellipse opacity="0.7" fill="url(#SVGID_27_)" cx="374.767" cy="386.178" rx="2.744" ry="2.765"/>
	<linearGradient id="SVGID_28_" gradientUnits="userSpaceOnUse" x1="248.6914" y1="385.5586" x2="472.6915" y2="386.5586">
		<stop  offset="0" style="stop-color:#FFFFFF"/>
		<stop  offset="0.9949" style="stop-color:#8DCCC9"/>
	</linearGradient>
	<ellipse opacity="0.7" fill="url(#SVGID_28_)" cx="387.802" cy="386.178" rx="2.745" ry="2.765"/>
	<linearGradient id="SVGID_29_" gradientUnits="userSpaceOnUse" x1="248.6641" y1="385.499" x2="472.704" y2="386.4992">
		<stop  offset="0" style="stop-color:#FFFFFF"/>
		<stop  offset="0.9949" style="stop-color:#8DCCC9"/>
	</linearGradient>
	<ellipse opacity="0.7" fill="url(#SVGID_29_)" cx="400.834" cy="386.178" rx="2.745" ry="2.765"/>
	<linearGradient id="SVGID_30_" gradientUnits="userSpaceOnUse" x1="248.6626" y1="385.4404" x2="472.7025" y2="386.4406">
		<stop  offset="0" style="stop-color:#FFFFFF"/>
		<stop  offset="0.9949" style="stop-color:#8DCCC9"/>
	</linearGradient>
	<ellipse opacity="0.7" fill="url(#SVGID_30_)" cx="413.869" cy="386.178" rx="2.744" ry="2.765"/>
	<linearGradient id="SVGID_31_" gradientUnits="userSpaceOnUse" x1="248.6606" y1="385.3828" x2="472.7003" y2="386.383">
		<stop  offset="0" style="stop-color:#FFFFFF"/>
		<stop  offset="0.9949" style="stop-color:#8DCCC9"/>
	</linearGradient>
	<ellipse opacity="0.7" fill="url(#SVGID_31_)" cx="426.901" cy="386.178" rx="2.745" ry="2.765"/>
	<linearGradient id="SVGID_32_" gradientUnits="userSpaceOnUse" x1="248.6934" y1="385.3252" x2="472.6931" y2="386.3252">
		<stop  offset="0" style="stop-color:#FFFFFF"/>
		<stop  offset="0.9949" style="stop-color:#8DCCC9"/>
	</linearGradient>
	<ellipse opacity="0.7" fill="url(#SVGID_32_)" cx="439.935" cy="386.178" rx="2.744" ry="2.765"/>
	<linearGradient id="SVGID_33_" gradientUnits="userSpaceOnUse" x1="248.7295" y1="385.2676" x2="472.6898" y2="386.2674">
		<stop  offset="0" style="stop-color:#FFFFFF"/>
		<stop  offset="0.9949" style="stop-color:#8DCCC9"/>
	</linearGradient>
	<ellipse opacity="0.7" fill="url(#SVGID_33_)" cx="452.968" cy="386.178" rx="2.744" ry="2.765"/>
	<linearGradient id="SVGID_34_" gradientUnits="userSpaceOnUse" x1="248.77" y1="385.209" x2="472.6904" y2="386.2086">
		<stop  offset="0" style="stop-color:#FFFFFF"/>
		<stop  offset="0.9949" style="stop-color:#8DCCC9"/>
	</linearGradient>
	<ellipse opacity="0.7" fill="url(#SVGID_34_)" cx="466.001" cy="386.178" rx="2.744" ry="2.765"/>
	<linearGradient id="SVGID_35_" gradientUnits="userSpaceOnUse" x1="248.6274" y1="399.6377" x2="472.6274" y2="400.6377">
		<stop  offset="0" style="stop-color:#FFFFFF"/>
		<stop  offset="0.9949" style="stop-color:#8DCCC9"/>
	</linearGradient>
	<ellipse opacity="0.7" fill="url(#SVGID_35_)" cx="274.913" cy="399.753" rx="2.744" ry="2.765"/>
	<linearGradient id="SVGID_36_" gradientUnits="userSpaceOnUse" x1="248.6211" y1="399.5791" x2="472.6609" y2="400.5793">
		<stop  offset="0" style="stop-color:#FFFFFF"/>
		<stop  offset="0.9949" style="stop-color:#8DCCC9"/>
	</linearGradient>
	<ellipse opacity="0.7" fill="url(#SVGID_36_)" cx="287.947" cy="399.753" rx="2.744" ry="2.765"/>
	<linearGradient id="SVGID_37_" gradientUnits="userSpaceOnUse" x1="248.6191" y1="399.5215" x2="472.6592" y2="400.5217">
		<stop  offset="0" style="stop-color:#FFFFFF"/>
		<stop  offset="0.9949" style="stop-color:#8DCCC9"/>
	</linearGradient>
	<ellipse opacity="0.7" fill="url(#SVGID_37_)" cx="300.98" cy="399.753" rx="2.744" ry="2.765"/>
	<linearGradient id="SVGID_38_" gradientUnits="userSpaceOnUse" x1="248.6401" y1="399.4629" x2="472.6003" y2="400.4627">
		<stop  offset="0" style="stop-color:#FFFFFF"/>
		<stop  offset="0.9949" style="stop-color:#8DCCC9"/>
	</linearGradient>
	<ellipse opacity="0.7" fill="url(#SVGID_38_)" cx="314.014" cy="399.753" rx="2.743" ry="2.765"/>
	<linearGradient id="SVGID_39_" gradientUnits="userSpaceOnUse" x1="248.6157" y1="399.4033" x2="472.6556" y2="400.4035">
		<stop  offset="0" style="stop-color:#FFFFFF"/>
		<stop  offset="0.9949" style="stop-color:#8DCCC9"/>
	</linearGradient>
	<ellipse opacity="0.7" fill="url(#SVGID_39_)" cx="327.047" cy="399.753" rx="2.744" ry="2.765"/>
	<linearGradient id="SVGID_40_" gradientUnits="userSpaceOnUse" x1="248.6465" y1="399.3467" x2="472.6066" y2="400.3465">
		<stop  offset="0" style="stop-color:#FFFFFF"/>
		<stop  offset="0.9949" style="stop-color:#8DCCC9"/>
	</linearGradient>
	<ellipse opacity="0.7" fill="url(#SVGID_40_)" cx="340.081" cy="399.753" rx="2.743" ry="2.765"/>
	<linearGradient id="SVGID_41_" gradientUnits="userSpaceOnUse" x1="248.6113" y1="399.2871" x2="472.6509" y2="400.2873">
		<stop  offset="0" style="stop-color:#FFFFFF"/>
		<stop  offset="0.9949" style="stop-color:#8DCCC9"/>
	</linearGradient>
	<ellipse opacity="0.7" fill="url(#SVGID_41_)" cx="353.114" cy="399.753" rx="2.745" ry="2.765"/>
	<linearGradient id="SVGID_42_" gradientUnits="userSpaceOnUse" x1="248.6304" y1="399.2305" x2="472.6303" y2="400.2305">
		<stop  offset="0" style="stop-color:#FFFFFF"/>
		<stop  offset="0.9949" style="stop-color:#8DCCC9"/>
	</linearGradient>
	<ellipse opacity="0.7" fill="url(#SVGID_42_)" cx="366.148" cy="399.753" rx="2.744" ry="2.765"/>
	<linearGradient id="SVGID_43_" gradientUnits="userSpaceOnUse" x1="248.6069" y1="399.1709" x2="472.6468" y2="400.1711">
		<stop  offset="0" style="stop-color:#FFFFFF"/>
		<stop  offset="0.9949" style="stop-color:#8DCCC9"/>
	</linearGradient>
	<ellipse opacity="0.7" fill="url(#SVGID_43_)" cx="379.181" cy="399.753" rx="2.744" ry="2.765"/>
	<linearGradient id="SVGID_44_" gradientUnits="userSpaceOnUse" x1="248.6299" y1="399.1133" x2="472.6299" y2="400.1133">
		<stop  offset="0" style="stop-color:#FFFFFF"/>
		<stop  offset="0.9949" style="stop-color:#8DCCC9"/>
	</linearGradient>
	<ellipse opacity="0.7" fill="url(#SVGID_44_)" cx="392.214" cy="399.753" rx="2.744" ry="2.765"/>
	<linearGradient id="SVGID_45_" gradientUnits="userSpaceOnUse" x1="248.6309" y1="399.0557" x2="472.631" y2="400.0557">
		<stop  offset="0" style="stop-color:#FFFFFF"/>
		<stop  offset="0.9949" style="stop-color:#8DCCC9"/>
	</linearGradient>
	<ellipse opacity="0.7" fill="url(#SVGID_45_)" cx="405.249" cy="399.753" rx="2.743" ry="2.765"/>
	<linearGradient id="SVGID_46_" gradientUnits="userSpaceOnUse" x1="248.6011" y1="398.9961" x2="472.6411" y2="399.9963">
		<stop  offset="0" style="stop-color:#FFFFFF"/>
		<stop  offset="0.9949" style="stop-color:#8DCCC9"/>
	</linearGradient>
	<ellipse opacity="0.7" fill="url(#SVGID_46_)" cx="418.281" cy="399.753" rx="2.744" ry="2.765"/>
	<linearGradient id="SVGID_47_" gradientUnits="userSpaceOnUse" x1="248.6323" y1="398.9395" x2="472.6323" y2="399.9395">
		<stop  offset="0" style="stop-color:#FFFFFF"/>
		<stop  offset="0.9949" style="stop-color:#8DCCC9"/>
	</linearGradient>
	<ellipse opacity="0.7" fill="url(#SVGID_47_)" cx="431.315" cy="399.753" rx="2.744" ry="2.765"/>
	<linearGradient id="SVGID_48_" gradientUnits="userSpaceOnUse" x1="248.6328" y1="398.8809" x2="472.6328" y2="399.8809">
		<stop  offset="0" style="stop-color:#FFFFFF"/>
		<stop  offset="0.9949" style="stop-color:#8DCCC9"/>
	</linearGradient>
	<ellipse opacity="0.7" fill="url(#SVGID_48_)" cx="444.349" cy="399.753" rx="2.744" ry="2.765"/>
	<linearGradient id="SVGID_49_" gradientUnits="userSpaceOnUse" x1="248.6704" y1="398.8232" x2="472.6303" y2="399.8231">
		<stop  offset="0" style="stop-color:#FFFFFF"/>
		<stop  offset="0.9949" style="stop-color:#8DCCC9"/>
	</linearGradient>
	<ellipse opacity="0.7" fill="url(#SVGID_49_)" cx="457.382" cy="399.753" rx="2.744" ry="2.765"/>
	<linearGradient id="SVGID_50_" gradientUnits="userSpaceOnUse" x1="248.5923" y1="398.7637" x2="472.6321" y2="399.7639">
		<stop  offset="0" style="stop-color:#FFFFFF"/>
		<stop  offset="0.9949" style="stop-color:#8DCCC9"/>
	</linearGradient>
	<ellipse opacity="0.7" fill="url(#SVGID_50_)" cx="470.416" cy="399.753" rx="2.744" ry="2.765"/>
	<linearGradient id="SVGID_51_" gradientUnits="userSpaceOnUse" x1="248.6318" y1="398.7061" x2="472.6318" y2="399.7061">
		<stop  offset="0" style="stop-color:#FFFFFF"/>
		<stop  offset="0.9949" style="stop-color:#8DCCC9"/>
	</linearGradient>
	<ellipse opacity="0.7" fill="url(#SVGID_51_)" cx="483.448" cy="399.753" rx="2.744" ry="2.765"/>
</g>
<g>
	<ellipse fill="#FFB287" cx="448.874" cy="145.816" rx="7.468" ry="7.522"/>
	<ellipse fill="#FFB287" cx="402.249" cy="145.816" rx="7.468" ry="7.522"/>
	<path fill="#FFB287" d="M403.271,102.077c-0.125,0.115-0.256,0.22-0.377,0.341c-1.693,1.708-2.741,3.83-3.135,6.046v56.83
		c0,2.87,0.641,5.787,2.008,8.49c1.365,2.702,3.297,4.873,5.547,6.444l8.633,6.039c2.965,2.076,6.504,3.288,10.314,3.288
		c3.807,0,7.344-1.212,10.318-3.288l8.82-6.172c2.19-1.532,4.07-3.646,5.404-6.281c0.915-1.815,1.498-3.72,1.775-5.646v-64.893
		c0-0.405-0.078-0.806-0.193-1.199H403.271z"/>
	<path fill="#6B4B46" d="M453.697,103.035c-6.179-6.246-11.436-5.173-13.15-4.576c-0.002,0.001-0.003,0.001-0.006,0.002
		c-3.18-3.403-22.265-8.652-34.631-1.164c-26.43,16.019-6.334,44.42-6.334,44.42v-15.433c0-1.517,0.131-3.001,0.373-4.449
		c4.805,2.183,10.574,3.458,16.781,3.458c14.508,0,26.626-6.946,29.598-16.219c2.514,3.001,6.418,7.257,6.252,31.88
		C461.24,133.327,461.269,110.664,453.697,103.035z"/>
</g>
<g>
	<path fill="#23263F" d="M195.678,303.413v25.51c-16.801-9.32-28.211-27.33-28.211-47.97v-43.801c0-5.84,4.701-10.58,10.5-10.58
		c5.791,0,10.49,4.74,10.49,10.58c0,0.55-0.05-7.9-0.14-7.37v51.17C188.317,288.913,191.067,296.893,195.678,303.413z"/>
</g>
<path fill="#1B333D" d="M19.688,285.221c0,2.405-1.949,4.355-4.355,4.355l0,0c-2.404,0-4.355-1.95-4.355-4.355V177.815
	c0-2.406,1.951-4.355,4.355-4.355l0,0c2.406,0,4.355,1.949,4.355,4.355V285.221z"/>
<polygon opacity="0.26" fill="#FFFFFF" points="181.318,419.503 349.318,419.503 443.789,43.533 275.798,43.533 "/>
<path fill="#FFE843" d="M190.118,152.629l3.942,9.019c0.198,0.45,0.213,0.979-0.001,1.465c-0.212,0.486-0.614,0.832-1.079,0.991
	l-4.46,1.525L190.118,152.629z"/>
<circle fill="#23263F" cx="551.023" cy="231.517" r="11.916"/>
<g>
	<circle fill="#404E54" cx="413.187" cy="144.468" r="2.75"/>
	<circle fill="#404E54" cx="437.021" cy="144.468" r="2.75"/>
	<path fill="none" stroke="#E28156" stroke-width="2" stroke-linecap="round" stroke-miterlimit="10" d="M435.271,165.014
		c-0.873,2.743-4.652,4.807-9.182,4.807c-4.295,0-7.915-1.856-9.021-4.389"/>
</g>
<g>
	<circle fill="#567070" cx="336.078" cy="173.383" r="2.492"/>
	<circle fill="#567070" cx="357.676" cy="173.383" r="2.492"/>
	<path fill="none" stroke="#B8937F" stroke-width="1.8124" stroke-linecap="round" stroke-miterlimit="10" d="M356.09,192.002
		c-0.792,2.486-4.216,4.356-8.319,4.356c-3.893,0-7.174-1.682-8.177-3.977"/>
</g>
<rect x="455.712" y="227.462" fill="#425C60" width="14.713" height="113"/>
<path fill="#C9AE9F" d="M480.705,333.2c0,4.195-3.4,7.596-7.595,7.596l0,0c-4.196,0-7.597-3.4-7.597-7.596v-18.392
	c0-4.195,3.4-7.596,7.597-7.596l0,0c4.194,0,7.595,3.4,7.595,7.596V333.2z"/>
<g>
	<circle fill="#567070" cx="486.361" cy="174.671" r="2.492"/>
	<circle fill="#567070" cx="507.959" cy="174.671" r="2.493"/>
	<path fill="none" stroke="#B8937F" stroke-width="1.8124" stroke-linecap="round" stroke-miterlimit="10" d="M506.374,193.29
		c-0.792,2.486-4.216,4.356-8.319,4.356c-3.893,0-7.174-1.682-8.177-3.977"/>
</g>
<path fill="#547077" d="M480.705,311.797V202.002c0-5.523-4.477-10-10-10h-0.579c-5.522,0-10,4.477-10,10v109.795H480.705z"/>
<rect x="460.125" y="311.797" fill="#C3E8E6" width="20.579" height="7.969"/>
<path fill="#547077" d="M456.342,184.291c0,0,19.22,6.629,22.615,12.067c-12.603,3.438-22.615,1.345-22.615,1.345V184.291z"/>
<g>
	<g>
		<path fill="#FCBD9D" d="M319.153,293.421c0.823-0.012,1.636-0.338,2.251-0.979c0.359-0.366,0.605-0.802,0.752-1.264l9.709-0.138
			l-0.254-17.839l-9.602,0.138c-0.043-0.357-0.148-0.709-0.312-1.055c-0.23-0.464-0.549-0.851-0.924-1.155l-7.103-5.684
			c-0.427-0.306-0.917-0.451-1.399-0.444c-0.049,0.002-0.097,0.004-0.144,0.008c-0.051,0.002-0.101-0.002-0.152-0.002l-7.199,0.103
			c-1.31,0.019-2.351,1.102-2.332,2.418c0.021,1.316,1.093,2.368,2.401,2.349l6.369-0.092l1.539,2.477l-4.902,0.071l0,0
			l-13.943,0.199c-1.305,0.018-2.348,1.1-2.332,2.418c0.02,1.313,1.095,2.367,2.399,2.35l13.946-0.202l0.006,0.745l-15.074,0.218
			c-1.303,0.018-2.352,1.099-2.332,2.417c0.02,1.314,1.096,2.365,2.403,2.348l15.073-0.215l0.009,0.717l-13.116,0.187
			c-1.307,0.021-2.353,1.104-2.332,2.417c0.019,1.319,1.094,2.371,2.402,2.352l13.112-0.187l0.01,0.718l-10.95,0.157
			c-1.311,0.016-2.352,1.101-2.338,2.418c0.023,1.312,1.094,2.368,2.402,2.349l10.955-0.157l0,0L319.153,293.421z"/>
		<polygon fill="#FFFFFF" points="325.9,291.125 325.652,273.288 331.611,273.201 331.865,291.04 		"/>
	</g>
	<g>
		<path fill="#333557" d="M370.037,283.557c-8.45,5.459-18.479,8.629-29.24,8.629h-9.819v-21h9.819c7.761,0,14.91-2.669,20.6-7.15
			C370.98,260.861,378.83,278.597,370.037,283.557z"/>
	</g>
</g>
<path fill="#F48967" d="M253.121,333.817c-0.821-0.012-1.634-0.338-2.251-0.979c-0.359-0.366-0.604-0.803-0.75-1.263l-9.711-0.138
	l0.253-17.84l9.604,0.138c0.043-0.357,0.147-0.708,0.311-1.054c0.231-0.465,0.551-0.851,0.925-1.155l7.103-5.685
	c0.427-0.306,0.917-0.451,1.398-0.443c0.05,0.001,0.1,0.003,0.146,0.008c0.05,0.001,0.101-0.004,0.152-0.003l7.198,0.104
	c1.31,0.018,2.352,1.101,2.333,2.417c-0.02,1.316-1.094,2.368-2.403,2.35l-6.367-0.092l-1.54,2.476l4.903,0.07l0,0l13.942,0.199
	c1.303,0.019,2.348,1.1,2.332,2.418c-0.02,1.314-1.094,2.366-2.398,2.35l-13.946-0.201l-0.007,0.744l15.074,0.218
	c1.305,0.018,2.353,1.1,2.332,2.418c-0.02,1.313-1.094,2.364-2.402,2.347l-15.075-0.215l-0.007,0.717l13.115,0.187
	c1.307,0.021,2.352,1.104,2.332,2.418c-0.018,1.318-1.092,2.37-2.4,2.352l-13.115-0.188l-0.009,0.718l10.953,0.158
	c1.309,0.015,2.352,1.099,2.336,2.417c-0.023,1.312-1.094,2.369-2.402,2.35l-10.953-0.158l0,0L253.121,333.817z"/>
<g>
	<polygon fill="#FFFFFF" points="246.628,313.683 246.588,316.293 246.377,331.523 240.447,331.433 240.407,331.433 
		240.657,313.593 	"/>
</g>
<polygon fill="#C9D1D1" points="246.588,316.293 246.377,331.523 240.447,331.433 240.657,316.213 "/>
<path fill="#FFE843" d="M231.475,311.578c-18.459,0-33.477-15.126-33.477-33.719v-47.396c0-3.979-0.548-15.979-12.798-15.979
	c-5.796,0-8.056,4.733-8.056,10.572l0,0l0,0v52.803c0,30.175,24.373,54.724,54.33,54.724h9.823v-21.005H231.475z"/>
<path fill="#333557" d="M228.117,315.129c-18.458,0-33.475-18.677-33.475-37.27v-51.167c0-8.229-4.562-12.208-10.358-12.208
	c-5.797,0-10.495,4.733-10.495,10.572l0,0l0,0v52.803c0,30.175,24.372,54.724,54.329,54.724h13.182v-17.454H228.117z"/>
</svg>
